/* XPM */
static char *checkerboard_xpm[] = {
"64 64 2 1",
". c #000000",
"# c #FFFFFF",
"########........########........########........########........",
"########........########........########........########........",
"########........########........########........########........",
"########........########........########........########........",
"########........########........########........########........",
"########........########........########........########........",
"########........########........########........########........",
"########........########........########........########........",
"........########........########........########........########",
"........########........########........########........########",
"........########........########........########........########",
"........########........########........########........########",
"........########........########........########........########",
"........########........########........########........########",
"........########........########........########........########",
"........########........########........########........########",
"########........########........########........########........",
"########........########........########........########........",
"########........########........########........########........",
"########........########........########........########........",
"########........########........########........########........",
"########........########........########........########........",
"########........########........########........########........",
"########........########........########........########........",
"........########........########........########........########",
"........########........########........########........########",
"........########........########........########........########",
"........########........########........########........########",
"........########........########........########........########",
"........########........########........########........########",
"........########........########........########........########",
"........########........########........########........########",
"########........########........########........########........",
"########........########........########........########........",
"########........########........########........########........",
"########........########........########........########........",
"########........########........########........########........",
"########........########........########........########........",
"########........########........########........########........",
"########........########........########........########........",
"........########........########........########........########",
"........########........########........########........########",
"........########........########........########........########",
"........########........########........########........########",
"........########........########........########........########",
"........########........########........########........########",
"........########........########........########........########",
"........########........########........########........########",
"########........########........########........########........",
"########........########........########........########........",
"########........########........########........########........",
"########........########........########........########........",
"########........########........########........########........",
"########........########........########........########........",
"########........########........########........########........",
"########........########........########........########........",
"........########........########........########........########",
"........########........########........########........########",
"........########........########........########........########",
"........########........########........########........########",
"........########........########........########........########",
"........########........########........########........########",
"........########........########........########........########",
"........########........########........########........########"
};