/* XPM */
static const char *coll[] = {
/* columns rows colors chars-per-pixel */
"64 64 170 2 ",
"   c #175914",
".  c #1A5A17",
"X  c #1D5D1A",
"o  c #1B6317",
"O  c #1F621C",
"+  c #20631D",
"@  c #226A1F",
"#  c #22701F",
"$  c #246721",
"%  c #256D22",
"&  c #2C6F29",
"*  c #257221",
"=  c #277B23",
"-  c #287D25",
";  c #2E752B",
":  c #2D7C2A",
">  c #30742D",
",  c #327B2F",
"<  c #337430",
"1  c #3C7B3A",
"2  c #2A8626",
"3  c #2B8A27",
"4  c #2D852A",
"5  c #2E8D2A",
"6  c #31832E",
"7  c #318B2E",
"8  c #2E922A",
"9  c #31952D",
"0  c #329D2E",
"q  c #3A8437",
"w  c #368C33",
"e  c #398E36",
"r  c #3E813B",
"t  c #359432",
"y  c #399335",
"u  c #389B35",
"i  c #3B9038",
"p  c #3E9D3A",
"a  c #33A12F",
"s  c #35A231",
"d  c #3AA336",
"f  c #36AA32",
"g  c #38AE34",
"h  c #3CA539",
"j  c #3DAC39",
"k  c #37B032",
"l  c #3AB535",
"z  c #3BBA36",
"x  c #3EB23A",
"c  c #3EBC39",
"v  c #429D3E",
"b  c #41A13D",
"n  c #41AA3E",
"m  c #42B23E",
"M  c #42BC3D",
"N  c #43C23E",
"B  c #438641",
"V  c #448D41",
"C  c #4C8D49",
"Z  c #439340",
"A  c #489145",
"S  c #469F43",
"D  c #4E924C",
"F  c #4F9B4C",
"G  c #529D4F",
"H  c #549651",
"J  c #569F53",
"K  c #599D57",
"L  c #5C9E5A",
"P  c #45A541",
"I  c #44AA41",
"U  c #49AF45",
"Y  c #4DA54A",
"T  c #43B440",
"R  c #4BB347",
"E  c #47BB43",
"W  c #49BF45",
"Q  c #4DB649",
"!  c #4DBC49",
"~  c #50B74C",
"^  c #52B84E",
"/  c #57A854",
"(  c #5DA35A",
")  c #5CAB59",
"_  c #5FB25C",
"`  c #5FBF5B",
"'  c #63A661",
"]  c #68AC66",
"[  c #69B266",
"{  c #63B960",
"}  c #68BF65",
"|  c #6DB66B",
" . c #72B56F",
".. c #79BF76",
"X. c #46C541",
"o. c #49C544",
"O. c #4ACA45",
"+. c #4DC249",
"@. c #4EC949",
"#. c #50C44C",
"$. c #51CC4C",
"%. c #4CD147",
"&. c #4FD04B",
"*. c #51D34D",
"=. c #52D84D",
"-. c #57C653",
";. c #54CE50",
":. c #59CC55",
">. c #5DC45A",
",. c #5DCF59",
"<. c #56D452",
"1. c #58D255",
"2. c #56DA52",
"3. c #59DC55",
"4. c #5DD559",
"5. c #5EDC5A",
"6. c #61DD5D",
"7. c #5BE156",
"8. c #5CE258",
"9. c #62E35E",
"0. c #63E95F",
"q. c #67CA63",
"w. c #6EC56B",
"e. c #6DCE6A",
"r. c #69D265",
"t. c #66DC63",
"y. c #78C576",
"u. c #7BC578",
"i. c #77D674",
"p. c #67E563",
"a. c #69E365",
"s. c #66EA62",
"d. c #69EB65",
"f. c #6FE76C",
"g. c #6DED69",
"h. c #6BF067",
"j. c #6DF269",
"k. c #71F46D",
"l. c #71F96D",
"z. c #76E372",
"x. c #79E375",
"c. c #74EB71",
"v. c #7BEE77",
"b. c #7BE378",
"n. c #74F270",
"m. c #79F676",
"M. c #7CF479",
"N. c #80CC7D",
"B. c #80D67D",
"V. c #80D97D",
"C. c #80EA7D",
"Z. c #80F27D",
"A. c #82C980",
"S. c #87D584",
"D. c #89D586",
"F. c #89DD87",
"G. c #8CDA8A",
"H. c #84E481",
"J. c #8CE489",
"K. c #8EEB8B",
"L. c #91E88E",
"P. c #83F580",
"I. c #89F186",
"U. c #85F882",
"Y. c #8BF088",
"T. c #9BE899",
"R. c #92F590",
"E. c #A2EEA0",
"W. c None",
"Q. c black",
/* pixels */
"W.W.W.W.W.W.W.W.W.W.W.W.W.W.W.W.W.W.W.W.W.W.W.W.W.W.W.W.W.W.W.W.W.W.W.W.W.W.W.W.W.W.W.W.W.W.W.W.W.W.W.W.W.W.W.W.W.W.W.W.W.W.W.W.",
"W.W.W.W.W.W.W.W.W.W.W.W.W.W.W.W.W.W.W.W.W.W.W.W.W.W.W.W.W.W.W.W.W.W.W.W.W.W.W.W.W.W.W.W.W.W.W.W.W.W.W.W.W.W.W.W.W.W.W.W.W.W.W.W.",
"W.W.W.W.W.W.W.W.W.W.W.W.W.W.W.W.W.W.W.W.W.W.W.W.W.W.W.W.W.W.W.W.W.W.W.W.W.W.W.W.W.W.W.W.W.W.W.W.W.W.W.W.W.W.W.W.W.W.W.W.W.W.W.W.",
"W.W.W.W.W.W.W.W.W.W.W.W.W.W.W.W.W.W.W.W.W.W.W.W.W.W.W.W.W.W.W.W.W.W.W.W.W.W.W.W.W.W.W.W.W.W.W.W.W.W.W.W.W.W.W.W.W.W.W.W.W.W.W.W.",
"W.W.W.W.W.W.W.W.W.W.W.W.W.W.W.W.W.W.W.W.W.W.W.W.W.W.W.W.W.W.W.W.W.W.W.W.W.W.W.W.W.W.W.W.W.W.W.W.W.W.W.W.W.W.W.W.W.W.W.W.W.W.W.W.",
"W.W.W.W.W.W.W.W.W.W.W.W.W.W.W.W.W.W.W.W.W.W.W.W.W.W.W.W.W.W.W.W.W.W.W.W.W.W.W.W.W.W.W.W.W.W.W.W.W.W.W.W.W.W.W.W.W.W.W.W.W.W.W.W.",
"W.W.W.W.W.W.W.W.W.W.W.W.W.W.W.W.W.W.W.W.W.W.W.W.W.W.W.W.W.W.W.W.W.W.W.W.W.W.W.W.W.W.W.W.W.W.W.W.W.W.W.W.W.W.W.W.W.W.W.W.W.W.W.W.",
"W.W.W.W.W.W.W.W.W.W.W.W.W.W.W.W.W.W.W.W.W.W.W.W.W.W.W.W.W.W.W.W.W.W.W.W.W.W.W.W.W.W.W.W.W.W.W.W.W.W.W.W.W.W.W.W.W.W.W.W.W.W.W.W.",
"W.W.W.W.W.W.W.W.W.W.W.W.W.W.W.W.W.W.W.W.W.W.W.W.W.W.W.W.W.W.W.W.W.W.W.W.W.W.W.W.W.W.W.W.W.W.W.W.W.W.W.W.W.W.W.W.W.W.W.W.W.W.W.W.",
"W.W.W.W.W.W.W.W.W.W.W.W.W.W.W.W.W.W.W.W.W.W.W.W.W.W.W.W.W.W.W.W.W.W.W.W.W.W.W.W.W.W.W.W.W.W.W.W.W.W.W.W.W.W.W.W.W.W.W.W.W.W.W.W.",
"W.W.W.W.W.W.W.W.W.W.W.W.W.W.W.W.W.W.W.W.W.W.W.W.W.W.W.W.W.W.W.W.W.W.W.W.W.W.W.W.W.W.W.W.W.W.W.W.W.W.W.W.W.W.W.W.W.W.W.W.W.W.W.W.",
"W.W.W.W.W.W.W.W.W.W.W.W.W.W.W.W.W.W.W.W.W.X W.W.W.W.W.W.W.W.W.W.W.W.W.W.W.W.W.W.W.W.W.W.W.W.W.W.W.W.W.W.W.W.W.W.W.W.W.W.W.W.W.W.",
"W.W.W.W.W.W.W.W.W.W.W.W.W.W.W.W.W.W.W.W.: w : W.W.W.W.W.W.W.W.W.W.W.W.W.W.W.W.W.W.W.W.W.W.W.W.W.W.W.W.W.W.W.W.W.W.W.W.W.W.W.W.W.",
"W.W.W.W.W.W.W.W.W.W.W.W.W.W.W.W.W.W.W.X w 4.b + W.W.W.W.W.W.W.W.W.W.W.W.W.W.W.W.W.W.W.W.W.W.W.W.W.W.W.W.W.W.W.W.W.W.W.W.W.W.W.W.",
"W.W.W.W.W.W.W.W.W.W.W.W.W.W.W.W.W.W.W.X 4 @.#.P * W.W.W.W.W.W.W.W.W.W.W.W.W.W.W.W.W.W.W.W.W.W.W.W.W.W.W.W.W.W.W.W.W.W.W.W.W.W.W.",
"W.W.W.W.W.W.W.W.W.W.W.W.W.W.W.W.W.W.W.X = l 7.6.Z < W.W.W.W.W.W.W.W.W.W.W.W.W.W.W.W.W.W.W.W.W.W.W.W.W.W.W.W.W.W.W.W.W.W.W.W.W.W.",
"W.W.W.W.W.W.W.W.W.W.W.W.W.W.W.W.W.W.W.X = l 2.c.F.' $ W.W.W.W.W.W.W.W.W.W.W.W.W.W.W.W.W.W.W.W.W.W.W.W.W.W.W.W.W.W.W.W.W.W.W.W.W.",
"W.W.W.W.W.W.W.W.W.W.W.W.W.W.W.W.W.W.W.W.* 9 M 9.I._ + W.W.W.W.W.W.W.W.W.W.W.W.W.W.W.W.W.W.W.W.W.W.W.W.W.W.W.W.W.W.W.W.W.W.W.W.W.",
"W.W.W.W.W.W.W.W.W.W.W.W.W.W.W.W.W.W.W.W.W.@ 8 X.s.^ ; W.W.W.W.W.W.W.W.W.W.W.W.W.W.W.W.@ @ W.W.W.W.W.W.W.W.W.W.W.W.W.W.W.W.W.W.W.",
"W.W.W.W.W.W.W.W.W.W.W.W.W.W.W.W.W.W.W.W.W.+ 8 N 9.x.y.B W.W.W.W.W.W.W.W.W.W.W.W.W.W.O 8 8 @ W.W.W.W.W.W.W.W.W.W.W.W.W.W.W.W.W.W.",
"W.W.W.W.W.W.W.W.W.W.W.W.W.W.W.W.W.W.W.W.W.+ 8 X.9.U.J.V   W.W.W.W.W.W.W.W.W.W.W.W.1 A m a @ W.W.W.W.W.W.W.W.W.W.W.W.W.W.W.W.W.W.",
"W.W.W.W.W.W.W.W.W.W.W.W.W.W.W.W.W.W.W.W.W.+ 8 N 9.k.a.e + W.W.W.W.W.W.W.W.W.W.W.+ K G.:.0 @ W.W.W.W.W.W.W.W.W.W.W.W.W.W.W.W.W.W.",
"W.W.W.W.W.W.W.W.W.W.W.W.W.W.W.W.W.W.W.W.W.W.= 9 o.8.d.w.L $ W.W.W.W.W.W.W.W.W.: P >.r.@.a @ W.W.W.W.W.W.W.W.W.W.W.W.W.W.W.W.W.W.",
"W.W.W.W.W.W.W.W.W.W.W.W.W.W.W.W.W.W.W.W.W.W.X * f *.g.R.N.B ; W.W.W.W.W.W.W.  : 4.3.z f 9 @ W.W.W.W.W.W.W.W.W.W.W.W.W.W.W.W.W.W.",
"W.W.W.W.W.W.W.W.W.W.W.W.W.W.W.W.W.W.W.W.W.W.X * f *.g.n.C.D.H O W.W.W.W.W.W.  : 4.7.l 2 % W.W.W.W.W.W.W.W.W.W.W.W.W.W.W.W.W.W.W.",
"W.W.W.W.W.W.W.W.W.W.W.W.W.W.W.W.W.W.W.W.W.W.X * f O.2.0.m.Y.F X W.W.W.W.W.W.C ) :.%.l = X W.W.W.W.W.W.W.W.W.W.W.W.W.W.W.W.W.W.W.",
"W.W.W.W.W.W.W.W.W.W.W.W.W.W.W.W.W.W.W.W.W.W.X * s l N 3.h.d.P % W.W.W.W.W.> | J.#.z f - X W.W.W.W.W.W.W.W.W.W.W.W.W.W.W.W.W.W.W.",
"W.W.W.W.W.W.W.W.W.W.W.W.W.W.W.W.W.W.W.W.W.W.W.W.= 9 z X.<.s.6.Q : W.W.W.B ..H.c.o.0 - * W.W.W.W.W.W.W.W.W.W.W.W.W.W.W.W.W.W.W.W.",
"W.W.W.W.W.W.W.W.W.W.W.W.W.W.W.W.W.W.W.W.W.W.W.W.X - a k O.d.l.4.: . W.. V J.v.2.N 8 + W.W.W.W.W.W.W.W.W.W.W.W.W.W.W.W.W.W.W.W.W.",
"W.W.W.W.W.W.W.W.W.W.W.W.W.W.W.W.W.W.W.W.W.W.W.W.W.W.* a O.s.j.4.: . W.X e a.2.c z 8 + W.W.W.W.W.W.W.W.W.W.W.W.W.W.W.W.W.W.W.W.W.",
"W.W.W.W.W.W.W.W.W.W.W.W.W.W.W.W.W.W.W.W.W.W.W.W.W.W.@ 0 N &.0.4.: . W.X w 9.=.k 8 = W.W.W.W.W.W.W.W.W.W.W.W.W.W.W.W.W.W.W.W.W.W.",
"W.W.W.W.W.W.W.W.W.W.W.W.W.W.W.W.W.W.W.W.W.W.W.W.W.W.@ 9 g z 3.4.6 O W.O y 9.$.0 * W.W.W.W.W.W.W.W.W.W.W.W.W.W.W.W.W.W.W.W.W.W.W.",
"W.W.W.W.W.W.W.W.W.W.W.W.W.W.W.O O O O O O O W.W.W.W.W.% 2 l 3.6.u * @ = n p.I * W.W.W.O O O + + W.W.W.W.W.W.W.W.W.W.W.W.W.W.W.W.",
"W.W.W.W.W.W.W.W.W.W.W.W.W.W.C J S p v G L K B W.W.W.W.W.* 9 E <.+.u - h <.p.n @ . W.W.H F 7 3 2 * W.W.W.W.W.W.W.W.W.W.W.W.W.W.W.",
"W.W.W.W.W.W.W.W.W.W.W.@ @ % [ L.f.0.g.K.E.T.( % & & W.W.W.@ 8 X.9.$.d 1.j.g.+.y ; % , u.V.m k s * W.W.W.W.W.W.W.W.W.W.W.W.W.W.W.",
"W.W.W.W.W.W.W.W.+ O @ 8 a s ! ,.$.3.j.M.P.Z.t.>.y.( +     X - j 9.s.4.s.j.g.b.S.N.w.-.,.~ 4 - - W.W.W.W.W.W.W.W.W.W.W.W.W.W.W.W.",
"W.W.W.W.W.W.W.W.+ O @ 8 s s 0 a l O.5.8.7.7.8.a.H.} i V V e 5 d 6.d.9.d.j.g.i.A.F.x.1.x 3 + X X W.W.W.W.W.W.W.W.W.W.W.W.W.W.W.W.",
"W.W.W.W.W.W.W.W.W.W.W.@ % % @ = f c c c c c c M M $.t.F.J.a.T h 6.3.X.5.j.d.P 6 n x t = @ W.W.W.W.W.W.W.W.W.W.W.W.W.W.W.W.W.W.W.",
"W.W.W.W.W.W.W.W.W.W.W.W.W.W.W.@ 2 2 2 2 2 2 2 2 2 s ! / { g.5.1.d.2.c O.*.*.+.n 5 = # + W.W.W.W.W.W.W.W.W.W.W.W.W.W.W.W.W.W.W.W.",
"W.W.W.W.W.W.W.W.W.W.W.W.W.W.W.W.+ + + + + + + O O * 2 : p 5.9.9.9.*.z l k l *.1.7 * : W.W.W.W.W.W.W.W.W.W.W.W.W.W.W.W.W.W.W.W.W.",
"W.W.W.W.W.W.W.W.W.W.W.W.W.W.W.W.W.W.W.W.W.W.W.W.W.O * R <.X.x j M N z s 9 9 x N g W :.w X W.W.W.W.W.W.W.W.W.W.W.W.W.W.W.W.W.W.W.",
"W.W.W.W.W.W.W.W.W.W.W.W.W.W.W.W.W.W.W.W.W.W.W.W.W.6 P ;.*.g 8 8 k c l 8 = - 3 8 9 h U 6 W.W.W.W.W.W.W.W.W.W.W.W.W.W.W.W.W.W.W.W.",
"W.W.W.W.W.W.W.W.W.W.W.W.W.W.W.W.W.W.W.W.W.W.W.W.& P 5.o.f 9 9 s l z f - + + + + + + + W.W.W.W.W.W.W.W.W.W.W.W.W.W.W.W.W.W.W.W.W.",
"W.W.W.W.W.W.W.W.W.W.W.W.W.W.W.W.W.W.W.W.W.W.W.<  .e.O.9 - 8 E *.N a - @ O W.W.W.W.W.W.W.W.W.W.W.W.W.W.W.W.W.W.W.W.W.W.W.W.W.W.W.",
"W.W.W.W.W.W.W.W.W.W.W.W.W.W.W.W.W.W.W.W.W.W.r / B.q.9 * @ 4 >.z.m 2 + O + W.W.W.W.W.W.W.W.W.W.W.W.W.W.W.W.W.W.W.W.W.W.W.W.W.W.W.",
"W.W.W.W.W.W.W.W.W.W.W.W.W.W.W.W.W.W.W.W.W.$ ] F.-.9 % W.W.% | D.q o W.+ + + + + W.W.W.W.W.W.W.W.W.W.W.W.W.W.W.W.W.W.W.W.W.W.W.W.",
"W.W.W.W.W.W.W.W.W.W.W.W.W.W.W.W.W.W.W.W.W.W.D J 7 = W.W.W.+ Y ` ;   W.W.W.W.+ + + W.W.W.W.W.W.W.W.W.W.W.W.W.W.W.W.W.W.W.W.W.W.W.",
"W.W.W.W.W.W.W.W.W.W.W.W.W.W.W.W.W.W.W.W.W.W.W.O O W.W.W.W.+ 5 0 * W.W.W.W.W.W.+ + + W.W.W.W.W.W.W.W.W.W.W.W.W.W.W.W.W.W.W.W.W.W.",
"W.W.W.W.W.W.W.W.W.W.W.W.W.W.W.W.W.W.W.W.W.W.W.W.W.W.W.W.W.W.* * W.W.W.W.W.W.W.W.+ + + W.W.W.W.W.W.W.W.W.W.W.W.W.W.W.W.W.W.W.W.W.",
"W.W.W.W.W.W.W.W.W.W.W.W.W.W.W.W.W.W.W.W.W.W.W.W.W.W.W.W.W.W.W.W.W.W.W.W.W.W.W.W.W.+ + W.W.W.W.W.W.W.W.W.W.W.W.W.W.W.W.W.W.W.W.W.",
"W.W.W.W.W.W.W.W.W.W.W.W.W.W.W.W.W.W.W.W.W.W.W.W.W.W.W.W.W.W.W.W.W.W.W.W.W.W.W.W.W.W.+ W.W.W.W.W.W.W.W.W.W.W.W.W.W.W.W.W.W.W.W.W.",
"W.W.W.W.W.W.W.W.W.W.W.W.W.W.W.W.W.W.W.W.W.W.W.W.W.W.W.W.W.W.W.W.W.W.W.W.W.W.W.W.W.W.W.W.W.W.W.W.W.W.W.W.W.W.W.W.W.W.W.W.W.W.W.W.",
"W.W.W.W.W.W.W.W.W.W.W.W.W.W.W.W.W.W.W.W.W.W.W.W.W.W.W.W.W.W.W.W.W.W.W.W.W.W.W.W.W.W.W.W.W.W.W.W.W.W.W.W.W.W.W.W.W.W.W.W.W.W.W.W.",
"W.W.W.W.W.W.W.W.W.W.W.W.W.W.W.W.W.W.W.W.W.W.W.W.W.W.W.W.W.W.W.W.W.W.W.W.W.W.W.W.W.W.W.W.W.W.W.W.W.W.W.W.W.W.W.W.W.W.W.W.W.W.W.W.",
"W.W.W.W.W.W.W.W.W.W.W.W.W.W.W.W.W.W.W.W.W.W.W.W.W.W.W.W.W.W.W.W.W.W.W.W.W.W.W.W.W.W.W.W.W.W.W.W.W.W.W.W.W.W.W.W.W.W.W.W.W.W.W.W.",
"W.W.W.W.W.W.W.W.W.W.W.W.W.W.W.W.W.W.W.W.W.W.W.W.W.W.W.W.W.W.W.W.W.W.W.W.W.W.W.W.W.W.W.W.W.W.W.W.W.W.W.W.W.W.W.W.W.W.W.W.W.W.W.W.",
"W.W.W.W.W.W.W.W.W.W.W.W.W.W.W.W.W.W.W.W.W.W.W.W.W.W.W.W.W.W.W.W.W.W.W.W.W.W.W.W.W.W.W.W.W.W.W.W.W.W.W.W.W.W.W.W.W.W.W.W.W.W.W.W.",
"W.W.W.W.W.W.W.W.W.W.W.W.W.W.W.W.W.W.W.W.W.W.W.W.W.W.W.W.W.W.W.W.W.W.W.W.W.W.W.W.W.W.W.W.W.W.W.W.W.W.W.W.W.W.W.W.W.W.W.W.W.W.W.W.",
"W.W.W.W.W.W.W.W.W.W.W.W.W.W.W.W.W.W.W.W.W.W.W.W.W.W.W.W.W.W.W.W.W.W.W.W.W.W.W.W.W.W.W.W.W.W.W.W.W.W.W.W.W.W.W.W.W.W.W.W.W.W.W.W.",
"W.W.W.W.W.W.W.W.W.W.W.W.W.W.W.W.W.W.W.W.W.W.W.W.W.W.W.W.W.W.W.W.W.W.W.W.W.W.W.W.W.W.W.W.W.W.W.W.W.W.W.W.W.W.W.W.W.W.W.W.W.W.W.W.",
"W.W.W.W.W.W.W.W.W.W.W.W.W.W.W.W.W.W.W.W.W.W.W.W.W.W.W.W.W.W.W.W.W.W.W.W.W.W.W.W.W.W.W.W.W.W.W.W.W.W.W.W.W.W.W.W.W.W.W.W.W.W.W.W.",
"W.W.W.W.W.W.W.W.W.W.W.W.W.W.W.W.W.W.W.W.W.W.W.W.W.W.W.W.W.W.W.W.W.W.W.W.W.W.W.W.W.W.W.W.W.W.W.W.W.W.W.W.W.W.W.W.W.W.W.W.W.W.W.W.",
"W.W.W.W.W.W.W.W.W.W.W.W.W.W.W.W.W.W.W.W.W.W.W.W.W.W.W.W.W.W.W.W.W.W.W.W.W.W.W.W.W.W.W.W.W.W.W.W.W.W.W.W.W.W.W.W.W.W.W.W.W.W.W.W.",
"W.W.W.W.W.W.W.W.W.W.W.W.W.W.W.W.W.W.W.W.W.W.W.W.W.W.W.W.W.W.W.W.W.W.W.W.W.W.W.W.W.W.W.W.W.W.W.W.W.W.W.W.W.W.W.W.W.W.W.W.W.W.W.W."
};
