/* XPM */
static const char *empty[] = {
/* columns rows colors chars-per-pixel */
"64 64 132 2 ",
"   c #4D2D5C",
".  c #502E5F",
"X  c #512F61",
"o  c #543164",
"O  c #593B67",
"+  c #573368",
"@  c #5C356D",
"#  c #5B3B6A",
"$  c #5F3770",
"%  c #603772",
"&  c #623974",
"*  c #663B79",
"=  c #6A3D7D",
"-  c #654D6F",
";  c #664773",
":  c #674D72",
">  c #684E74",
",  c #704D7F",
"<  c #6E547A",
"1  c #70517F",
"2  c #725B7D",
"3  c #6D3F81",
"4  c #6F4083",
"5  c #724186",
"6  c #724D81",
"7  c #75438A",
"8  c #79458F",
"9  c #764989",
"0  c #7A498E",
"q  c #755483",
"w  c #785686",
"e  c #775188",
"r  c #7C558C",
"t  c #7B5A89",
"y  c #7C4792",
"u  c #7E4894",
"i  c #7E5291",
"p  c #804997",
"a  c #844B9B",
"s  c #844C9B",
"d  c #854C9C",
"f  c #854C9D",
"g  c #864D9E",
"h  c #874D9E",
"j  c #874E9F",
"k  c #834B9A",
"l  c #825793",
"z  c #835795",
"x  c #835895",
"c  c #87579B",
"v  c #884EA0",
"b  c #894EA1",
"n  c #894FA1",
"m  c #894FA2",
"M  c #8A4FA2",
"N  c #894FA2",
"B  c #8B50A3",
"V  c #8B50A4",
"C  c #8C50A4",
"Z  c #8C50A5",
"A  c #8C51A5",
"S  c #8D51A6",
"D  c #8E52A7",
"F  c #8D54A4",
"G  c #8D55A5",
"H  c #8C51A5",
"J  c #8F52A8",
"K  c #8F52A8",
"L  c #9052A9",
"P  c #9053AA",
"I  c #9153AA",
"U  c #9153AB",
"Y  c #9055A8",
"T  c #9157A9",
"R  c #9154AB",
"E  c #9254AB",
"W  c #9257AA",
"Q  c #9254AC",
"!  c #9354AC",
"~  c #9354AD",
"^  c #9355AD",
"/  c #9455AE",
"(  c #9556AF",
")  c #9354AD",
"_  c #9358AB",
"`  c #9458AD",
"'  c #9558AD",
"]  c #9559AE",
"[  c #955AAE",
"{  c #9458AC",
"}  c #9555B0",
"|  c #9656B0",
" . c #9656B1",
".. c #9756B1",
"X. c #9757B1",
"o. c #9757B2",
"O. c #9656B1",
"+. c #9857B2",
"@. c #9857B3",
"#. c #9857B3",
"$. c #9658B0",
"%. c #9659B0",
"&. c #9758B1",
"*. c #9859B1",
"=. c #9859B2",
"-. c #9858B3",
";. c #9958B3",
":. c #9958B4",
">. c #9A58B5",
",. c #9A59B5",
"<. c #9B59B6",
"1. c #9B59B7",
"2. c #9C59B7",
"3. c #9C5AB7",
"4. c #9B59B6",
"5. c #9C59B8",
"6. c #9D59B8",
"7. c #9C5AB8",
"8. c #9D5AB8",
"9. c #9D5AB9",
"0. c #9E5AB9",
"q. c #9E5BB9",
"w. c #9E5ABA",
"e. c #9F5ABA",
"r. c #9E5BBA",
"t. c #9F5BBA",
"y. c #9F5ABB",
"u. c #9F5BBB",
"i. c #9D5AB9",
"p. c #A05BBC",
"a. c #A05CBC",
"s. c #A05CBB",
/* pixels */
"<.<.<.<.<.<.<.<.<.<.<.2.E u y y y y y y 9 > : > > > > : e $.u.<.<.<.<.u.b * % * 8 u y y g +.2.<.<.<.<.<.<.<.u.U 3 % & & & & & & ",
"<.<.<.<.<.<.<.<.<.<.<.2.E u y y y y y y 9 > > > > > > : e $.u.<.<.<.<.u.b * % * 8 u y y g +.2.<.<.<.<.<.<.<.u.U 3 % & & & & & & ",
"<.<.<.<.<.<.<.<.<.<.<.2.E u y y y y y y 9 > : > > > > : e $.u.<.<.<.<.u.b * % * 8 y y y g +.2.<.<.<.<.<.<.<.u.U 3 % & & & & & & ",
"<.<.<.<.<.<.<.<.<.<.<.2.U u y y y y y y 9 > : > > > > : e $.u.<.<.<.<.u.b * $ * 7 y y y g +.2.<.<.<.<.<.<.2.u.U 3 $ % % % % % % ",
"<.<.<.<.<.<.<.<.<.<.<.<.( g g a u y y y 7 ; ; ; > > > : e $.u.<.<.<.<.2.J 8 5 8 k g g g F <.<.<.<.<.<.<.+.^ ^ F 8 5 7 7 7 7 7 7 ",
"<.<.<.<.<.<.<.<.<.<.<.<.<.+.<.^ k y y y 7 * & * ; > > : e $.u.<.<.<.<.<.<.X.X.X.+.+.+.+.<.<.<.<.<.<.<.2.^ k y k U X.X.X.X.X.X.X.",
"2.2.2.2.2.<.<.<.<.<.<.<.<.u.u.X.k y u u 7 * % & ; : : - e $.u.<.<.<.<.<.<.u.u.u.2.2.2.2.2.<.<.<.<.<.<.2.U u 8 k +.s.u.u.u.u.u.u.",
"( ( ( ( X.<.<.<.<.<.<.<.<.X.X.U u 8 8 8 5 = * * , q q 1 i $.2.<.<.<.<.<.<.<.<.<.<.<.<.<.<.<.<.<.<.<.<.2.U u y p F U U U ^ <.<.<.",
"k k k k b +.<.<.<.<.<.2.^ s k u 3 * * * 3 7 8 u F E E E ` <.<.<.<.<.<.<.<.<.<.<.<.<.<.<.<.<.<.<.<.<.<.2.U u y 8 5 3 3 = y X.u.<.",
"y y y 8 g +.2.<.<.<.<.2.U u y 7 * % & % = y y k X.u.u.u.2.<.<.<.<.<.<.<.<.<.<.<.<.<.<.<.<.<.<.<.<.<.<.2.U u y 8 * % % $ 5 X.u.<.",
"y y y y g +.2.<.<.<.<.2.U u y 8 * & & & = 8 y k ( 2.<.<.<.<.<.<.<.<.<.<.<.<.<.<.<.<.<.<.<.<.<.<.<.<.<.2.U u y 8 * & & % 7 X.u.<.",
"y y y y g +.2.<.2.2.2.u.^ u y 8 * % & % = 8 y k ( 2.<.<.<.2.u.u.2.2.2.2.2.2.2.2.2.2.2.2.2.u.u.u.<.<.<.2.U u y 8 * & & % 7 +.u.u.",
"7 7 7 5 p X.u.<.^ U E ^ b 8 7 5 3 = = = 5 k g b X.2.<.<.X.V b V U E E E E E E E E E E E J B b F +.2.<.<.( g g u = & & & 4 g V b ",
"* * * * 7 X.u.X.s u u p 8 * * = 7 y 8 8 k ( ;.;.<.<.<.u.F 3 * 3 y p u u u u u u u u u p 8 = * 5 E u.<.<.<.+.<.F 3 % & & * * * * ",
"% % % % 5 X.u.X.k y y y 7 * $ * 8 y y y g ;.u.2.u.u.u.u.V * $ * 8 u y y y y 8 y y y y y 5 & @ 3 ^ u.u.u.u.2.u.U 3 $ % % % % % % ",
"* * * * 7 U +.U u 7 8 8 5 = * 3 u k k k b ;.2.;.^ U U ^ k * @ & 5 7 7 5 8 p k p u y y u 7 * % = b ^ U U ^ <.u.^ 7 = 3 3 = * & & ",
"8 8 8 8 y p k u 3 * * * 3 7 8 u U X.( ( X.<.u.^ 7 = 3 3 * o o o o o o o = U +.E r e e r 6 * & * = 3 3 = y X.u.<.^ U U ^ k * % & ",
"y y y u y y y 7 * % & % = y y k X.u.2.2.2.<.u.U = $ % % @ .             * ( p.` r q w w 6 * & & % % % $ 5 X.u.<.u.u.u.u.V * % & ",
"y y y y y y y 8 * & & & = 8 y k ( 2.<.<.<.<.u.U 3 % & & @ X             * ( u.` r q w w 6 * & & & & & % 7 X.u.<.<.<.<.u.b * % & ",
"y y y y y y y 7 * % % % = 8 y k ( 2.<.<.2.u.u.^ 3 % & * @ .             * ( u.` r q q w , & % % & & & % 7 X.u.u.<.<.<.u.b * $ % ",
"g g g g g g g k 8 5 7 5 8 k g b X.2.<.<.X.V V k * @ @ @ @ # O # & * * * 7 X.u.$.c l z x i 7 7 5 * & & & 4 g B F +.<.<.2.J 8 5 7 ",
"+.+.+.+.+.+.+.+.X.X.X.X.X.+.+.+.<.<.<.u.V 3 * * o . X . # < < q G X.( ( X.<.<.<.;.;.;.;.$.X.+.F 3 % & & * * * 5 U u.<.<.<.X.X.X.",
"2.2.2.2.2.2.2.2.u.u.u.u.2.2.2.2.u.u.u.u.B * % @ X       O < 2 t ` u.u.u.u.<.<.<.u.u.u.u.u.u.u.E 3 $ % % % % $ 3 E u.u.u.u.u.u.u.",
"<.<.<.<.<.<.<.<.<.<.<.<.<.<.<.<.^ U U ^ k & @ @ o o o X # 1 q r ` u.<.<.<.<.<.<.X.( ( ( X.<.u.^ 7 = 3 3 = * % = b ^ U U E ( ( ( ",
"<.<.<.<.<.<.<.<.<.<.<.<.<.<.u.^ 7 = 3 3 * o X o @ % $ $ * 9 0 p ( 2.<.<.<.<.2.X.g p k k b ;.2.<.^ U U E k * % * = 3 3 3 7 p k k ",
"<.<.<.<.<.<.<.<.<.<.<.<.<.<.u.U = $ % % @ .   o % * * & = y y k ( 2.<.<.<.<.2.( p 8 y 8 g +.2.<.u.u.u.u.V * % & % % % % = 8 y y ",
"<.<.<.<.<.<.<.<.<.<.<.<.<.<.u.U 3 % & * @ X   o $ * & & = 8 y k ( 2.<.<.<.<.2.( k y y y g +.2.<.<.<.<.u.b * % & & & & & = y u y ",
"u.u.u.u.u.u.u.u.u.u.u.u.u.2.u.E 3 % & & @ .   o $ * & & = 8 y k ( 2.<.<.<.<.2.( p 8 y y g <.u.2.<.<.<.u.b * $ % & & & & = y u y ",
"B b b b b g a g b b b b F U ( b = % & * $ o o + % & & & 3 k g b X.2.<.<.<.<.2.X.b g g g b U U ^ <.<.<.2.J 8 5 5 * & & & = 8 y y ",
"* * * = & + o + * = * * 4 u k 8 * & & & & % % % & & & % 5 ^ <.+.<.<.<.<.<.<.<.<.;.+.+.<.U k y s X.2.<.<.<.X.+.F 3 % & & = 8 y y ",
"% % % & +     . @ & % % = 8 y 8 * & & & & * * * & & & % 7 X.u.2.2.2.2.2.2.2.2.2.2.2.2.u.U y 8 p X.u.2.2.u.u.u.E 3 $ % % = 8 y y ",
"& & & & @ o X o % * & & = 8 u 8 * & & & & & & & & & & % 7 X.u.<.X.( ( ( ( ( ( X.<.<.<.2.^ s p g E X.( ( X.<.u.^ 7 = 3 3 5 p k k ",
"& & & * & % $ % & & & & = y u 8 * & & & & & & & & & & % 5 X.u.X.g p k k k k k g X.2.<.<.<.X.X.U g k k p b ;.2.<.^ U U U ^ ( ( ( ",
"& & & & & * * * & & & & = y u 8 * & & & & & & & & & & % 7 X.u.( p 8 y y y y 8 p ( 2.<.<.<.2.u.X.k 8 y 8 g +.2.<.u.u.u.u.u.2.2.2.",
"& & & & & & & & & & & & = 8 u 8 * & & & & & & & & & & % 7 X.u.X.k y y y y y y k ( 2.<.<.<.<.2.( k y y y g +.2.<.<.<.<.<.<.<.<.<.",
"% % % % % & & & % % % % = 8 y 8 * & & & & * * * & & & % 7 X.u.X.k y y y y y y k X.u.2.2.2.<.2.( k 8 y y g +.2.<.<.<.<.<.<.<.<.<.",
"7 7 7 7 5 = = 3 5 7 7 5 8 k g u = & & & % @ @ $ & & & % 5 F ( F 8 5 7 7 8 y y p F ^ E U ( <.2.X.b g g g F <.2.<.<.<.<.<.<.<.<.<.",
"X.X.X.X.F y 8 u U X.X.X.X.+.<.F 3 % & * @ o . o % * & & = y k y = * * * 3 y y y u u u u g +.2.<.+.+.+.+.<.<.<.<.<.<.<.<.<.<.<.<.",
"u.u.u.u.( k y s +.u.u.u.u.2.u.U 3 $ % % @ .   o % * * & = 8 u 8 * % % % = 8 y y y y y y g +.2.<.2.2.2.2.2.2.2.2.u.u.u.u.u.2.2.2.",
"( X.X.X.B 8 5 8 J X.( ( X.<.u.^ 7 = 3 3 * o X o @ % % $ * 7 8 7 = * * * 3 y y y y y y y g +.2.<.<.<.<.<.<.X.( ( U U U U E ( ( ( ",
"k k k k 7 @ o $ 8 k k k b ;.2.<.^ U U E k & @ @ o o o o + * * = 7 8 8 8 8 y y y y y y y g +.2.<.<.<.<.2.^ s k u 5 3 3 3 5 p k k ",
"y y y y 3 X   o 5 y y 8 g +.2.<.u.u.u.u.V = & % o       o % & * 8 u u u y y y y y y y y g +.2.<.<.<.<.2.U u y 7 * % % % = 8 y y ",
"y y y u 3 o   o 7 u y y g +.2.<.<.<.<.u.b * % $ o       o % & * 8 u y y y y y y y y y y g +.2.<.<.<.<.2.E u y 8 * & & & = 8 y y ",
"y y y u 3 o   o 7 u y y g <.u.2.<.<.<.u.b * % @ o       o % & * 8 y y y y y y y y y y y g +.2.<.2.2.2.u.^ p y 8 * % & % = 8 y y ",
"y y y u 5 + o @ 3 7 7 7 u J ^ ^ <.<.<.2.J 8 7 4 @ o o o + & & * 8 y y y y y y u k g g g F <.2.<.^ U U ^ b 8 7 5 3 = = = 5 y y y ",
"y y y y 7 * % & * * * * 3 y u s X.2.<.<.<.X.+.F = $ % % & & & * 8 y y y y y y k ^ ;.+.+.<.<.2.X.a u u p 8 * * = 7 y 8 8 y y y y ",
"y y y y 5 * % % % % % % = 8 y k X.u.2.2.u.u.u.^ 3 % % % & & % * 8 y y y y y 8 k X.u.2.2.2.2.u.X.k y y y 7 * % * 8 y y y y y y y ",
"k k k k y 4 3 3 = * * * 3 7 8 y J X.( ( X.<.u.^ 7 = 3 3 = * * = 8 y y y u k k g X.2.<.<.<.X.X.U y 7 8 8 5 = * 3 u k k k k k k k ",
"( ( ( ( ( U E F y 7 8 8 5 = * 3 u k k k b ;.2.<.^ U U U b 8 7 8 y y y y a ^ X.X.<.<.<.2.^ s k u 3 * * * 3 7 8 u U X.( ( ( ( ( ( ",
"2.2.2.2.u.u.u.X.k y y u 7 * % * 7 y y 8 g +.2.<.u.u.u.u.^ p y y y y y y g <.u.2.<.<.<.2.U u y 7 * % & % = y y k X.u.2.2.2.2.2.2.",
"<.<.<.<.<.<.2.( k y y y 7 * % * 8 u y y g +.2.<.<.<.<.2.U u y y y y y y g +.2.<.<.<.<.2.E u y 8 * & & & = 8 y k ( 2.<.<.<.<.<.<.",
"2.2.2.2.<.<.2.( k 8 y y 5 * % * 8 u y y g <.u.2.<.<.<.2.U u 8 y y y y y g +.2.<.2.2.2.u.^ p y 8 * % & % = 8 y k ( 2.<.<.<.2.2.2.",
"U U U U ( <.2.X.b g g g u 3 = 3 5 7 7 7 u J ^ ^ <.<.<.2.( g g g g g g g F ;.2.<.^ U U ^ b 8 7 5 3 = = = 5 k g b X.2.<.<.+.^ U E ",
"u u u u g +.2.<.;.+.+.<.J y 8 7 = * * * 3 y u s X.2.<.<.<.+.+.+.+.+.+.+.;.<.2.X.a u u p 8 * * = 7 y 8 8 k ( <.;.<.<.<.2.^ k u u ",
"y y y 8 g <.u.u.2.2.2.u.E u y 8 * % % % = 8 y k X.u.2.2.2.u.u.u.u.u.u.u.u.2.u.X.k y y y 7 * $ * 8 y y y g <.u.2.u.u.u.u.^ u y y ",
"y y y y k J U ^ <.<.<.2.^ s k y 3 * * * 3 7 8 y U X.( ( ( ( ( ( ( ( ( ( ( ( X.U y 7 8 8 5 = * 3 y k k k b ;.2.<.^ U U U b u y y ",
"y y y y 8 4 = 7 ^ u.<.<.<.X.X.U u 7 8 8 5 = * 3 u k k k k k k k k k k k k k k u 3 * * * 3 7 8 y J X.( ( X.<.u.^ 7 = 3 3 5 y y y ",
"y y y u 7 & @ = U u.<.<.<.2.u.X.k y y u 7 * % * 7 y y y y y y y y y y y y y y 7 * % & % = y y k X.u.2.2.<.<.u.U = $ % % = 8 u y ",
"y y y y 7 * % 3 U u.<.<.<.<.2.( k y y y 7 * % * 8 y y y y y y y y y y y y y y 8 * & & & = 8 y k ( 2.<.<.<.<.u.U 3 % & & = 8 y y ",
"u y y u 7 * @ = U u.2.2.2.2.u.X.k y y u 7 * % * 8 y y y y y y y y y y y y y u 8 * & & & = 8 y k ( 2.<.<.<.<.u.U 3 % & & = 8 u y ",
"7 7 7 7 7 7 5 8 F ^ U U U U ^ F 8 5 7 7 5 = = 3 8 y y y y y y y y y y y 8 7 7 5 * & & & 3 k g b X.2.<.<.<.<.u.U 3 % & & = y y y ",
"* * * * 7 U +.U k u u u u u p y = * * * = 8 y y y y y y y y y y y y y y 7 * * * * & & % 5 ^ <.;.<.<.<.<.<.<.u.U 3 % & & = y y y ",
"& & & % 7 X.s.X.k 8 y y y y y 8 * % & % = y u y y y y y y y y y y y y y 7 * % & & & & % 7 X.u.2.<.<.<.<.<.<.u.U 3 % & & = y y y ",
"& & & % 7 X.u.( k y y y y y u 8 * & & & = 8 y y y y y y y y y y y y y y 7 * & & & & & % 7 X.u.<.<.<.<.<.<.<.u.U 3 % & & = y y y "
};
