/* XPM */
static const char *exit[] = {
/* columns rows colors chars-per-pixel */
"64 64 131 2 ",
"   c #434343",
".  c #444444",
"X  c #464646",
"o  c gray28",
"O  c #484848",
"+  c #494949",
"@  c gray29",
"#  c #4B4B4B",
"$  c #4C4C4C",
"%  c gray30",
"&  c #4E4E4E",
"*  c gray31",
"=  c #505050",
"-  c #515151",
";  c gray32",
":  c #535353",
">  c gray33",
",  c #555555",
"<  c #565656",
"1  c gray34",
"2  c #585858",
"3  c gray35",
"4  c #5A5A5A",
"5  c #5B5B5B",
"6  c gray36",
"7  c #5D5D5D",
"8  c gray37",
"9  c #5F5F5F",
"0  c #606060",
"q  c gray38",
"w  c #626262",
"e  c gray39",
"r  c #646464",
"t  c #656565",
"y  c gray40",
"u  c #676767",
"i  c #686868",
"p  c DimGray",
"a  c #6A6A6A",
"s  c gray42",
"d  c #6C6C6C",
"f  c #6D6D6D",
"g  c gray43",
"h  c #6F6F6F",
"j  c gray44",
"k  c #717171",
"l  c #727172",
"z  c #727272",
"x  c #737273",
"c  c gray45",
"v  c #747374",
"b  c #747474",
"n  c #757475",
"m  c gray46",
"M  c #767576",
"N  c #777577",
"B  c #767676",
"V  c #777677",
"C  c #777777",
"Z  c #787678",
"A  c #787778",
"S  c #797779",
"D  c gray47",
"F  c #797879",
"G  c #797979",
"H  c #7A797A",
"J  c gray48",
"K  c #7B7A7B",
"L  c #7B7B7B",
"P  c #7C7B7C",
"I  c #7C7C7C",
"U  c #7D7C7D",
"Y  c gray49",
"T  c #7E7D7E",
"R  c #7E7E7E",
"E  c #7F7E7F",
"W  c gray50",
"Q  c #807F80",
"!  c #808080",
"~  c #818081",
"^  c #818181",
"/  c #828182",
"(  c gray51",
")  c #838383",
"_  c #848384",
"`  c #848484",
"'  c #858485",
"]  c gray52",
"[  c #868586",
"{  c #868686",
"}  c #878687",
"|  c gray53",
" . c #878887",
".. c #888888",
"X. c #898889",
"o. c #898989",
"O. c #8A898A",
"+. c gray54",
"@. c #8A8B8A",
"#. c #8B8B8B",
"$. c gray55",
"%. c #8D8D8D",
"&. c #8D8E8D",
"*. c #8E8E8E",
"=. c gray56",
"-. c #8F908F",
";. c #908F90",
":. c #909090",
">. c gray57",
",. c #929292",
"<. c #939393",
"1. c gray58",
"2. c #959595",
"3. c gray59",
"4. c #979797",
"5. c #989898",
"6. c gray60",
"7. c #9A9A9A",
"8. c #9B9B9B",
"9. c gray61",
"0. c #9D9D9D",
"q. c gray62",
"w. c #9F9F9F",
"e. c #A0A0A0",
"r. c gray63",
"t. c #A2A2A2",
"y. c gray64",
"u. c #A4A4A4",
"i. c #A5A5A5",
"p. c gray65",
"a. c gray66",
/* pixels */
"# # $ > 2 2 w p p d k k k k k k d d d p p p p p p p p p p p p p w w w r u u u u u u p p p d d d k k k k k k d d d p w w 6 > > > ",
"# # $ - > > w p p d k k k k k k d d d p p p p p p p p p p p p u w w w w w w w w w u p p p d d d k k k k k k d d d p w w 6 > > > ",
"$ # $ > 6 6 u d d d k k k k k k k k k d d d d d d d d d d d d p u u u u p u u u u p d d d d d k k k k k k k k d d p w w 6 > > > ",
"- - > u k k J ~ ~ ~ ~ ~ ~ ~ ~ ~ ~ ~ ~ ~ ~ ~ ~ ~ ~ ~ ~ ~ ~ ~ ~ ~ ~ ~ ~ ~ ~ ~ Y Y Y Y Y Y Y J J J J J Y Y Y Y J J J k p p u 6 6 6 ",
"> - 2 k Y Y ` #.#.#.#.#.#.#.#.#.#.#.#.#.#.#.#.#.#.*.*.*.*.*.*.*.<.<.<.*.*.*.*.#.#.#.#.#.` ~ ~ ~ ~ ~ ~ ~ ~ ~ ~ ~ ~ J d d p w w w ",
"> - 2 k Y Y ` #.#.#.#.#.#.#.#.#.#.#.#.#.#.#.#.#.#.#.*.*.*.*.*.*.<.<.<.*.*.*.#.#.#.#.` ` ` ~ ~ ~ ~ ~ ~ ~ ~ ~ ~ ~ ~ J d d p w w w ",
"6 2 6 B ~ ~ #.<.<.<.<.<.<.*.*.*.*.*.*.*.#.#.#.#.#.*.*.*.*.*.*.*.*.<.<.*.*.*.*.*.*.#.#.#.` ` ` ` ` ` ` ` ` ` ` ` ` Y J B k u u u ",
"w w u Y #.#.<.7.7.7.7.7.1.<.<.<.*.*.*.*.*.*.*.*.*.*.*.*.*.*.*.*.*.*.<.*.*.*.*.*.*.*.#.#.#.` ` ` ` ` ` #.#.#.#.#.#.` ~ ~ J p p p ",
"w w u Y #.#.<.7.7.7.7.7.4.<.<.<.*.*.*.*.*.*.*.*.*.*.*.*.*.*.*.*.<.<.<.*.*.*.*.*.*.*.#.#.#.#.` ` ` `  .#.#.#.#.#.#.` Y Y J p p p ",
"u u p Y #.` <.7.7.7.7.7.1...` ` ` _ ` ~ ~ ~ ~ ~ ~ ~ ~ ~ ~ ~ ~ ~ ` ` ` ` ~ ~ ~ ~ ~ ~ ~ ~ ~ ~ ~ ~ ~ ~ ~ #.#.#.*.*.*.#.~ ~ J p p p ",
"p p d ~ #.#.<.9.9.9.7.7.;.P S S S S S B B B B B B B k k k k k k B B B B B k B B B B B B J J J J J S J ` *.*.*.<.<.*.` ` Y d p p ",
"p p d ~ #.#.1.9.9.9.7.7.;.J B B B B B B B B k B B k k k k k k k v B B k k k k B B B B B B J J J J B J ` *.*.<.<.<.*.` #.Y d p p ",
"p p d ~ #.#.1.9.9.7.7.7.*.J B J P Y Y P J J J J J J B B B B B B J J J B B B J J J J J J Y Y Y Y J S J ` *.#.*.<.<.*.` ` Y d p p ",
"d p d Y #.#.<.7.7.1.<.<.#.J B J ~ ` ` ` #.#.#.#.#.` Y Y Y Y Y Y Y Y Y Y Y Y ~ ` ` ` ` ` ` ` ` ` Y J Y _ #.#.*.<.<.*.` ` Y d p p ",
"d d d Y #.#.<.7.7.1.<.<.#.J B J ` #.#.#.#.#.#.*.*.` ~ ~ ~ ~ ~ ~ ~ ~ ~ ~ ~ ~ ` #.#.#. .` #.#.#.` Y J Y ~ ` ` *.<.<.*.` ` Y d p p ",
"d d k Y #.#.<.7.7.1.<.<.#.J B J ` #.#.#.#.#.#.` ` ~ Y Y Y Y Y Y Y Y Y Y Y Y ~ ` ` ` ` ` #.#.#.` Y J Y _ ` ` *.<.<.*.#.#.Y p u p ",
"k k k ~ #.#.<.7.7.1.<.<.#.J B J ` #.#.*.*.*.Y B B B B B B B k k B B B S J J Y ~ ~ ` ` ` ` ` ` ` Y J Y ~ ` #.<.1.1.<.#.#.Y p r u ",
"k k k ~ ` #.<.7.7.1.<.<.#.J B J ` #.#.*.*.*.Y k d k k k k k k k k k k B S S Y ~ ~ ~ ` ` ` ` #.` Y J Y ` ` #.<.1.1.<.#.#.Y u w u ",
"k k k ~ ` ` <.7.7.1.<.<.#.J B J ` #.#.*.*.*.Y k k k k k k k k k k k k B B B P Y ~ ~ ` ` ` ` #.` Y J Y ~ ` #.<.1.1.<.#.#.Y u w u ",
"k k k ~ ` #.<.1.1.1.<.<.#.J B J ` #.#.*.*.*.Y k k k k k k k k k k k k k k k B J J ~ ` ..` ` #.` J B J ~ ` #.<.1.1.<.*.*.Y u w w ",
"k k k ~ ` ` *.1.1.<.<.<.#.J B J ` #.#.*.*.*.Y k k k k k k k k k k k k k k k B S S Y ` #.` ` #.` J B B ~ ` ` <.1.1.<.*.*.~ u w w ",
"k k k ~ ` ` <.1.1.1.<.<.#.J B J ` #.#.*.*.*.Y k k k k k k k k k k k k k k k B S S Y ` ` ` ` #.` J B B ~ ` ` *.1.1.<.*.*.~ u w w ",
"k k B ~ #.#.<.7.7.1.<.<.#.J B P ..*.*.*.*.*.Y k k k k k k B B B k k k k k k k B B J Y Y ~ ` #.` J B B ~ ` ` *.<.<.<.*.*.~ u w w ",
"B B B ` #.#.<.7.7.1.<.<.#.J B P #.*.*.*.*.*.Y k k k k k k B S B k k k k k k k k k B S S Y ` #.` J B B ~ ` ` *.<.<.*.*.*.~ u w u ",
"B B B ~ #.#.<.7.7.1.<.<.#.J B P #.*.*.*.*.*.Y k k k k k k B S B k k k k k k k k k B S S Y ` #.` J k B ~ ` ` *.<.<.*.*.*.~ p w u ",
"B B B ` $.*.1.7.7.1.1.1.*.Y J Y #.*.*.*.*.*.Y k k k k k k B S S B B B k k k k k k B S S P ~ ` ~ J B J ~  .` *.<.*.*.*.*.~ p u u ",
"B B B ` *.*.1.7.7.7.1.1.*.~ Y ~ *.<.<.*.*.*.Y k k k k k k S S J J J J k d k k k k B S S J ~ ~ Y Y J Y ~ #.` #.*.*.#.#.#.~ d p p ",
"B B B ` *.*.1.7.7.7.1.1.*.~ Y ~ *.<.<.*.*.*.Y k k k k k k S S J J Y J k k k k k k B S S J Y ~ Y Y J Y ~ #.` #.*.*.#.#.#.~ d p p ",
"B k B ` *.*.1.7.7.7.1.7.<.~ Y ~ *.<.<.*.*.*.Y k k k k k k B S S J J B k k k k k k v S S J ~ ~ ~ Y J Y ~ #.` #.*.*.*.#.#.~ d p p ",
"k k B ~ #.#.1.9.9.7.7.7.<.~ Y ~ *.<.<.*.*.*.Y k k k k k k S S B k k k k k k k k k v S B Y ` ` ` Y J Y ~ ` ` #.*.*.*.#.#.~ k d d ",
"k k k ~ #.#.1.9.9.9.7.7.<.~ Y ~ *.<.<.*.*.*.Y k k k k k v S S B k k k k k k k k k k B B Y ` #.` Y J Y ~ ` ` #.*.*.*.#.#.~ k d d ",
"k k k ~ #.#.1.9.9.7.7.7.<.~ Y ~ *.<.<.*.*.*.Y k k k k k k B B B k k k k k k k k k B J J Y ` #.` Y J Y ` ` ` #.*.*.*.#.#.~ k d d ",
"d d k ~ #.#.1.9.9.7.1.7.<.~ Y ~ *.<.<.*.*.*.Y k k k k k k k k k k k k k k k B B B Y ` ` ` ` ..` ~ Y Y ` ` ` #.#.#.#.#.#.~ B k k ",
"d d d ~ #.#.1.9.9.7.1.1.*.~ Y ~ *.<.<.*.*.*.Y k k k k k k k k k k k k k k k B S S Y ` ..` ` ` ` ~ Y ~ `  .` #.#.#.#.#.#.` B B B ",
"d d k ~ #.#.1.9.9.7.1.1.*.~ Y ~ *.<.<.*.*.*.Y k k k k k k k k k k k k k k k B J J Q ` #.#.#.#.` ~ Y ~ ` #. .#.#.#.#.#.#.` B B B ",
"d d k ~ #.#.1.9.9.7.1.1.*.~ Y ~ #.*.*.*.*.*.Y k k k k k k k k k k k k B B B Y ` ` #.#.#.#.#.#.` ~ Y ~ `  .` #.#.#.#.#.#.~ B B B ",
"d d k ~ #.#.1.9.9.7.1.1.*.~ Y ~ #.*.*.*.*.*.Y k k k k k k k k k k k k B S S _ *.*.*.*.*.*.#.#.#.~ Y ~ ` ` ` #.#.#.#.` ` ~ B B B ",
"d d k ~ #.#.1.9.9.7.1.1.-.~ Y ~ #.*.*.*.*.*.Y k k k k k k k k k k k k B S J ` *.*.*.*.*.*.#.#.#.~ Y ~ ` ` ` #.#.#.#.` ` ~ B B B ",
"d d k ~ #.#.1.9.9.7.1.1.*.~ Y ~ #.*.*.*.*.*.Y k k k k k k B B B J J J ~ _ ` *.<.<.<.*.*.*.#.*.#.~ Y ~ ` ` ` #.*.#.#.#.#.~ B k k ",
"d d k ~ #.#.1.9.9.7.1.1.*.~ Y ~ #.*.*.*.*.*.Y k k k k k k S S J Y ~ ~ #.*.*.<.1.1.<.<.<.<.*.*.#.~ Y ~ ` ` ` #.*.*.#.#.#.~ k k k ",
"d d k ~ #.#.1.9.9.7.1.1.<.~ Y ~ #.*.*.*.*.*.Y k k k k k B J J J Y ~ ~ #.*.*.<.<.1.1.<.<.<.*.*.#.~ Y ~ ` ` ` #.*.*.*.#.#.~ B k k ",
"p p d ~ #.#.1.9.9.7.1.1.<.~ Y ~ #.*.*.*.*.*.Y k k k k k v J J J ~ ` ` *.<.<.<.1.1.1.<.<.<.*.*.#.~ Y Y ` ` ` *.*.*.*.$.*.~ k d d ",
"p p d ~ #.#.1.9.9.7.1.1.*.~ Y ~ #.*.*.*.*.*.Y k k k k k k B S P ` #.#.<.1.1.7.7.7.7.1.1.1.<.<.*.Y J Y `  . .*.<.<.*.*.*.~ d p p ",
"p p d ~ #.#.1.9.9.7.1.1.*.~ Y ~ #.*.*.*.*.*.Y k k k k k k B S P ` #.#.<.1.1.7.7.7.7.1.1.1.<.<.*.Y J Y ` #.#.*.<.<.*.*.*.~ d p p ",
"p p d ~ *.*.1.9.9.7.1.1.*.~ Y ~ #.*.*.*.*.#.Y k k k k k k S S P ` #.*.<.1.1.7.7.7.7.1.1.1.<.<.*.Y J J ~ ` #.*.1.1.<.<.<.` p u u ",
"p p d ~ *.*.1.9.9.7.1.1.*.Y J Y #.*.*.#.#.#.Y k k k k k k S S P #.*.*.<.1.1.7.7.7.7.1.1.1.<.<.*.J B B ~ ` #.<.7.7.1.1.1.` u w w ",
"p p d ~ *.*.1.9.9.7.1.1.*.Y J Y #.*.*.#.#.#.J k k k k k k B B P #.*.*.1.1.1.7.7.7.7.1.1.1.<.<.*.J k B ~ ` ` <.7.7.7.1.1.` u w w ",
"p u p ~ *.*.1.9.9.7.1.7.*.Y J Y #.*.*.#.#.#.Y B B B B B B J J Y #.*.*.<.1.1.7.7.7.7.1.1.<.<.<.#.J k B ~ ` #.<.7.7.7.1.7.` u 6 6 ",
"w w u ~ *.*.1.9.9.9.7.7.*.J B J #.*.*.#.#.#.` ~ ~ _ _ ~ ` ` ` ` #.*.*.<.<.<.1.1.1.1.<.<.<.*.*.#.J k B ~ ` #.<.9.9.9.9.9.` 6 - > ",
"w w u ~ *.*.1.9.9.9.7.9.*.J k J #.*.*.#.#.#.#.#.#.#.#.#.#.#. .#.*.*.*.<.<.<.1.1.1.1.<.<.<.*.*.#.J B B ~ ` ` 1.9.9.9.9.e.` 2 - - ",
"w w u ~ *.*.1.9.9.9.7.9.*.J k J ` *.#.#.#.#.` ` ` ` ` ` ` ` ` ` #.*.*.*.*.*.<.<.<.<.*.*.*.#.#.` J k B ~  .#.1.9.9.9.9.e.` 2 - - ",
"6 6 w ~ <.<.7.e.e.e.9.e.<.J B B J Y Y Y ~ ~ ~ ~ ~ ~ ~ ~ ~ ~ ~ ~ ~ ~ ~ ~ ~ ~ ~ Y Y Y J J J J J J B k B ~ #.#.1.e.e.e.e.i.#.> $ $ ",
"6 2 w ~ <.<.7.e.e.e.e.e.1.J k B B B B J J J Y Y Y Y Y Y Y Y Y Y Y Y Y Y J J B B B k k d k k k k k k k ~ #.#.7.i.i.i.i.a.#.- # $ ",
"6 2 w ~ <.<.7.e.e.e.e.e.1.J B B B B B J J J Y Y Y Y Y Y ~ ~ ~ Y ~ ~ Y Y J J J B B B k k k k k k k k B ~ ` #.7.i.i.i.i.a.#.> # $ ",
"> > 6 ~ 7.1.9.e.i.e.e.e.7.#.` ` ~ ~ ~ ~ ~ ~ ~ ` ` _ ` ` ` ` ` ` ` ` ` ~ ~ ~ ~ Y Y Y Y Y Y Y Y Y Y Y Y ` ` ` 7.i.i.i.i.a.#.> # $ ",
"- - 2 ` 9.7.e.i.i.e.e.e.9.7.1.1.*.#.#.#.` ` ` ` ` ` ` #.#.#.` ` #.#.` ` ` ` ` ` ` ` ` #.#.` ` ` #.#.` ` ` ` 7.i.i.i.i.a.#.- # # ",
"- - 2 ` 9.7.e.i.i.i.e.e.9.7.1.1.*.#.#.#.` ` ` ` ` ` ` ` ` ` ` ` #.` ` ` ` ` ` ` ` ` ` ` ` ` ` ` ` ` ` ` ` #.7.i.i.i.i.a.#.- # # ",
"$ $ > ` 9.7.9.e.e.e.9.9.9.1.1.1.*.#.#.#.#.#.` ` ` ` ` ` ` ` ` ` ` ` ` #.#.#.#.#.#.#.#.#.#.#.#.#.#.#.#.*.*.*.7.e.e.e.e.i.#.- # # ",
"# # - ` 9.9.9.9.9.9.7.7.7.1.1.1.*.*.*.#.#.#.#.` #.` ~ ~ ~ ~ Y ~ ` ` ` #.#.#.#.#.#.#.#.#.#.#.#.#.*.*.*.<.1.1.7.9.9.9.e.i.` - # # ",
"# # - ` e.e.e.e.e.9.9.9.7.7.7.1.<.*.*.*.*.*.#.#.#.` ~ ~ ~ ~ ~ ~ ` #.#.#.#.#.#.#.*.#.*.*.#.#.#.*.*.*.*.1.7.7.9.9.9.e.e.i.#.- # # ",
"# # $ k ` ~ ` ` ` ` ` ` ` ~ ~ ~ Y Y Y Y Y Y J J Y J B B B B B J J Y Y Y Y Y Y Y Y Y Y Y Y Y Y Y ~ ~ ~ ` ` ` ` ` ` #.#.#.B $ X # ",
"X X X # $ $ - > > > 2 2 2 2 2 2 6 6 6 6 w w w w u u u u u u u u u u u u u u w w w w u u u u u u p p u u u u w 2 2 2 > > - # X X ",
"X X X X   X # # # $ - - - - - - > > > 2 2 2 6 6 w w w w w w w w w w w w w w 6 2 2 6 w w w w w w w w w w w w 2 - - $ # # # X X X ",
"X X X X X X # $ $ - - - - > > > > 2 2 2 6 6 w w w w w w w w w w w w w w w w 6 6 6 6 w w w u u u u u u w w w 2 > > - $ $ # X X X "
};
