/* XPM */
static const char *player[] = {
/* columns rows colors chars-per-pixel */
"64 64 241 2 ",
"   c #000000",
".  c #09080A",
"X  c #0E110D",
"o  c #191916",
"O  c #0F1011",
"+  c #310B07",
"@  c #15280B",
"#  c #1E3A14",
"$  c #183110",
"%  c #28380F",
"&  c #293612",
"*  c #0D0D24",
"=  c #14152A",
"-  c #2D322D",
";  c #1E2131",
":  c #422E00",
">  c #4C3702",
",  c #463100",
"<  c #543D05",
"1  c #61271A",
"2  c #561E13",
"3  c #254513",
"4  c #2A5716",
"5  c #355A1B",
"6  c #314514",
"7  c #34681C",
"8  c #39721E",
"9  c #2E6B1D",
"0  c #394634",
"q  c #3B4738",
"w  c #3F4124",
"e  c #3B7222",
"r  c #5E4509",
"t  c #5C4814",
"y  c #485318",
"u  c #62490C",
"i  c #76580A",
"p  c #644913",
"a  c #6D5517",
"s  c #705410",
"d  c #776319",
"f  c #574E32",
"g  c #785725",
"h  c #6B5431",
"j  c #457922",
"k  c #7C662A",
"l  c #1E1F52",
"z  c #1D1B5F",
"x  c #1D1E4E",
"c  c #282C4A",
"v  c #283155",
"b  c #2C314F",
"n  c #292B79",
"m  c #2B2D6F",
"M  c #453542",
"N  c #424544",
"B  c #445842",
"V  c #6C5348",
"C  c #566750",
"Z  c #6C725A",
"A  c #6C7469",
"S  c #757D73",
"D  c #922812",
"F  c #8C3620",
"G  c #886509",
"H  c #997515",
"J  c #916C10",
"K  c #84552F",
"L  c #856A24",
"P  c #96792A",
"I  c #896534",
"U  c #8D7439",
"Y  c #977B38",
"T  c #986A36",
"R  c #B27C21",
"E  c #BA7D25",
"W  c #AF772F",
"Q  c #A87C1E",
"!  c #D67E31",
"~  c #997843",
"^  c #956E52",
"/  c #A67749",
"(  c #B37251",
")  c #AC7A62",
"_  c #C67F4B",
"`  c #3BA216",
"'  c #3E8323",
"]  c #458825",
"[  c #4C9429",
"{  c #4B9729",
"}  c #529C2B",
"|  c #729A2D",
" . c #48A327",
".. c #54A42D",
"X. c #58A72E",
"o. c #59AB32",
"O. c #5DB433",
"+. c #59B732",
"@. c #76AA34",
"#. c #60BA34",
"$. c #64B333",
"%. c #6BAA31",
"&. c #40A21D",
"*. c #64C236",
"=. c #68CA39",
"-. c #6CD33A",
";. c #73DC3D",
":. c #71CF3A",
">. c #75E23F",
",. c #5DC136",
"<. c #6AA555",
"1. c #748F6C",
"2. c #79A669",
"3. c #5BA441",
"4. c #B68809",
"5. c #B38A1A",
"6. c #979C31",
"7. c #91902E",
"8. c #BB8627",
"9. c #AE8F34",
"0. c #87A233",
"q. c #8FB335",
"w. c #C69719",
"e. c #CD970F",
"r. c #D9A412",
"t. c #E6AB0A",
"y. c #E5AC13",
"u. c #ECB216",
"i. c #F4BA1B",
"p. c #EDB10E",
"a. c #C5862C",
"s. c #CA9E26",
"d. c #D49034",
"f. c #E69C29",
"g. c #E19F30",
"h. c #D1A62E",
"j. c #F7BE23",
"k. c #EAB02A",
"l. c #F9C01C",
"z. c #FBC325",
"x. c #FEC62C",
"c. c #FCC72D",
"v. c #FFC933",
"b. c #FFCC3C",
"n. c #F8C534",
"m. c #FFD03E",
"M. c #9C8C43",
"N. c #A29A46",
"B. c #B78E51",
"V. c #B3916B",
"C. c #86A67B",
"Z. c #92A57A",
"A. c #939E6E",
"S. c #D68857",
"D. c #D08D4D",
"F. c #E29853",
"G. c #C7A648",
"H. c #C7AA56",
"J. c #DAB855",
"K. c #D6B247",
"L. c #E1BD55",
"P. c #CB936A",
"I. c #DC9669",
"U. c #D79C77",
"Y. c #D18F6C",
"T. c #E1976A",
"R. c #E49A6A",
"E. c #E49C76",
"W. c #E48E79",
"Q. c #D0AD6C",
"!. c #E6A67A",
"~. c #F3AB7F",
"^. c #FFCE44",
"/. c #FACB48",
"(. c #FFD14D",
"). c #FFD244",
"_. c #FFD353",
"`. c #FFD55C",
"'. c #FFDB5D",
"]. c #EAC352",
"[. c #FED763",
"{. c #FFD965",
"}. c #FFDA6A",
"|. c #F9D569",
" X c #FFDB73",
".X c #FFDD7C",
"XX c #F3D379",
"oX c #ECCC6F",
"OX c #FFE276",
"+X c #FFE26C",
"@X c #DCC16D",
"#X c #81DA3D",
"$X c #3C3E9E",
"%X c #343685",
"&X c #3C3EAA",
"*X c #443E9E",
"=X c #3E4194",
"-X c #444591",
";X c #4143AA",
":X c #4345B4",
">X c #806288",
",X c #8CA983",
"<X c #93A98B",
"1X c #9AAB95",
"2X c #9EA99A",
"3X c #99A495",
"4X c #A1AA9E",
"5X c #A3B19E",
"6X c #A5ACA3",
"7X c #8C9C87",
"8X c #DAA98D",
"9X c #EAAB84",
"0X c #F1AD85",
"qX c #F4B48C",
"wX c #F8B68C",
"eX c #FDBC95",
"rX c #FBBE9A",
"tX c #F6B996",
"yX c #EBB490",
"uX c #F9BBAF",
"iX c #F099A2",
"pX c #FFDE83",
"aX c #FFDF89",
"sX c #F0D385",
"dX c #FDC19D",
"fX c #FDC29A",
"gX c #FFE08C",
"hX c #FFE584",
"jX c #FFE293",
"kX c #FFE895",
"lX c #FBC3A2",
"zX c #FEC9A5",
"xX c #FECDAD",
"cX c #F8C3A6",
"vX c #FFCDB1",
"bX c #FFD1B2",
"nX c #FFD8B9",
"mX c #FE9DCB",
"MX c #FFA2CF",
"NX c None",
"BX c black",
/* pixels */
"NXNXNXNXNXNXNXNXNXNXNXNXNXNXNXNXNXNXNXNXNXNXNXNXNXNXNXNXNXNXNXNXNXNXNXNXNX> > > > > NXNXNXNXNXNXNXNX> > > NXNXNXNXNXNXNXNXNXNXNX",
"NXNXNXNXNXNXNXNXNXNXNXNXNXNXNXNXNXNXNXNXNXNXNXNXNXNXNXNXNXNXNXNXNXNXNXNXa Y Y P H G NXNXNXNXNXNXNXk Y P G NXNXNXNXNXNXNXNXNXNXNX",
"NXNXNXNXNXNXNXNXNXNXNXNXNXNXNXNXNXNXNXNXNXNXr u u t NXNXNXNXr r r u t r U XX.X`.v.5.u NXNXNXt t r M.XX_.s.s NXNXNXNXNXNXNXNXNXNX",
"NXNXNXNXNXNXNXNXNXNXNXNXNXNXNXNXNXNXNXNXNX< P H.Q.M.> NXNX> G 4.w.h.G.G.J. XOX'.b.y.4.i % > M.Q.G.L. X{./.s.G , NXNX, , NXNXNXNX",
"NXNXNXNXNXNXNXNXNXNXNXNXNXNXNXNXNXNXNXNXNX< 9.{.OXH.L NXNXG 4.p.z.(.}.}.}.{.}.`.b.z.y.H i L H.hXOX}.{.}.`.v.5.i NXa L L d NXNXNX",
"NXNXNXNXNXNXNXNXNXNXNXNXNXNXNXNXNXNXNXNXNX< 5.v.v.(.L.L G k.u.p.z.(.{.}.}.}.}.`.b.c.z.y.h.].|.}.}.{.}.}._.v.z.s.s Y XX|.B.t NXNX",
"NXNXNXNXNXNXNXNXNXNXNXNXNXNXNXNXNXNXNXNXNXNXi 5.k.(.|.G.h.c.z.i.z.^.{.}.}.}.}.{._.b.x.i.n.{.}.[.(._.}.}.{._.b.n.B.Q..X'.h.u NXNX",
"NXNXNXNXNXNXNXNXNXNXNXNXNXNXNXNXNXNXNXNXNXNXr G k.).`.}.`.b.v.x.v._.}.}.{.}.}.}.}._.b.c.b.[.}.`.^.^.`.`.`.`.^.(..XpX{.m.w.u NXNX",
"NXNXNXNXNXNXNXNXNXNXNXNXNXNXNXNXNXNXNX> > < J e.j.v.b.`.}.`.b.v._. XpX X{.}.}.}.}.{.`.b.b.[.}.{.`.(.b.v.v.b.(.[.}.}.{.m.w.u NXNX",
"NXNXNXNXNXNXNXNXNXNXNXNXNXNXNXNXNXNXNXU Y H e.i.b.^.^.`.}.}._._. XaXjXpX X}.}.}. X X{._._.{.}.}.}.`.^.v.x.c.b._.{.}.[.m.w.r NXNX",
"NXNXNXNXNXNXNXNXNXNXNXNXNXNXNXNXNXNXa Q. Xb.c.b.`.}.}.}.}.}.{.}.aXjXjXgX.X{.[.}.pXpX}.[.[.[.{.}.}.}.[.b.x.c.c.b.`.}.{.).s.s NXNX",
"NXNXNXNXNXNXNXNXNXNXNXNXNXNXNXNX> U Q.XX}.`._.`.{. XpX X{.}.{. XgXjXgXpX[.^.b.(.pXpX{.(.b.^._.}.}.}.[.b.x.c.c.x.b.`..X{./.s.G > ",
"NXNXNXNXNXNXNXNXNXNXNXNXNXNXNXNX> 7. X{.`.}.}.}. XpXgX X{.}.}..XgXjXgX}.^.c.z.b..XgX}.b.z.c.^.`.{. X}.^.x.c.z.j.x.`.gXpX{.n.H > ",
"NXNXNXNXNXNXNXNXNXNXNXNXNXNXNXNX> H n.v.^.[.{.}.pXjXgX X{.}..XgXjXjXaX_.x.c.x.^..XjXpX(.c.c.c.b.`..XpX(.c.c.i.u.z.`.aXjX Xn.H > ",
"NXNXNXNXNXNXNXNXNXNXNXNXNXNXNXNXNXi H r.j.^.`. XgX.X`.[.}.}.pXjXjXjXaX[.b.c.x.b.}.gXgX X_.c.x.v.^.}.gX X_.v.j.i.i.n.`.aX.Xn.H > ",
"NXNXNXNXNXNXNXNXNXNXNXNXNXNXNXNXNXr i e.i.x.(. XgX[.v.(.[.}.pXjXjXjXgX.X`.b.c.v._. XjXjX.X^.v.x.x.`.gXjX Xv.c.z.p.u.c.[.}.n.H > ",
"NXNXNXNXNXNXNXNXNXNXNXNXNXNXNX> > G e.u.z.c.(. XgX[.v.v.^.{.pXjXjXjXjXgX.X[.^.c.v.`.jXjXgX.X(.x.x.`.gXjX Xv.x.z.p.t.u.n.b.c.H > ",
"NXNXNXNXNXNXNXNXNXNXNXNXNXNXL P H w.i.z.v.^.[..XgX[.c.i.z.(.}.pXpXgXjXjXpX}._.^.^.`.pXgXjXjX X(.v._.gXgX[.v.x.z.u.t.t.i.x.c.H > ",
"NXNXNXNXNXNXNXNXNXNXNXNXNX< 9.`.b.c.v.v.^.[..XjXjX}.v.u.u.z.(.{.{. XgXjXpX}.{.{.{.{.}.pXjXjXjX.X^.`.gX.X_.v.c.z.u.t.t.j.x.z.H > ",
"NXNXNXNXNXNXNXNXNXNXNXNXNX< 9.+X'._._._.`.}.pXjXjX.X_.u.t.u.c.).).`.OXgXjXpX X}.}.{.}.pXjXjXjXgX.XpXgX.X_.v.c.z.p.t.p.z.z.u.J > ",
"NXNXNXNXNXNXNXNXNXNXNXNXNX< P K.|. X X}.{.`. XgXjXgX}.n.p.t.r.w.w.s.G.H.Q.pXOX}.}.{.}..XaXjXjXjXjXjXgX}.(.v.b.n.w.4.4.k.v.t.G > ",
"NXNXNXNXNXNXNXNXNXNXNXNXNXNX< d J..XaX X_.b.(. XgXjXpX(.i.t.J u u u u t P oX}.|.}.}.}.}. XgXjXjXjXjXaX(.c.v.(.J.d < s G.(.y.G > ",
"NXNXNXNXNXNXNXNXNXNXNXNXNXNXNXt P H.aX[.n.i.c._. XgXaX(.r.J T / / / / / Y P P 9.oX+X}.}.}..XpXjXjXjXaX^.v.(.h.P ~ ~ ~ Y 8.r.G > ",
"NXNXNXNXNXNXNXNXNXNXNXNXNXNXNXNX, ~ pX(.i.t.u.n.`.pXaX`.s.u / qXwXwXwXwXP.g p g G.L.L.|.}.}..XjXjXjXpX_./.J.P g P.9XP.g i r.J > ",
"NXNXNXNXNXNXNXNXNXNXNXNXNXNXNXNX, ~ pX_.i.t.t.i._..XgXgXH.u / wXzXxXzXtX!.U.P.B.g p d K.}.}.pXjXjXpX}.{.K.d T P.9X0XP.g L L.P > ",
"NXNXNXNXNXNXNXNXNXNXNXNXNXNXNXa Y H.`.n.u.f.f.d.9.J.pXkXQ.p / wXxXbXxXlXrXdXwXU.~ I T 9.9.9.@XkXkXhX|.G.Y I B.0X0X0XU./ T 9.L > ",
"NXNXNXNXNXNXNXNXNXNXNXNXNXNX: a Q.[.c.u.f.F.T.D.p P |.hXH.p / wXxXvXxXxXxXxXrXqX9XqX!.I r p B.sXsXXXL.L K P.0XqXqXqX0XT.W u NXNX",
"NXNXNXNXNXNXNXNXNXNXNXNXNXNX: s K.v.u.g.F.yXrXU.p P |.OXH.t / wXxXvXxXxXvXxXxXzXzXrX0XP.B.( U k k k L / P.9XtXzXcXrX0XT._ NXNXNX",
"NXNXNXNXNXNXNXNXNXNXNXNXNXNX: s h.l.y.D.E.xXnXyX~ Y G.G.9.I B.wXxXvXxXxXvXvXbXbXbXzXtXeXtX9X/ g g g I U.fXrXxXbXbXzXqXT.S.NXNXNX",
"NXNXNXNXNXNXNXNXNXNXNXNXNXNX> i k.l.y.d.E.xXbXxXcXV.p r I U.0XwXxXvXxXxXvXvXxXxXcXxXxXxXxXxXyX!.!.!.9XdXxXcXcXxXxXvXcXE.S.NXNXNX",
"NXNXNXNXNXNXNXNXNXNXNXNXNX< P h.n.l.y.D.E.xXbXbXbX8XV./ B.0XrXlXxXvXvXvXbXbXV.V V V.bXbXvXvXdXeXeXrXzXbX8XZ V ^ yXnXxXE.S.NXNXNX",
"NXNXNXNXNXNXNXNXNXNXNXNXNX< 9.L.k.y.u.g.R.tXlXlXxXbXxXrXqXqXdXxXxXxXxXvXcX8Xf     f 8XcXxXxXzXeXeXzXxXtX) O   o V.cXlXE.S.NXNXNX",
"NXNXNXNXNXNXNXNXNXNXNXNXNXNXa a s 5.j.u.g.I.I.!.cXbXvXxXdXqXdXxXdXeXfXxX8XF +     + F 8XxXrXzXzXeXzXcX^ 2 .   . 1 ( wXR.S.NXNXNX",
"NXNXNXNXNXNXNXNXNXNXNXNXNXNXNX: : i 5.k.k.g.d.F.!.rXxXvXxXdXcXxXzXfXeXdX9X/ 1 + + 1 ^ 9XzXdXxXxXzXzXtX) g + + 2 K S.wXR.S.NXNXNX",
"NXNXNXNXNXNXNXNXNXNXNXNXNXNXNXNXNXNXu G./.u.t.r.D.9XxXvXxXxXxXxXxXzXrXeXrXuX( D D ( cXdXdXxXxXxXxXzXrXxXU.F D F E.rXwXR.S.NXNXNX",
"NXNXNXNXNXNXNXNXNXNXNXNXNXNXNXNXNXNXNXd 5.i.4.G _ 9XxXbXvXvXvXxXxXuXmXmXmXMXiXI.U.yXvXxXxXxXvXxXvXxXxXbXcXE.I.W.mXmXmXW.S.NXNXNX",
"NXNXNXNXNXNXNXNXNXNXNXNXNXNXNXNXNXNXNXNXi 5.J p ( !.rXxXbXvXvXxXxXuXMXMXMXMXuXzXxXxXxXvXvXxXxXxXxXxXvXxXxXxXzXcXMXMXmXW.S.NXNXNX",
"NXNXNXNXNXNXNXNXNXNXNXNXNXNXNXNXNXNXNXNXNXr NXNXNXNXI.tXxXxXxXxXxXvXvXvXvXvXvXxXfXzXxXvXxXxXxXxXxXxXxXvXxXfXzXxXvXvXcXE.S.NXNXNX",
"NXNXNXNXNXNXNXNXNXNXNXNXNXNXNXNXNXNXNXNXNXNXNXNXNXNXh P.0X9XrXbXbXbXbXbXbXbXbXvXzXxXbXbXbXbXbXbXbXbXbXbXxXzXxXxX0X!.!.T.NXNXNXNX",
"NXNXNXNXNXNXNXNXNXNXNXNXNXNXNXNXNXNXNXNXNXNXNXNXNX$ 6 U D.D.!.lXlXlXlXlXdXlXlXlXlXlXlXlXlXlXlXlXlXlXdXlXlXlXlXtXI.S.S.NXNXNXNXNX",
"NXNXNXNXNXNXNXNXNXNXNXNXNXNXNXNXNXNXNXNXNXNXNXNX@ 5 } %.@.@.B.T.T.T.T.T.T.T.T.T.T.I.T.T.T.T.T.T.T.T.T.T.T.T.T.T.NXNXNXNXNXNXNXNX",
"NXNXNXNXNXNXNXNXNXNXNXNXNXNXNXNXNXNXNXNXNXNXNX# 5 ] O.+.+.O.0.N.N.N.N.N.N.N.U I W d.a.! ! ! T I M.N.N.N.M.U I K NXNXNXNXNXNXNXNX",
"NXNXNXNXNXNXNXNXNXNXNXNXNXNXNXNXNXNXNXNXNXNX@ 3 { O.O.O.O.O.o.X.O.$.$.$.#.$.7 6 L R E E a.E t # ] X.X.$.} 7 # @ NXNXNXNXNXNXNXNX",
"NXNXNXNXNXNXNXNXNXNXNXNXNXNXNXNXNXNXNXNXNX@ @ # } #.O.=.-.#.X.....o.O.O.O.+. .j y a R f.f.f.a $ ] ....O.{ 4 $ @ NXNXNXNXNXNXNXNX",
"NXNXNXNXNXNXNXNXNXNXNXNXNXNXNXNXNXNXNXNXNX@ # 7 ..O.#.;.-...} ....| 0.$.%.0.@.} # t 8.f.f.8.d 7 [ X.o.O.X.] 4 $ NXNXNXNXNXNXNXNX",
"NXNXNXNXNXNXNXNXNXNXNXNXNXNXNXNXNXNXNXNXNX@ 8 o.O.O.#.;.*.8 ] ....7.! 0.0.! 6.} 3 t 8.f.R 6 e o...o.O.O.*.-.[ 3 $ @ NXNXNXNXNXNX",
"NXNXNXNXNXNXNXNXNXNXNXNXNXNXNXNXNXNXNXNX@ @ e #.O.O.O.;.#.7 j ....| 9.8.8.9.@.O.} j a a.Q % 8 o...o.O.O.=.>.} 4 4 3 @ NXNXNXNXNX",
"NXNXNXNXNXNXNXNXNXNXNXNXNXNXNXNXNXNXNX@ $ 3 ] O.O.#.*.;.O.7 j ......X.8.8.$.O.*.>.[ % R R % 7 ....o.O.O.=.>.{ 5 8 4 @ NXNXNXNXNX",
"NXNXNXNXNXNXNXNXNXNXNXNXNXNXNXNXNXNXNX@ 3 [ o.O.O.=.;.*.[ 7 ] ........%.@.O.O.*.>.[ % R R % 7 ....o.O.O.*.;.{ 5 8 4 @ NXNXNXNXNX",
"NXNXNXNXNXNXNXNXNXNXNXNXNXNXNXNXNXNXNXX 4 O.=.-.-.-.*.] 7 e [ ....| 7.%.%.6.0.*.>.[ % R R % 9 %.7.0.$.6.q.;.{ 4 4 y h NXNXNXNXNX",
"NXNXNXNXNXNXX X X X X X X X NXNXNXNXNX& 5 } *.-.-.#.[ 5 5 [ ......7.! 6.6.! 6.*.>.[ & R R % 9 | ! 9.@.a.h.#X{ 3 & k S.NXNXNXNXNX",
"NXNXNXNX    q Z A A A A A C -     NXNX/ k 4 4 4 4 4 6 k I j ] ....| 7.a.a.6.@.*.>.[ & R R % 7 X.0.9.a.9.q.;.' w ^ U.0XR.NXNXNXNX",
"NXNXNX- - - A 1X4X1XC.1X5X<XC - - o NXS.( h f f f f h ( / 7 ' ......X.9.9.$.,.=.-.' % Q R % 9 o...7.a.q.-.-.7 w U.zXeXR.S.NXNXNX",
"NXNXX C C.7X3X2X4X2...C.4X1X7X1.1.B o T E.yXyX9X9X9X9XT./ 5 ' ........%.$.$.-.-.O.7 & R R & 8 o...} %.:.-.X.4 y U.zXcXE.S.NXNXNX",
"NXNXX A 5X4X2.<.3X2. .C.<X<.C.1X,X1.C ( !.xXbXxXxXzXeXR.Y 6 8 X.X.o.O.O.+.#.*.O.8 y H f.f.Q a 8 ..O.O.*...7 $ - U.xXxXE.S.NXNXNX",
"NXX - S 6X2X<.3.C.<. .2.2.o.2.2X<X,XZ.V.U.tXlXlXlXeX0XY.^ - 7 ] ] [ } } } } [ e # t E d.d.d.a # ] ..{ [ e - * - P.fXtXE.S.NXNXNX",
"  - 1.<X4X2X3XC.3. .&. .3.C.3X2X2X<XC.Z.V.I.T.T.T.R.Y.>X-X=Xb % % 3 3 3 3 3 3 # ; c M M M M c ; # 3 3 # - %Xl - ( R.T.NXNXNXNXNX",
"  q <X4X4X2X,X<. .` ` `  .<.,X4X4X1X<X,XZ.V.V.V.V./ V -X&X:Xn b v v v v v v v v m n n n n n n m v b v b m ;Xz ; ^ F.S.NXNXNXNXNX",
"  f 3X4X4X2X<. . .&.`  . . .2.4X2X2X1X,XC.C.C.C.C.C = n &X;X;X;X;X$X$X$X$X$X$X$X$X$X$X$X$X$X$X$X;X;X;X;X;X;Xz * NXNXNXNXNXNXNXNX",
"  q ,X2X4X2X,XC.C.3. .<.C.C.<X4X4X1X<X,XC.C.C.,X,XC * %X:X:X:X:X:X%Xl l l l l l l l l l l l x m &X:X:X:X:X:Xz * NXNXNXNXNXNXNXNX",
"  0 C.1X2X4X6X6X6XC.3.C.4X2X2X1X1X<X,X,X,X,X,XC.Z q * z n -X-X-Xn l * * * * * * * * * * * * * = m %X-X-X%Xn x * NXNXNXNXNXNXNXNX",
"  0 C.C.,X3X3X3X3X,XC.C.C.C.C.C.C.C.C.C.C.C.C.1.- . NX. = b N - O . NXNXNXNXNXNXNXNXNXNXNXNXNXNX. ; b N - O NXNXNXNXNXNXNXNXNXNX",
"NX- 0 0 0 f N N N q 0 0 0 0 0 0 0 0 0 0 0 0 0 0 o NXNXNXX o o o . NXNXNXNXNXNXNXNXNXNXNXNXNXNXNXNXO o o o NXNXNXNXNXNXNXNXNXNXNX",
"NXNX                                            NXNXNXNXNX      NXNXNXNXNXNXNXNXNXNXNXNXNXNXNXNXNXNX      NXNXNXNXNXNXNXNXNXNXNX"
};
