/* XPM */
static const char *start[] = {
/* columns rows colors chars-per-pixel */
"64 64 208 2 ",
"   c #261C29",
".  c #2B1F2C",
"X  c #251926",
"o  c #3F1C2A",
"O  c #24212E",
"+  c #2C222F",
"@  c #33222F",
"#  c #3A222F",
"$  c #2A2332",
"%  c #3D2430",
"&  c #342935",
"*  c #352734",
"=  c #3D323E",
"-  c #421B29",
";  c #661E2E",
":  c #761F2E",
">  c #42282C",
",  c #54202E",
"<  c #402330",
"1  c #4C2130",
"2  c #552331",
"3  c #5B2432",
"4  c #572832",
"5  c #66232E",
"6  c #68352A",
"7  c #632331",
"8  c #662A32",
"9  c #742331",
"0  c #7D2D34",
"q  c #772733",
"w  c #7C3A32",
"e  c #6D4337",
"r  c #3F3440",
"t  c #413742",
"y  c #443945",
"u  c #473C48",
"i  c #493F4A",
"p  c #533641",
"a  c #6E3743",
"s  c #4C424D",
"d  c #4F4651",
"f  c #504752",
"g  c #534954",
"h  c #584E58",
"j  c #5E545E",
"k  c #634A56",
"l  c #645B65",
"z  c #675E68",
"x  c #7A5B67",
"c  c #6A626B",
"v  c #6E6165",
"b  c #6B6971",
"n  c #736B74",
"m  c #776F78",
"M  c #7C747C",
"N  c #881E2F",
"B  c #AC1C2E",
"V  c #AA1729",
"C  c #B11C2E",
"Z  c #AB1E30",
"A  c #B01F30",
"S  c #812B34",
"D  c #882432",
"F  c #9B2B34",
"G  c #982835",
"H  c #943237",
"J  c #832D30",
"K  c #A32434",
"L  c #AD2334",
"P  c #AD2B3C",
"I  c #B22434",
"U  c #BB2734",
"Y  c #BD2936",
"T  c #B0293A",
"R  c #B52D39",
"E  c #AD3337",
"W  c #B63639",
"Q  c #B5202F",
"!  c #C32B36",
"~  c #CC2A32",
"^  c #D32B31",
"/  c #C5333A",
"(  c #CE3138",
")  c #C33538",
"_  c #D43339",
"`  c #DD3639",
"'  c #DD393B",
"]  c #DA3537",
"[  c #E73435",
"{  c #E83534",
"}  c #E6373B",
"|  c #E43A3B",
" . c #EA3B3B",
".. c #E93A36",
"X. c #F23C3C",
"o. c #864124",
"O. c #864C35",
"+. c #FB6B1D",
"@. c #F7621B",
"#. c #F36918",
"$. c #D7502A",
"%. c #EE492D",
"&. c #F54C2D",
"*. c #F55C25",
"=. c #F4542B",
"-. c #F55728",
";. c #EB4234",
":. c #ED4A32",
">. c #E84435",
",. c #F24B33",
"<. c #EC5930",
"1. c #F66322",
"2. c #F47133",
"3. c #B53746",
"4. c #B73847",
"5. c #BA3544",
"6. c #A93A49",
"7. c #DD3F40",
"8. c #944855",
"9. c #BC4755",
"0. c #BC505F",
"q. c #A64D56",
"w. c #877876",
"e. c #896C75",
"r. c #C94851",
"t. c #E94242",
"y. c #EA4D4C",
"u. c #E0484A",
"i. c #E25355",
"p. c #F75D42",
"a. c #F0605F",
"s. c #EF7E46",
"d. c #C35964",
"f. c #C86A76",
"g. c #CB717B",
"h. c #E46669",
"j. c #EF7F7F",
"k. c #F47069",
"l. c #7F7880",
"z. c #837C84",
"x. c #D17D87",
"c. c #79838A",
"v. c #878088",
"b. c #8C858C",
"n. c #948D94",
"m. c #9B959C",
"M. c #9E989E",
"N. c #979197",
"B. c #9F9AA0",
"V. c #A39EA3",
"C. c #A6A1A6",
"Z. c #ACA7AC",
"A. c #BAB6BA",
"S. c #BDBABE",
"D. c #B8B0B5",
"F. c #B1ACB1",
"G. c #AB848C",
"H. c #D7949C",
"J. c #E8999B",
"K. c #F49597",
"L. c #F88A83",
"P. c #D69CA5",
"I. c #F29EA0",
"U. c #DCA0A7",
"Y. c #DEA2A9",
"T. c #D6AAAC",
"R. c #C1A9AD",
"E. c #E2A6AD",
"W. c #E4A8AF",
"Q. c #EDA7A9",
"!. c #F5ABAB",
"~. c #F7A7A8",
"^. c #E5ADB2",
"/. c #EAB7BB",
"(. c #FAB6B6",
"). c #F7C5B1",
"_. c #BDBEC2",
"`. c #C1BEC2",
"'. c #D0BCC1",
"]. c #E6BCC2",
"[. c #E8BEC4",
"{. c #C4C1C5",
"}. c #C8C5C9",
"|. c #CCC9CC",
" X c #C4C5C8",
".X c #D1CED1",
"XX c #D6D4D6",
"oX c #D6D6D8",
"OX c #D8D6D9",
"+X c #DCDBDD",
"@X c #D4C0C4",
"#X c #EAC1C6",
"$X c #ECC3C8",
"%X c #EDCDC8",
"&X c #F9CBCB",
"*X c #F5D1CC",
"=X c #E0DFE0",
"-X c #E5E4E5",
";X c #E8E7E8",
":X c #EBEAEB",
">X c #F5E5E7",
",X c #F8E9EA",
"<X c #EFEFF0",
"1X c #F3F3F4",
"2X c #FEFEFE",
"3X c #F8F7F8",
"4X c None",
"5X c black",
/* pixels */
"4X4X4X4X4X4X4X4X4X4X4X4X4X4X4X4X4X4X4X4X4X4X4X4X4X4X4X+ + + + + + + + + + 4X4X4X4X4X4X4X4X4X4X4X4X4X4X4X4X4X4X4X4X4X4X4X4X4X4X4X",
"4X4X4X4X4X4X4X4X4X4X4X4X4X4X4X4X4X4X4X4X4X4X4X4X4X4X4Xq 0 0 0 0 0 0 0 0 q 4X4X4X4X4X4X4X4X4X4X4X4X4X4X4X4X4X4X4X4X4X4X4X4X4X4X4X",
"4X4X4X4X4X4X4X4X4X4X4X4X4X4X4X4X4X4X4X4X4X4X4X4X+ + % E  .| | | | | |  .E % + + 4X4X4X4X4X4X4X4X4X4X4X4X4X4X4X4X4X4X4X4X4X4X4X4X",
"4X4X4X4X4X4X4X4X4X4X4X4X4X4X4X4X4X4X4X4X4X4X4X4X+ O % E X. . . . . . .X.E % O + 4X4X4X4X4X4X4X4X4X4X4X4X4X4X4X4X4X4X4X4X4X4X4X4X",
"4X4X4X4X4X4X4X4X4X4X4X4X4X4X4X4X4X4X4X4X4X4X4X4X7 7 9 )  . . . . . . . .) q 7 7 4X4X4X4X4X4X4X4X4X4X4X4X4X4X4X4X4X4X4X4X4X4X4X4X",
"4X4X4X4X4X4X4X4X4X4X4X4X4X4X4X4X4X4X4X4X4X@ + 4 W 7.' |  . . . . . . . .| ' 7.W 4 + @ 4X4X4X4X4X4X4X4X4X4X4X4X4X4X4X4X4X4X4X4X4X",
"4X4X4X4X4X4X4X4X4X4X4X4X4X4X4X4X4X4X4X4X4 H G q.J.(.~.a. . . . . . . . .a.~.(.J.q.G H 4 4X4X4X4X4X4X4X4X4X4X4X4X4X4X4X4X4X4X4X4X",
"4X4X4X4X4X4X4X4X4X4X4X4X4X4X4X4X4X4X4XO 8 ( [ i./.>X%Xh.] ` |  . .| ` ] h.%X>X/.i.[ ( 8 O 4X4X4X4X4X4X4X4X4X4X4X4X4X4X4X4X4X4X4X",
"4X4X4X4X4X4X4X4X4X4X4X4X4X4X4X4X4X4X4X+ 2 L U R 9.0.9.5.U U _  . ._ U U 5.9.0.9.R U L 2 O 4X4X4X4X4X4X4X4X4X4X4X4X4X4X4X4X4X4X4X",
"4X4X4X4X4X4X4X4X4X4X4X4X4X4X4X4X4X4X4XO 1 K I L B V V Z L L (  . .( L L L B V V L I K 1 O 4X4X4X4X4X4X4X4X4X4X4X4X4X4X4X4X4X4X4X",
"4X4X4X4X4X4X4X4X4X4X4X4X4X4X4X4X4X4X4X% 7 K I L K P 3.T L L (  . .( L L L K P 3.L I K 7 % 4X4X4X4X4X4X4X4X4X4X4X4X4X4X4X4X4X4X4X",
"4X4X4X4X4X4X4X4X4X4X4X4X4X4X4X4X4X4X% H R L I G 7 e.^.d.B L (  . .( L L N 7 G.E.9.B L R H % 4X4X4X4X4X4X4X4X4X4X4X4X4X4X4X4X4X4X",
"4X4X4X4X4X4X4X4X4X4X4X4X4X4X4X4X4X4X< W } ! ! K < b D.d.U ! _  . ._ ! ! D * c.R.r.U ! } W < 4X4X4X4X4X4X4X4X4X4X4X4X4X4X4X4X4X4X",
"4X4X4X4X4X4X4X4X4X4X4X4X4X4X4X4X4X4X% E  .|  .) 2 & p W } | }  . .} |  .E < & a /  .| ..E < 4X4X4X4X4X4X4X4X4X4X4X4X4X4X4X4X4X4X",
"4X4X4X4X4X4X4X4X4X4X4X4X4X4X4X4X4X4X% E  . . ._ D ; : )  . .:.-.-.:. . ./ S ; N _  . . .E < 4X4X4X4X4X4X4X4X4X4X4X4X4X4X4X4X4X4X",
"4X4X4X4X4X4X4X4X4X4X4X4X4X4X4X4X4X4X% E  . . .` U L I _  . .-.+.+.-. . ._ I L U `  . . .E < 4X4X4X4X4X4X4X4X4X4X4X4X4X4X4X4X4X4X",
"4X4X4X4X4X4X4X4X4X4X4X4X4X4X4X4X4X4X% E  . . .` U L I _  . .-.+.+.-. . ._ I L U `  . . .E < 4X4X4X4X4X4X4X4X4X4X4X4X4X4X4X4X4X4X",
"4X4X4X4X4X4X4X4X4X4X4X4X4X4X4X4X4X4X% F ` }  .` I 0.x.i.{ { %.-.-.%.{ { i.x.0.I `  .} ` F % 4X4X4X4X4X4X4X4X4X4X4X4X4X4X4X4X4X4X",
"4X4X4X4X4X4X4X4X4X4X4X4X4X4X4X4X4X4X# q Y |  .` U x.*Xj.y.y.y.y.y.y.y.y.j.*Xx.U `  .| Y q # 4X4X4X4X4X4X4X4X4X4X4X4X4X4X4X4X4X4X",
"4X4X4X4X4X4X4X4X4X4X4X4X4X4X4X4X4X4X4X1 S '  .} ` r.g.^.&X&X&X&X&X&X&X&X^.g.r.` }  .' S 1 4X4X4X4X4X4X4X4X4X4X4X4X4X4X4X4X4X4X4X",
"4X4X4X4X4X4X4X4X4X4X4X4X4X4X4X4X4X4X4XO 3 / ` ` } ^ / J.&X&X&X&X&X&X&X&XJ./ ^ } ` ` / 3 O 4X4X4X4X4X4X4X4X4X4X4X4X4X4X4X4X4X4X4X",
"4X4X4X4X4X4X4X4X4X4X4X4X4X4X4X4X4X4X4X+ 2 K I Y ` } | t.y.y.y.y.y.y.y.y.t.|  .` Y I K 2 + 4X4X4X4X4X4X4X4X4X4X4X4X4X4X4X4X4X4X4X",
"4X4X4X4X4X4X4X4X4X4X4X4X4X4X4X4X4X4X4X+ 2 K I U `  . .{ [ [ [ [ [ [ { [ {  . .` U I K 2 + 4X4X4X4X4X4X4X4X4X4X4X4X4X4X4X4X4X4X4X",
"4X4X4X4X4X4X4X4X4X4X4X4X4X4X4X4X4X4X4XO 1 D G K ( }  . . . . . . . . . . . .} _ K G D 1 O 4X4X4X4X4X4X4X4X4X4X4X4X4X4X4X4X4X4X4X",
"4X4X4X4X4X4X4X4X+ + + + + + + + + + + + @ < < 3 K _ }  . . . . . . . . . .} _ K 3 < < @ + + + + + + + . . + + + 4X4X4X4X4X4X4X4X",
"4X4X4X4X4X4X4X> w o.O.w.e.w 0 0 0 0 0 S 0 0 0 S K Y ( _ ( ( ( ( ( ( ( ( _ ( Y K S 0 0 0 0 0 0 0 0 0 w e.w.O.o.w > 4X4X4X4X4X4X4X",
"4X4X4X4X4X4X@ 6 $.@.2.)./.u.] ` ' ' ' ' ' ' ' _ I L I I I I L L I I I I L L L I _ | ' ' ' ' ' ' ' ] u./.).2.@.$.6 @ 4X4X4X4X4X4X",
"4X4X+ + + @ 0 W >.&.,.k.h./ ! ! ! ! ! ! ! ! ! Y I L L L L L L L L L L L L L L I ! ! ! ! ! ! ! ! ! ! / h.k.,.&.>.W 0 @ + + + 4X4X",
"4X4X. .   . F ....} [ { ^ I Z Z Z Z Z Z Z Z Z Z Z Z Z Z Z Z Z Z Z Z Z Z Z Z Z Z Z Z Z Z Z Z Z Z B B C ^ { [ } { ..F .   . . 4X4X",
"4X4X& & & * H t.t.t.t.t.' R T T T T T T T T T T T T T T T T T T T T T T T T T T T T T T T T T T T T R ' >.t.t.t.t.H * & & & 4X4X",
". n V.C.V.C.T.(.(.!.!.!.Q.Y.Y.W.W.E.U.U.U.U.E.W.W.E.U.U.U.U.U.U.U.U.U.U.Y.E.W.W.W.W.E.Y.U.Y.E.E.Y.P.Y.!.(.!.!.!.!.T.Z.C.C.V.n . ",
". z.3X2X2X2X;XoXoX;X2X2X2X2X;XoXoX;X2X2X2X2X;XoXoX;X2X2X2X2X2X2X2X2X2X2X1X+XoXOXoXoX+X1X2X2X;X=X3X2X2X-X-X2X2X2X2X:X+X1X2X3Xz.. ",
". z.3X2X2X3XM.f f M.3X2X2X3XM.f f M.3X2X2X3XM.f f M.3X2X2X2X2X2X2X2X2X2X|.l f h g f l |.2X3Xm.n +X2X<Xz.z.<X2X2X2XF.c |.2X3Xz.. ",
". z.3X2X-XC.b.z.z.b.Z.;X;XZ.b.z.z.b.Z.;X;XZ.b.z.z.b.Z.-X2X2X|.m.m.|.2X2XOXv.u & b z.z.N.{.1Xl.s XX2X;Xl l ;X2X2X2XM.& n {.1Xv.. ",
". z.3X2X{.j C.2X2XM.s {.{.s M.2X2XM.s {.{.s M.2X2XM.s S.2X;Xb.y y b.;X2X2X1XM f XX2X;Xc b ;Xv.f XX2X:Xz z :X3X1X2XC.& & z.;Xb.. ",
". z.3X2X;X{.=X2X2Xm.= S.`.y m.2X2Xm.y `.`.y m.2X2Xm.y S.OXM n.S.S.n.M .X2X3Xz.g XX2X;Xj l ;Xv.f XX2X:Xz c ;XZ.z.-XC.t b.OX1Xv.. ",
". z.3X2X2X2X2X1X|.N.z.OX`.u M.2X2XM.u `.`.u M.2X2XM.u `.`.t m.2X2Xm.= A.2X3Xz.y V.{.D.z.M.:Xz.f XX2X:Xc g Z.b.v.;XV.u A.2X3Xz.. ",
". z.3X2X2X2X2X+Xl z.-X2XS.u M.2X2XM.u `.`.u M.2X2XM.u `.`.u m.2X2XM.s S.2X3Xv.@ t y h A.3X3Xz.f XX2X:Xc + i V.:X2XM.u S.2X3Xz.. ",
". z.3X2X2X2X2X;Xl f m.-XS.u M.2X2XM.u `.`.u M.2X2XM.u `.{.y h z.z.b.Z.-X2X3Xz.t v.V.V.|.2X3Xz.f XX2X:Xc s n.n.C.:XV.u A.2X3Xz.. ",
". z.3X2X1X+X;X2X4X= r `.`.y M.2X2XM.y `.`.y M.2X2XM.y `.{.t = g g M.3X2X2X3Xz.f XX2X2X4X4X3Xz.f XX2X:Xz c ;Xz.f OXC.y A.2X3Xz.. ",
". z.3X2X|.l l 4X2Xn.t `.`.y m.2X2Xm.y `.`.y M.2X2XM.y `.`.y v.OXOX;X2X2X2X3Xz.f XX2X2X2X2X3Xz.f XX2X:Xz c ;Xz.f OXC.y A.2X3Xz.. ",
". z.3X2XOXb.s t n.n.n.+X+Xn.n.M.M.n.n.+X+Xn.n.M.M.n.n.+X+Xn.n.C.C.|.2X2X-XV.g = z.|.2X2X2X2XA.b.m..X;Xl z ;Xz.s XXXXb.n.`.1Xv.. ",
". z.3X2X2X1Xn.r t n.1X2X2X1Xn.y y n.1X2X2X1Xn.y y n.1X2X2X1Xn.y y N.3X2X}.h = t y N.3X2X2X2X2XXXz N.;XM M ;Xn.l OX2X;Xm M ;Xb.. ",
". z.3X2X2X2X+X`.`.+X2X2X2X2X+X`.`.+X2X2X2X2X+X_._.+X2X2X2X2X+X_._.+X2X2X:X}._.{._.+X2X2X2X2X2X1X|.+X3XXXXX3X+X.X1X2X3XXXXX1Xv.. ",
". m A._.S.S.`.{.{.`.S.S.S.S.`.{.{.@X].].].].#X$X$X#X].].].].#X$X$X#X].].[.#X$X$X$X#X].].].].'.`.{.`.S.`.`.S.`.`.S.S.S.`.{.A.m . ",
"4X4Xt t t t t t t t t t t t t t t a 4.4.4.4.4.4.4.4.4.3.3.3.3.3.4.4.3.3.3.4.4.4.4.4.4.4.4.4.a t t t t t t t t t t t t t t t 4X4X",
"4X4X4X4X4X4X4X4X4X4X4X4X4X4XX     9 ~ ^ ~ ~ ~ ~ ~ ~ ~ Q B B B B B B B B Q ~ ~ ~ ~ ~ ~ ~ ^ ~ 9     X 4X4X4X4X4X4X4X4X4X4X4X4X4X4X",
"4X4X4X4X4X4X4X4X4X4X4X4X4X4X+ + + 0 }  . . . . . . .| ! L L L L L L L L ! |  . . . . . . .} 0 + + + 4X4X4X4X4X4X4X4X4X4X4X4X4X4X",
"4X4X4X4X4X4X4X4X4X4X4X4X4X4X+ + + 0 }  . . . . . . .| ! L L L L I L L L ! |  . . . . . . .| 0 + + + 4X4X4X4X4X4X4X4X4X4X4X4X4X4X",
"4X4X4X4X4X4X4X4X4X4X4X4X4X4X+ + + 0 |  . . . . .|  .' F 9 9 9 9 9 9 9 9 F '  .|  . . .|  .| 0 + + + 4X4X4X4X4X4X4X4X4X4X4X4X4X4X",
"4X4X4X4X4X4X4X4X4X4X4X4X4X4X+ + + 0 |  . . . . . . .] 8 + @ @ @ @ @ @ + 8 ]  . . . . . . .| 0 + + + 4X4X4X4X4X4X4X4X4X4X4X4X4X4X",
"4X4X4X4X4X4X4X4X4X4X4X4X4X4X+ + + 0 | =.-. .} ;.-.=.] 8 O + + 4X4X+ + O 8 ] =.-.;.|  .-.=.| 0 + + + 4X4X4X4X4X4X4X4X4X4X4X4X4X4X",
"4X4X4X4X4X4X4X4X4X4X4X4X4X4X+ + + J :.-.-.:.:.:.-.-.>.8 + + 4X4X4X4X+ + 8 >.-.-.,.:.:.-.-.:.J O + + 4X4X4X4X4X4X4X4X4X4X4X4X4X4X",
"4X4X4X4X4X4X4X4X4X4X4X4X4X4X+ + + o.1.,.:.1.+.*.;.=.*.6 + + 4X4X4X4X+ O 6 *.=.;.*.+.1.:.,.1.o.O + + 4X4X4X4X4X4X4X4X4X4X4X4X4X4X",
"4X4X4X4X4X4X4X4X4X4X4X4X4X4X+ + + o.@.%.:.+.+.1.;.&.#.6 O + 4X4X4X4X+ O 6 #.&.;.1.+.+.:.,.@.o.O + + 4X4X4X4X4X4X4X4X4X4X4X4X4X4X",
"4X4X4X4X4X4X4X4X4X4X4X4X4X4X+ + + O.s.,.;.*.@.-...p.s.e . + 4X4X4X4X+ O e s.p.;.-.@.*.;.,.s.O.+ + + 4X4X4X4X4X4X4X4X4X4X4X4X4X4X",
"4X4X4X4X4X4X4X4X4X4X4X4X4X4X+ + + w.*Xk.{ ;.;.....L.%Xv . + 4X4X4X4X+ . v %XL.....;.;.{ k.*Xw.+ + + 4X4X4X4X4X4X4X4X4X4X4X4X4X4X",
"4X4X4X4X4X4X4X4X4X4X4X4X4X4X+ + + x Y.I.K.K.K.K.K.Q.P.k . + 4X4X4X4X+ . k P.Q.K.K.K.K.K.I.Y.x + + + 4X4X4X4X4X4X4X4X4X4X4X4X4X4X",
"4X4X4X4X4X4X4X4X4X4X4X4X4X4X+ + + ; 6.^.,X>X>X,X,XH.F , + + 4X4X4X4X+ + , F H.,X,X>X>X,X^.6.; + + + 4X4X4X4X4X4X4X4X4X4X4X4X4X4X",
"4X4X4X4X4X4X4X4X4X4X4X4X4X4X4X4X4X- 3 q.f.f.f.f.f.8., o 4X4X4X4X4X4X4X4Xo , 8.f.f.f.f.f.q.3 - 4X4X4X4X4X4X4X4X4X4X4X4X4X4X4X4X4X",
"4X4X4X4X4X4X4X4X4X4X4X4X4X4X4X4X4X4X@ N C B B B C : + 4X4X4X4X4X4X4X4X4X4X+ : C B B B C N @ 4X4X4X4X4X4X4X4X4X4X4X4X4X4X4X4X4X4X",
"4X4X4X4X4X4X4X4X4X4X4X4X4X4X4X4X4X4X% D L L L L L 9 @ 4X4X4X4X4X4X4X4X4X4X@ 9 L L L L L D # 4X4X4X4X4X4X4X4X4X4X4X4X4X4X4X4X4X4X",
"4X4X4X4X4X4X4X4X4X4X4X4X4X4X4X4X4X4X4X3 7 7 7 7 7 2 4X4X4X4X4X4X4X4X4X4X4X4X2 7 7 7 7 7 3 4X4X4X4X4X4X4X4X4X4X4X4X4X4X4X4X4X4X4X",
"4X4X4X4X4X4X4X4X4X4X4X4X4X4X4X4X4X4X4X+ + + + + + + 4X4X4X4X4X4X4X4X4X4X4X4X+ + + + + + + 4X4X4X4X4X4X4X4X4X4X4X4X4X4X4X4X4X4X4X"
};
