/* XPM */
static char *_a4f4b7315d9401babaa2a148f154cbc[] = {
/* columns rows colors chars-per-pixel */
"64 64 35 1 ",
"  c #1B1B1B",
". c #1E1E1E",
"X c gray13",
"o c #252525",
"O c gray16",
"+ c #2F2F2F",
"@ c #313131",
"# c #353535",
"$ c gray22",
"% c #3F3F3F",
"& c #434343",
"* c gray27",
"= c #4B4B4B",
"- c #4C4C4C",
"; c #505050",
": c #565656",
"> c gray35",
", c gray36",
"< c #606060",
"1 c #646464",
"2 c #6A6A6A",
"3 c #6C6C6C",
"4 c #727272",
"5 c gray46",
"6 c gray47",
"7 c #7C7C7C",
"8 c gray51",
"9 c #848484",
"0 c #898989",
"q c gray55",
"w c gray57",
"e c gray59",
"r c #989898",
"t c #9F9F9F",
"y c #A2A2A2",
/* pixels */
"&;-$**&;13+3ytee765765543<qqwew@@8qqqqqeq736ee5587%%@@%;28772:1@",
">;:>;;::;;+1<<1<<11<<,,,,>>;>,<0173231,,<<<<>;>31,<1<*<<<<11<11=",
":;;;--;;;:+,243<<,,,>>,>::;;,<<7<322211111<<,>:-:><,,@1<<>><1315",
",;=-==-;;,O,<2<,>>,,,::;;;->,<,56,>,,<1<,,;,>>:;:>>,2@11,>>><>:7",
",;=**--;;,O2<<<>::>:>:,>:;:>>>,39<<>,,>,>>,,:&::::,,4+1>,>>>>:;7",
"2-***&-=:>O;>>,:>,>,,>>:>:>:>:,491,>::>>>>,,,,>-::><3O<<,,>::;>0",
"5--=*=;-=-O9,,,,>,<>,,,,>>>=>>,581>::;:::>,,,<,;;;:>,O1<<,,>>14q",
"5;;---;;;-$47<,,;,<<<1<<<,,,::,554>>::;;>>,,,,,>::::<@2<<<<<2110",
";;>:::>;;-,67<1<<11<<<<<,,,,>>,297,,>>:::>;,,,>>>::>,@8342<11>10",
":;,1,,,:;<5q1<11<<1<<3,2:>>>:,:4771,>>>>::>>>>,,>:>,<X724451121q",
"5-**+#$#**.X5468991>;1566,,,<1=.471<>>::::::::>>>>,,1O:>oO%%-%#@",
",,,;1,4<:2608<<319qeq.9q>:::,67574<,>::::>>>>>,3;,<<,#<23266706,",
"5;:>:>1,::,1<<,,,,<6qX<,>,,,>:2663<<,,,:>>,>,,,4,,<<,$23,,,,<12q",
",;;>>,<<,>::,,,,,><28=2,,>:,,,,8q<<<,,,,,>,,,,-<:,,<<%2<,::::>20",
">;;:,<,,<<,:>>>::,,,1#63,>>:>,389<<,,,>,,>>>>:>,>>,<<*1,>:::>>>7",
":;:>>:<,<<<,,>::>>,,<@1,,>,;,><9e1<,>>>>>>;>::;:>><<<@11>>:>>,,6",
":;:>;,<,11<<1<,>>,,,3#1,,>>:,,,691<,>>>:>>>:::::><<<,@<>>:--;:,7",
"<;::,,,<<111<<<,>,<<2@9>>>>>>,<20<<<,>,,>>:>>:>:><<<<@1>:;;:;:>,",
">;::,;>,,,11<<,->,<<3@0<,>>,,>,34,<<<<<<<,,>>:>><<<1,#2,;;:::::<",
"<::>,>>:>:<<<<<,>,<<3+4<11>:1,>24<,<<<,<,,,<,<<<<<<<,*3>::>,,>>3",
"4<:,,,>>:>,<,,,<>,<<2Oe95117764o-67q61,38q922276<360e#2>::,,,<23",
"<<>,>,>>:>:>,,<,<<<12o9<=-<<,,:;=#O+##$%+O.X<2@%;156q#3,>>:>><<6",
">->>,,>>>>:>>>>>,<<<<%;==*===-====*-;;;-,:.,211<<<141#5,,,>>><<0",
"8;>>>,,>>:::;;;:>>,<,O:*==-**==****===;:>;o12,,,,<<1<$4<<<,,><<q",
"5;>>:5<>>:::;::;>>:>>o&&*=******&**=*&*=;-O<,>>:>>,<<&5<,>>>,,<q",
"7::::*;,>>:;;:::;:>>;o&&*=*********=***=:-@,:>:>>><<<%2<,<<:>><7",
"q>>>><,>>:->::::;:>::O&****&*******==**-;-+:>>>,>,,,<&2,<,,,>,<7",
"e,,,,,:::::::::::::>:O*=*=***&%**=*****-:-+,2>,<,,,<<$3,,>>,,,,7",
"e<,>:,>>>>:::;:;::>,:o=*=*********===--;:-+q<>,<,,>,,$1,,,>,>>,0",
"w3<,,,>,>>>:;;;::><,>X;--=*********==--;-;#8<<1,,,;,1=3,>>>>>>:w",
"661,,,,>:>>::::>>,<,, ----==-*****==--;--:=85311,<113=5,,>:><>,1",
"$<8<;>2<4489712666qr8.2;;,:<<,>,,<<<21::69O*qw59646r9.6635,:,1,@",
"#21,;;:,11.X41;&=37861:,44341:,+*8525345679;1,*=384>2.453221516%",
">-----=->-*,<4<<<<<<<<<,,><1,33w561<1<<12223121<<<398X:<;--=---0",
"3=====*=;-#223211<,,,,,,,,,,><<w81<<<<<:<,,,>>>>,,<31o<,-------2",
"<**&*****-@2,11<<<<,,>>,,,,,,<<071<1<<<=,<,,::>:>,<,,o1;;--;---2",
"<-=&&%&**-%><2<<<,,>,,>,<<,,<1<991111<<<<,,,:,:>>>,,7o5>;-;-=--4",
"<-*&%%&*=-*><1<<,,,,,,,>>,,<<<19e111111,<,>,,<,,>,<17o5>----:;;5",
",=*&&&**=--<<11<,,:>,<,>:>,<<<15q11111,<1<1<,;,,>>1<5O3-----;;:5",
"2=*&***=-==1,,,<>>,,,,,>>>><<<2<721<1>1<<,<,,,>>,<<<4o5-----;:;1",
"1-=***=*;-*5<<,,<,>>>,>>::>,<<3>61<1<<<<<11,,<,<<1<12o5--;--11>1",
"5-,,=--;:;O3,,,,,,,,,,:>>>:>,,18211,<1<,<<<1<<11<1245X<---;>:>:4",
"+&##%+Ooooo,,,<<<,,,>>>,>>>>>,<7X&&%%&*$#@=<224433263.1<233<,2,@",
"8,1,,<<<33o,,,<<,<>,,>>>>,<,>,<7376132232>o7>--;;;;:<1,:-;:<63,+",
"4111312131*<,,<<<>>>,,>,,,,<,<<473112121<>O<>;-=----====--;--;;*",
"1<<<><<<<1*2<<<<,,,,,,,,,<<<<<177<1<<<<,<>o>-;::>;-====-;;;>:;;;",
"7>::::>>,1=5<<<<,,,<,<,,,,,<<<161<<<,1,<>>O;=;;;;:;=*=*-==-=;-;>",
"0>::>:::,<=51,,,<,,,<<,<,,,,,<<88,,,<,>>::+;=-;-;=-======-----::",
"7,;:>>:>,<-3<,,,,>>,,,<<,<,,<<<69>,,>,,,:>+;=-=*=**=**=======-,:",
"e1;*>>,>,<-<<>,>,>>:,,<,*,,<,<<*q1,>>>,>,,$:====&**&%%%%&*====,;",
"w>:=::>,,<=3,>,,,,,>,,>>>->>,<11q<,>>>,2<,%,*=*=**&%%%%%&**=-->:",
"w>:;*;>,<,*3,>,,,<<<<<,,,,,,<<2%6<<,<11211>:**&*&&&&&%%%&*===,><",
"q>:-%:,,<<$11122,<<<<,913222251X5,<1333754+***&&&&&&&&%%%&*==;;:",
"3>:-;>,,<,OO#O@%*>46<%3664444234<&$&--%+XXX**&*>*=&%%%&&%&%*&,=<",
"1>:-;:>,,<+523<1,11431<12353531<1;::><32,1o-&&&:*%*&%%&&&&&&*--3",
"<,>-->>,,<$1111<<<,::;,<,<<<<<,,>>::>>>>>,--=&&*-*&&&&&&&&%&*=-3",
"<,>;;>>>,<=21<,>>>>,,;::>>,,<,<,,>::>>>,,:><**&%%&*&&&&&&&&*==-2",
"5,>>>;>>,<1<<>:->>,>:;::,>,,,,,,>>>>>,<<,:=5==&&&&&&&&&*%&&&==-2",
"0<>>:>;,:,69>,>>>>:>:::::,>,,><,,:>>,,<<,:*>,==**&*&&&&&*&*&*=-3",
"e<>>:>,>:<qe>>>,>,>>>,>>,>><:1,2<,>>,,<,,;&3-=****&&&&&&****&--2",
"86>,:,,>><er>:>>>>>>>:,,<<<,*=2<<<,,,,<<,-%5*****&*&&&%&&&***=-5",
"71,,<,,<<3r0,<<>:>>::::,,<<111<<1<1<<1<<,,#:*******&&&&*&****==5",
"w,<>,2<<22894121,>:>><<<641<<<11241,<<1213@-=*****===*******==1<",
"01<3<126q9411we908662:<,<255246<6008w74797@--&&-;:1,,,:*%%>&*,5-"
};
