/* XPM */
static char *b7082860db1f4e49929a5f73e0be8c2e[] = {
/* columns rows colors chars-per-pixel */
"64 64 256 2 ",
"   c black",
".  c #010101",
"X  c #020202",
"o  c gray1",
"O  c #040404",
"+  c gray2",
"@  c #060606",
"#  c #070707",
"$  c gray3",
"%  c #090909",
"&  c gray4",
"*  c #0B0B0B",
"=  c #0C0C0C",
"-  c gray5",
";  c #0E0E0E",
":  c gray6",
">  c #101010",
",  c #111111",
"<  c gray7",
"1  c #131313",
"2  c gray8",
"3  c #151515",
"4  c #161616",
"5  c gray9",
"6  c #181818",
"7  c #191919",
"8  c gray10",
"9  c #1B1B1B",
"0  c gray11",
"q  c #1D1D1D",
"w  c #1E1E1E",
"e  c gray12",
"r  c #202020",
"t  c gray13",
"y  c #222222",
"u  c #232323",
"i  c gray14",
"p  c #252525",
"a  c gray15",
"s  c #272727",
"d  c #282828",
"f  c gray16",
"g  c #2A2A2A",
"h  c gray17",
"j  c #2C2C2C",
"k  c #2D2D2D",
"l  c gray18",
"z  c #2F2F2F",
"x  c gray19",
"c  c #313131",
"v  c #323232",
"b  c gray20",
"n  c #343434",
"m  c #353535",
"M  c gray21",
"N  c #373737",
"B  c gray22",
"V  c #393939",
"C  c #3A3A3A",
"Z  c gray23",
"A  c #3C3C3C",
"S  c gray24",
"D  c #3E3E3E",
"F  c #3F3F3F",
"G  c gray25",
"H  c #414141",
"J  c gray26",
"K  c #434343",
"L  c #444444",
"P  c gray27",
"I  c #464646",
"U  c gray28",
"Y  c #484848",
"T  c #494949",
"R  c gray29",
"E  c #4B4B4B",
"W  c #4C4C4C",
"Q  c gray30",
"!  c #4E4E4E",
"~  c gray31",
"^  c #505050",
"/  c #515151",
"(  c gray32",
")  c #535353",
"_  c gray33",
"`  c #555555",
"'  c #565656",
"]  c gray34",
"[  c #585858",
"{  c gray35",
"}  c #5A5A5A",
"|  c #5B5B5B",
" . c gray36",
".. c #5D5D5D",
"X. c gray37",
"o. c #5F5F5F",
"O. c #606060",
"+. c gray38",
"@. c #626262",
"#. c gray39",
"$. c #646464",
"%. c #656565",
"&. c gray40",
"*. c #676767",
"=. c #686868",
"-. c DimGray",
";. c #6A6A6A",
":. c gray42",
">. c #6C6C6C",
",. c #6D6D6D",
"<. c gray43",
"1. c #6F6F6F",
"2. c gray44",
"3. c #717171",
"4. c #727272",
"5. c gray45",
"6. c #747474",
"7. c gray46",
"8. c #767676",
"9. c #777777",
"0. c gray47",
"q. c #797979",
"w. c gray48",
"e. c #7B7B7B",
"r. c #7C7C7C",
"t. c gray49",
"y. c #7E7E7E",
"u. c gray50",
"i. c #808080",
"p. c #818181",
"a. c gray51",
"s. c #838383",
"d. c #848484",
"f. c gray52",
"g. c #868686",
"h. c gray53",
"j. c #888888",
"k. c #898989",
"l. c gray54",
"z. c #8B8B8B",
"x. c gray55",
"c. c #8D8D8D",
"v. c #8E8E8E",
"b. c gray56",
"n. c #909090",
"m. c gray57",
"M. c #929292",
"N. c #939393",
"B. c gray58",
"V. c #959595",
"C. c gray59",
"Z. c #979797",
"A. c #989898",
"S. c gray60",
"D. c #9A9A9A",
"F. c #9B9B9B",
"G. c gray61",
"H. c #9D9D9D",
"J. c gray62",
"K. c #9F9F9F",
"L. c #A0A0A0",
"P. c gray63",
"I. c #A2A2A2",
"U. c gray64",
"Y. c #A4A4A4",
"T. c #A5A5A5",
"R. c gray65",
"E. c #A7A7A7",
"W. c gray66",
"Q. c #A9A9A9",
"!. c #AAAAAA",
"~. c gray67",
"^. c #ACACAC",
"/. c gray68",
"(. c #AEAEAE",
"). c #AFAFAF",
"_. c gray69",
"`. c #B1B1B1",
"'. c #B2B2B2",
"]. c gray70",
"[. c #B4B4B4",
"{. c gray71",
"}. c #B6B6B6",
"|. c #B7B7B7",
" X c gray72",
".X c #B9B9B9",
"XX c gray73",
"oX c #BBBBBB",
"OX c #BCBCBC",
"+X c gray74",
"@X c gray",
"#X c gray75",
"$X c #C0C0C0",
"%X c #C1C1C1",
"&X c gray76",
"*X c #C3C3C3",
"=X c gray77",
"-X c #C5C5C5",
";X c #C6C6C6",
":X c gray78",
">X c #C8C8C8",
",X c gray79",
"<X c #CACACA",
"1X c #CBCBCB",
"2X c gray80",
"3X c #CDCDCD",
"4X c #CECECE",
"5X c gray81",
"6X c #D0D0D0",
"7X c gray82",
"8X c #D2D2D2",
"9X c LightGray",
"0X c gray83",
"qX c #D5D5D5",
"wX c gray84",
"eX c #D7D7D7",
"rX c #D8D8D8",
"tX c gray85",
"yX c #DADADA",
"uX c gray86",
"iX c gainsboro",
"pX c #DDDDDD",
"aX c gray87",
"sX c #DFDFDF",
"dX c gray88",
"fX c #E1E1E1",
"gX c #E2E2E2",
"hX c gray89",
"jX c #E4E4E4",
"kX c gray90",
"lX c #E6E6E6",
"zX c #E7E7E7",
"xX c gray91",
"cX c #E9E9E9",
"vX c #EAEAEA",
"bX c gray92",
"nX c #ECECEC",
"mX c gray93",
"MX c #EEEEEE",
"NX c #EFEFEF",
"BX c gray94",
"VX c #F1F1F1",
"CX c gray95",
"ZX c #F3F3F3",
"AX c #F4F4F4",
"SX c gray96",
"DX c #F6F6F6",
"FX c gray97",
"GX c #F8F8F8",
"HX c #F9F9F9",
"JX c gray98",
"KX c #FBFBFB",
"LX c gray99",
"PX c #FDFDFD",
"IX c #FEFEFE",
"UX c white",
/* pixels */
"!.(./.'.[.(.$X}.J.l.n.Q.Y.P.T.T.T.!.Y.J.W / B.P. X!.p.I S.L.!.^././.Q.~./.W.~.^.^.^.~.Q.J._.*X+X!.(.H.D.`.^.!.$X.X^.~.T./._.~./.",
"/./.^././.].oXR.N.k.f.S.i.%.>.3.g.i.{ W 0.l.D.D.l.3.H / j.Z.Y.~./.^.~.~.~.!.~.~.^.^.^.~.H.P.}.(.^./.F.v.W.^.^.).(.!._.r.K._.m.E.",
"Y.Y.W.^.!.(.).W.H.m.z.&.p.u.j.!.OX^.!.~.'.4X`.L.0.@.{ 9.N.|.$X^.^.^././.!.~.~.~.^./.~.!.J.p.+X_.`.'.Z.h.R.(./.(.^.E.).[.{.[.!.P.",
"p.s.P.Q.~.^.!.~.Q.z.L.-XOX^.~.^.I.F.W.K.R.!.T.J.V.c.e.h.(.E.Q.~.^.^.^.^.~.~.~.~.^.^.~.W.L.B.#X/.!.U.N.h.Y.(._.(.^.~.~.^.{.[. X}.",
"]./.|.W.^.Q.!._.(.x.M.@X_.^.^.^.T.D.I.C.J.(.E.T.Y.L.x.l.K.~.W.~.^.^.^.^.^.^.^.^.^.~.!.W.J.b.+X~.W.E.N.g.Y.~.(.(.).E.~.^.~.^.`.}.",
"/.)._.J.).W.E.^.(.S.L.XX(.!.!.~.^.~.^.{.P.^.~.Q.!.R.M.q.1.F.F.R.^.^.~.~.^.^././.~./.Q.Q.J.x.XX~.R.E.N.d.I.!.^.(./.!.~./.E.!.^.(.",
"^.^.~./.{./.(._.).D.K.|.^.^.~.~.~.^.!.I.R.}.~.^./.W.Z.v.y.r.v.K.(.^.!.!.^.^./.^.^.Q.!.Q.F.t.^.Q.T.R.M.f.U.~.(./.!.^./.).R.W.^.E.",
"(.^.~.Q.^.^.(.(._.C.S.[.^.^.~.^.^.^./././._.R././.^.P.m.K.{.OX/.^.^.~.~.~.J.L.W.W.Y.I.R.M.1.H.W.T.T.B.h.I.~.).^.!././.^././.~.E.",
"(.(./.)./._.(.).`.D.L. X~.^.^.^.~.^.^././.|.Y./.).^.L.U.oX*X*X.X|.@X&X$X&X(.(.+X+XXX].[.F.( N.E.T.Y.M.a.L.E.Q.!.!./.^.Q.~.^.^.~.",
"^./.Q.(./._.(.).`.B.J.OX^.^.^.^.!.^.~.^.(.oX^.K.A.V.).(.;X-X>X>X$X-X#X@X:X,X=X&X2X7XqX0X&X*.F.R.T.G.u.s.Y.E.R.E.Q.!.Q.Q.^.~.(.(.",
"~.Q.Q.~.^.~.(.(.).v.v.].`./././.^.^.^.^.^.~./.G.v.n.^.E.I.L.P.Y.U.Q.P.K.U.I.P.U.^.|.|..X{.n.'.E.W.n.:.x.!.!.~.W.Q./.Q.~.(.~.Q.^.",
"Q.!.~.~./.^./.~.(.b.l.`.(.!.^./.~.Q.^./.^.^.^.Q.V./.P.{.I.Y.T.U.Y.U.W.W.R.T.P.U.I.I.I.U.P.j.D.M.m.q.>.D./.~.).(.R.!.!.!./.^.!.^.",
"~.^.^.~.^./.^.!._.c.g.).!.W./.~.!.!.^.^.^.~.^.!.A.k.A.P.l.0.b.b.z.l.2.' 3.1.F.I.Q.K.Z.B.,.J ) t.0.=.<.!.(.!.K.L.R.Q.Q.!./.^././.",
"/.^././.(./.(./.[.l.u.).~.~.~._.)./.^.^.~.~.~.E.m.t.$.e.x.e.j.p.8.6.+.^ *.@.w.,.3.2.;.;.} ! [ %. .+.u._./.`.).W.!.|.(.!.!.~.^.^.",
"/._.)./.(././.).x.Q 9.)./.(.^.).(./.^.^.~.~.~.Q.P.f.~ P.L.J.S.M.b.x.k.l.e.5.6.3.<.<.3.6.w.y.t.5.5.;.=.e.x.{./.W.E._./.!.D.Q.^./.",
").^./.~.).).P.8.4.9.;.Y./././.^.~.^.!.^.^.~.~.^.~.Y.d.N.!.W.T.U.I.L.J.H.C.B.} s.n.b.b.m.M.N.m.m.k.o.X.x.S.E.U.L.(.!.T.E.L._._.^.",
"].~./.{.^.z.^ L ) 2.x. XOX(.^.^.^.^.~.^.^.~.~.(.^.U.h.Y.^.^.~.Q.Q.W.E.R.R.R.| c.K.K.H.J.J.J.H.G.R.L.7.x.W.Y.P.J.[.Q.R.~.E.y. .u.",
"O.X.X.4.^ / =.6.k.n.j.D.'././.^.^.^.^.^.^./.^.(.^.H.4.Z.~./.^.^.^.^.^.^.~.~.r.G.R.T.T.T.T.Y.U.U.W.U.0.q.W.^.t.q.M.S.H.V.u.&.<.9.",
"7. .-.4.y.I..X&XOXS.U..XJ.I.(.^.^.^.~.^././.^.^.~.Y.M.].]./.(./.^.~.^./.^./.i.U.^.~.~.!.Q.E.R.T.Y.G.b.J.R.H.b.9.-.@.6.1.-.8.M.B.",
"c.'.#X@XR./.[.$X*X(.G.m.A.W.W.E.W.Q.E.R.W.!.Q.R.B.L.H.$X!.!.!.!.^.^.^./././.e.XX'.^.^.^.~.!.E.Y.I.C.r.j.M.E.z.i.s.V.(.S.z.W.OXQ.",
"J./.)./.W.~./.^.~.K.>./ ) [ [  .@.>.>.&.} ..X...~ ..$.oX~.^./.^.^.^./././.^.h.E./.^./.^.~.!.R.U.U.B.d.!.+X Xq.m. X!.'.^.| F.C.[.",
"XX~.~.~.!.^././.G.K.N.j.D.Z.!.&X>X1X1X,X,X,X&X@X/.n.V.`.^././././.!.~./././.>.J./.^.^.^.^.Q.E.T.U.M.s.[. X!.<.k. X^.!.~.N.V.U.^.",
"^.^.^.~.~.^./.^./.).G.Y..X).).'./.(.^.!.^./.(.).Y.e.F.).^./././.(.C.H.(././.#.G.(././.^.^.~.W.Y.P.v.6.D.^.Q.>.s.].(.W.K.H.W.!.~.",
"^.^.^.~.~.^./.^./.(.K.L./.)./.^.^.^.W.!.W.~.^./.Q.A.Z.(././.^.^.(./.^./.^.Q.z.J.K.Y.^.!.E.I.G.B.C.r.X.L./.L.5.k.[.T.I.P.N.R.~.~.",
"E.~.~.~.^.~.~.^.^./.b.M.%X}.~.^.^.^.^.!.W.~.^./.P.8.J./././.(./.^././.T.^.).,.2.=.g.'.!.B.u.=./ +.c.H.H.E.y.( N./.I.Y.U.4.L.~.~.",
"S.Q.!.~.^.^.^.^.^.).q.a.}./.^.~.!.~.!.Q.Q.!.^.^.^./.'.^.^./.(./.^./.^.W..X`.5.oX2X=X2X5X;X;X;X&X$X#X@XOX&X|.l.T.).T.T.J.:.K.~.~.",
"^./.^.^.^.^.^.^.^.).q.u.'./.^./.^.~.!.^./.^.!.~.~.L.j.].^././.^.^.^.^.(./.~.q.I.(.^.~.~.!.Q.Q.Q.Q.W.E.!./.Z.#.n._.R.R.P.-.Y.^.~.",
"~.~.^.^.^.^.^.^.~.!.w.s.`./.^.^.~.~.!./.(.~.!.!.^.I.B.}.~.^.~.R.E.!.D.I.!.A..X'.)./.~.^.~.~.~.Q.Q.E.E.E.W.F.j.P.~.E.R.G.3.E./.~.",
"~.~./.^.^.^.^.^.~.T.r.i.W.^.^.!.!.].^.(././.^.^./.T.x.E.@X@X+X].'.oXS.R. X9./.'.^.^./.^.~./.^.!.W.R.R.R.R.!.N.m.J.Y.N.b.;.J.^.^.",
"^.^.~.^.^.^.^.^.^./.A.g.c.I.^.!.~.{.^./.~.!.~.^./.R.p.z.7X,X<X3X2X2X2X<X*Xh.).`.^././.^.Q.(.^.Q.W.E.W.Q.W.!.p.c.P.T.k.=.] H.^.~.",
"^.^.^./.^.^.~.^./._.K.h.h.L./.^.!././.^.~.!.!.^.(.R.a.y./.R.Q.).(._.(.(.!.B.D.^.(././.^.~./.(.^.!.!.!.^.Q.^.1.j.}.).I.} [ P./.^.",
"Y.!.R.m.m.Y.~.Q.A.w.e.f.z.N.B.R.)._.(._.(./.W.J.Q.T.q.6./.!.Q.W.!.W.E.E.R.I.i.U._.~.^./.~.!./._.Q.W.~.~.~._.6.z.$X/.C.N.h.z.m.K.",
"+X&XOX/.).*X>X;X/.s.g.H.m.a.#.*.>.7.r.u.a.e.,.$.w.a.9.7.s.y.4.=.a.Z.I.b.n.s.q.P.`.~.^./.~.^.^.~.Q.Q.!.~./.(.p.Z.-X_.E.[.C.d.P..X",
"<X#X+X*X*X=X*X&X#X%X'.`. X!.J.A.B.F.F.n.c.k.f.F.E.U.S.).U.K.B.j.G.P.'._.J.h.u.E.].).(./././.^.Q.~.~.!.^./.^.f.K..X!.^._.D.T.XX&X",
"_.Q.~.Q.!.^.~.Q./.].^.{. XOX=X$X&X&XXX[.'.].}.$X*XXX/.OX#X@X@X.X X^.{.#X[.c.i.^.[.P.^././.^.^.!.!.^./.(.^./.i.C._.U.D.Z.H.^.!.~.",
"Q.!.~.~.^./.(.^./.^.!.[.v.L.'.~.~.~.Q.~./.!.Q.~.W.!./.E.^.Q.~.!.Q.Q.{.`./.2.c.'.'.U./.^.!.Y./.~.~././._.(.~.t.k.!.T.Z.q.N.^.Q.^.",
"!.W./.^./.Y.m.~.^.^.~.~.J.Q._.~.^.^.~.^.W.Q.~.^.Q.~./.~.~.^.~.!.^./.`.{.'. .H.`.i.T.^._.!.Q.~.^././.^.`.[._.w.6.K.W.D...@.U.^.^.",
"/.W.~.W.~.Q.I.^.^.~.!.!.!.k.6.G.(./.^.Q.W.Q.~.!.~.!.~.Y.!.!.^.~././.^.'.'.` 6.+XK.Q.T.W.W.Q.Y.~././.(./.).s.#.t.t.f.;.9.7.I.~.~.",
"^.!.^.(.^././.^.~.Q.Q.!.E.d.>.:.4.6.7.0.s.V.^.!.^.E.Z.E.j.1.C.x.N.G.J.H.Y.( #./.(.Y.Y.W.~.T.s.x.).)._.h.q.x.p.M.k.2.8.F.y.T./.Q.",
"Q.~./.(./.^./.^.^.^.~.~.W.b.z.u.p.7.{ / _ ! ~ / [ ! J W ~ { ! ( ( ! ! E ! ;.k.w.D.;.a.C.n.u.-.l.k.9.=.) <.j.J.K.C.A.Z.F.Z.!./.^.",
"!.E.^./.).^.^.^./././.Q.I.t.N.U.L.A.x.h.d.e.3.4.7.^ q.D.M.!.D.J.H.D.D.S.J.'.[.(.p.Q.%X[.i.y.L.<X@X+XOX'.!.XX1X.XoX<X|.B.S.Q./.!.",
"^.^.^.~./.^.~./.^./._.l.R 8.U.L.L.Z.H.F.D.K.k.m.!./. X`.{.^.^.!.W._.`._./.{._./.Q.|.XX).g.G.;X>X.X&XOX}.{.|. X[.{.|.^.g.V.W.^.(.",
"^.^.^.^.^.^.~.^./.].).R.u.c.R.R.W.W.E.U.I.I.J.~.;X|.~._.|.!.~.^.^.(././.(.{.).^./././._.`.z.*X%X|.m.N.I.[.}.[.].{.'.Y.p.B.+X)./.",
"!./././.~.~.^.^._.'.].~.s.b.W.!.~._.^.Q.E.W.~.+X/.(.~.Q.^.~.!.^.~.Q.!.^./././.^.^.^.~./.U.e.$X).`.^.Y.A.G.`._./.^.J.Z.E w.I.T.Q.",
"b.L.J.H.K.J.G.C.C.B.1.` t.A.~.)./.)./.Y.Q.!.Q.}./.^.^./.(.^.~./.(.^.^.^././././.^.^.~.~.L.q.L.F.9. .,.F.N.c.l.6.:.@.%.! <.&.;.s.",
"0.+./ / ) [ ~ R w.I.Z.E.$X,X<X3X<X>X}.{.#XQ.K.}.^.^.^./.^./.^.!.~.^./.^.^.^./.^.^.^.^.~.H.7.<.%.O.c.m.r.8.1.6.e.f.d.m.'.~.i.7.q.",
"|.v.n.+X}.}.I.v.`.|.~.Q.).].{.}.).~.~.^./.~.Z..X^.~.^.^.^.^.^.^.^.^.^.^./././.^.^.^.^.^.T.b.K.[.P.R.!.P.J.A.V.N.Z.F.L.R.Q.F.-X_.",
"(.`.x.].E./.D.a.!.^.^.Q.).].{.).^.!.!.^.~./.!. X^.^.~.~.~.^.^.~.~.^.^.^.(./.^.^./.^.^.^.!.Q.].^.!.'.[.E.E.R.R.Y.R.W.!.W.!.^.`./.",
"^./.J.&X|.'.V.p.`.W.~./.)./.(./.!.^.~.^.^.!.N. X^.~.~.~././././././././.^.^.^.^.^.^.~.~.Q.^.@X/./.].}.~.~.!.Q.!.~.~.~.^.^.^.Q.^.",
"(.!.J..X/.W.u.w. X^./.}.[.Q.Q.!.~.~.~.~.^.!.x.oX^.~.^.^././././././././.^.^.^.~.^./.!.I.).c.C.b.S.S.(.!.!.~.^.^.~.!.!.^././.~.^.",
").U.a. X).E.3.1.@X'./.^.(.~.~.R.W.!.!.!.!.Q.m.oX~.^.^./././././././.^.^.)./.^.Q.P.N.(.N.$XO.>.y.n.d.`.`.~.^.^.^.^.^.^.~.^./././.",
"~.L.s.oX_.Q.h.u.+X'.^.W.^.^.~.W.!.!.^.Q.^.!.D..X^.~.^.^.^.^././././.^.Q.[.!.E.Q.F.s.!.F.XXe.E.-X+X'.].[.~.^.^.~.~.~.^.~.~.^./.^.",
"^.U.p.@X[.b.| F.+X`.).^.~.~.!.~.^.!.!.!.^.!.Z.XX~.!././.~.^.^.~.^./.`.A.E.|.!.!.~.T.G.~.L.y.&X|.!.!.!.!.~.~.~.~.^.^.^.~.^.^.^.Q.",
"^.Y.u.OX].v...N.`.).^./.~.~.^.!.Q.W.Q.!.^.Q.m.].W.!.!./.^.~.~./.^.I.t.M.~.XX_.!.!.T.R.!.P.t.OX!.!.!.W.!.~.~.~.~.^.~.~.!.^.^.(.Q.",
"^.Y.s.+X/.b.q.s.9.d.^./.~.W.Q.!.W.Q.W.^.^.Q.v. X X XR.(.~.R.U.M.y.P.n.'.}.!.~.~.^.~.!.!.I.t.+XQ.!.~.~.!.~.^.!.!.^.~.~.~.~.~.).~.",
"/.P.@.XXY.R..XK.i.C.^.~.^.Q.Q.!.E.E.Q.^.~.W.x./.W.`.!.`.Y.u.&.s.E.{..X.X).~.^./.^.^./.^.Y.t.@X!.!.~.^.~.^.^.!.!.^.^.^.~.!./.~.!.",
"!.C.p.oX(.`.}.K.'.+X^.~.~.^.!.W.W.Q.!.~.~.Y.a.5.:.$.d.2.r.5.4.i.V.m.d.m.k.b.N.n.a.7.q.w.o.a.+XQ.!.~.~.~.^.^.~.~.^././.^.^./.~.^.",
"!.R.OXOX'.(.m.7.(.'.^.~.~.^.!.^.!.~.~.~.^.T.p.<.~.W.XXR.E.^.W.~.Z.J.D.I.G.L.T.Y.H.S.B.M.k.H.Z.(.~.~.^.^.~.Q.~.^.^.(.E.~./.~.Q.^.",
"^.E.x.&X(.;.#.-.)./.^.~.!.~.^./.!.W.^.^.~.R.i.>.~.*X1X~./.OX&X].!./.(.)./.(._._.).[.(.~.^./.Q.^.^.~./.^.^.!.~.^.^.(.!.^.^.Q.~.~.",
"^.P.o.y...O.} C.}.^.~.~.~.~.Q.W.W.!.^./.~.E.w.{ z.<XW.j.U./.]./.!.W.^.(./.~.~./.^./.^.~.Y.C.XX!.~.~.!.Q.^.^.^.^.^.^.^./.^.W.~.~.",
"^.L.) z.J.I.-.M.L./.^.^.^.~.!.~.^.^.W.^.^.W.i.X.`.(.H.i.D.Q.~.~.~.~./.V.I.^.~./.^.^.Y.~.R.Q.@X~.!./.^.!.!./.~.^.!.Q.!.~.!.!.Q.~.",
"!.J.| B.`.B.X.k.Z.`./.^.^./.(.(.(.~.!.I.E.I.D.$.&X/.J.r.l.E.~./.W.W.^.W.!././.'.Q.^.Q.)./.E.{.Q.Q.^.E.U.W.T.Q.!.E.Q.!.Q.W.c.{ P.",
"#.-.c.h...;.k.x.l.I._.^.!.W.~.~./.~.^.~.^.R.i.2.OX).F.9.x.Y.W./.^.^./././.^././.^.^.~.[./.J.=.1.;...I ] +.3.u.&.) ) } o.1.g. .8.",
"&X@X>X>X;X;X:X(.c.P.[./.^./.Q.!.^./.!.!._.B.Y 6.OX$X.Xe.t.Q.|.^.^.^./././.~.^.^.^.^.!.(.U.9.&XoXG.).`.w.F.3XwX_.m.h.k.K.|.8X1X=X"
};
