/* XPM */
static char *b87c9f4e42164e9c98eddf5ad1bbf57bprQOb4cgRl621eit[] = {
/* columns rows colors chars-per-pixel */
"64 64 195 2 ",
"   c #030000",
".  c #0D0000",
"X  c #130001",
"o  c #1C0002",
"O  c #160905",
"+  c #190805",
"@  c #15040A",
"#  c #1C050B",
"$  c #1B0A0C",
"%  c #1D0C11",
"&  c #250407",
"*  c #21070F",
"=  c #230A0C",
"-  c #2B0F0F",
";  c #230D13",
":  c #290D14",
">  c #240F1A",
",  c #2E0E1B",
"<  c #310A14",
"1  c #231213",
"2  c #2A1113",
"3  c #251A17",
"4  c #2A1C16",
"5  c #251219",
"6  c #2B141D",
"7  c #2B1C1B",
"8  c #301616",
"9  c #34141D",
"0  c #3A141E",
"q  c #331B1D",
"w  c #39191C",
"e  c #2A2015",
"r  c #2B221C",
"t  c #2B1521",
"y  c #2E1D24",
"u  c #361621",
"i  c #391524",
"p  c #331B23",
"a  c #3C1D24",
"s  c #311F28",
"d  c #2F2421",
"f  c #342124",
"g  c #3C2325",
"h  c #342B24",
"j  c #35242A",
"k  c #3C2429",
"l  c #352D2A",
"z  c #3C2C2B",
"x  c #3D352C",
"c  c #3D382F",
"v  c #372732",
"b  c #3B2531",
"n  c #3D2C32",
"m  c #3E3431",
"M  c #3F3833",
"N  c #411B24",
"B  c #402626",
"V  c #44242D",
"C  c #422B2D",
"Z  c #49282E",
"A  c #43362F",
"S  c #452431",
"D  c #442D34",
"F  c #4A2C31",
"G  c #423632",
"H  c #4A3435",
"J  c #443935",
"K  c #4A3D36",
"L  c #46333C",
"P  c #4A353B",
"I  c #453A3D",
"U  c #4C3C3B",
"Y  c #51353E",
"T  c #533B3C",
"R  c #474236",
"E  c #494435",
"W  c #4D4E33",
"Q  c #46463C",
"!  c #4D453D",
"~  c #4C4C3C",
"^  c #51433D",
"/  c #58433F",
"(  c #514C3A",
")  c #473541",
"_  c #493341",
"`  c #433B42",
"'  c #4C3A43",
"]  c #513541",
"[  c #523B43",
"{  c #5A3C44",
"}  c #50374B",
"|  c #523D4B",
" . c #4E4542",
".. c #4D4B42",
"X. c #524343",
"o. c #594444",
"O. c #534B44",
"+. c #584D46",
"@. c #55444B",
"#. c #5A454D",
"$. c #554B4A",
"%. c #5B4C4B",
"&. c #555145",
"*. c #5B5147",
"=. c #54524B",
"-. c #5B524D",
";. c #555848",
":. c #5A5A4D",
">. c #5D4651",
",. c #564D53",
"<. c #5B4B52",
"1. c #5A4957",
"2. c #5E5453",
"3. c #5D5C54",
"4. c #624149",
"5. c #62514D",
"6. c #605E4B",
"7. c #685B4F",
"8. c #614454",
"9. c #644C53",
"0. c #644E5C",
"q. c #694D5D",
"w. c #635554",
"e. c #685455",
"r. c #625B55",
"t. c #695B57",
"y. c #65565B",
"u. c #6A555B",
"i. c #645C5A",
"p. c #6B5A5D",
"a. c #74595E",
"s. c #5E6256",
"d. c #636159",
"f. c #6C645D",
"g. c #72635F",
"h. c #634F60",
"j. c #645461",
"k. c #6A5663",
"l. c #6C5C63",
"z. c #695C67",
"x. c #665469",
"c. c #725564",
"v. c #735D63",
"b. c #735F68",
"n. c #6E6561",
"m. c #6E6C64",
"M. c #6E626B",
"N. c #6F6A6A",
"B. c #746564",
"V. c #7A6667",
"C. c #716963",
"Z. c #73646B",
"A. c #7B626A",
"S. c #746B6A",
"D. c #736B6F",
"F. c #7A6C6B",
"G. c #6D7165",
"H. c #6E746B",
"J. c #717166",
"K. c #74736B",
"L. c #7A736D",
"P. c #75796D",
"I. c #7D786F",
"U. c #7D6672",
"Y. c #766C71",
"T. c #7F6870",
"R. c #796C71",
"E. c #7D6C71",
"W. c #7F6F75",
"Q. c #7C6D7A",
"!. c #7C7373",
"~. c #7B7576",
"^. c #7D7973",
"/. c #7D7578",
"(. c #7D7A78",
"). c #816D6D",
"_. c #816D74",
"`. c #806E76",
"'. c #896E71",
"]. c #836D79",
"[. c #827176",
"{. c #837574",
"}. c #8A7676",
"|. c #827975",
" X c #8A7976",
".X c #86777A",
"XX c #84757C",
"oX c #8B737E",
"OX c #8D767D",
"+X c #83797B",
"@X c #827A7C",
"#X c #8A7C7A",
"$X c #837780",
"%X c #8D7E82",
"&X c #968686",
/* pixels */
"w.w.w.w.w.w.K E K %.-.-.%.%.).G G G G G G A A A A G G G J 3.B.~.M.Y.S.N.D.D.R.R.R.R.F.F.R.Z.D.O.i.i.i.i.i.i.i.i.i.i.i.i.i.i.@Xw.",
"w.w.w.w.w.! K ! %.%.-.-.-.-.`.G G G G G G G A U A A G G J U r.y.r.r.r.r.r.r.r.r.r.r.r.r.r.r.+XJ i.i.i.i.i.i.i.i.i.i.i.i.i.i.@Xw.",
"w.w.w.w.w.U U U K K *.-.-.-.W.G G G G G G G G ^ A A G G  .X.r.r.r.r.r.r.r.r.r.r.r.r.r.r.r.r.!.J i.i.i.i.i.r.i.6.r.i.i.i.i.i.+Xw.",
"w.w.w.w.y.w.O.U ^ %.%.-.-.-.W.G A G G G G G G G A A G G %.H r.r.r.r.r.r.r.r.r.r.r.r.r.r.r.r.S.$.i.i.i.i.i.r.:.W i.i.i.i.i.i.+X%.",
"w.w.w.w.5.w.U X.^ -.-.-.-.-.E.G A A G G G G G G G G G G <.H r.r.r.r.r.r.r.r.r.r.r.r.r.r.r.r.C.$.i.i.i.-.r.r.W 3.i.i.i.i.i.i..X%.",
"w.w.w.w.o.w.U K O.-.-.-.-.-.`.G r 4 e 4 7 f G G G G G G %.H r.r.r.r.r.r.r.r.r.r.r.r.r.r.r.r.i.2.i.i.&.( i.i.s...o.%.i.i.i.i..Xe.",
"w.w.w.w.w.w.w.w.K +.-.-.-.-.T.H A A h x h x G G A r x G %.G r.r.r.! r.r.r.r.r.r.r.r.r.r.r.r.i.l i.i.d.3.d.d.i.i.G r.i.i.r.r.XXw.",
"e.9.D H [ Y ] u.o.D 9 : , 9 v.z 4 3 j j 4 z z z X.3 d j $.P :.Q ! ! ! r.r.r.r.r.r.r.r.r.r.-.w.f o.o.o.G G X.X.A G G X.X.X.%.{.w.",
"].U.`.oXoXT.F.A.V.v.q v.OXT.w.p.B.`.[.XX' <.1.0.z.j.@.b.l.H $.r. .Q $.r.r.&.-.r.r.r.r.r.r.X.X.n Z.`.[.'.{.p.$ y.a.v.v.v.p.v.A.A.",
"y.y.y.y.y.y.r.r.y.y.B.n.r.r.w.w.r.r.r.i.% ` I I I I J I y.H r.r.r.r.r.r.r.O.~ r.r.r.r.r.r.r.r.D p.y.9.T ] XX$ ~.r.r.r.r.r.r.3.3.",
"y.y.y.y.y.y.y.y.y.y.R.t.r.r.r.r.r.r.r.w.% I %.<.@.<.$.' U H r.r.r.r.-.r.&.&.r.r.r.r.r.r.r.r.r.b p.p.l.w.p.E.j r.r.r.r.r.r.r.r.r.",
"y.y.y.y.y.y.y.y.y.y.R.t.r.r.r.r.r.-.! U %  .@.%.$.X.<.2.U H r.r.X.%.U ^ %.r.r.r.r.r.r.r.r.r.y.S p.p.p.p.p.l.U r.r.r.r.r.r.r.r.r.",
"y.y.y.y.y.y.y.y.y.y.y.w.r.r.r.r.r.r.r.r.% $.<. .[  .' <.Z.K r. .%.^ O. .X.X.r.r.r.r.r.r.r.r.i.b p.y.p.p.p.l.f r.r.r.r.r.r.r.r.r.",
"y.y.y.y.y.y.y.y.y.w.U w.5.o.X.5.w.y.w.w.@ >.] n D ' [ #.u.H K 5.5.t.H T w.5.w.5.5.5.t.F.p.B.v.D b.R.@.y.y.u.@ r.r.r.3.! r.r.r.r.",
"y.y.y.y.y.y.y.y.y.y.y.$ C D F F F g p p ; ; p g f s p t y s k k k k g g p X o = q k G G G L n H y.y.<.@.L j X r.r.3.=.....r.r.r.",
"y.y.y.y.y.y.y.y.y.y.B.G y.y.w.y.p.B.Z.Z.Z.Z.Z.Z.S.W.F.B.B.y.y.y.y.y.y.B.W.[.  P k.X.G G U j.%.H G G J J G ' $ i.r.Q ........r.r.",
"y.y.y.y.y.y.y.y.y.y.Z.G w.r.r.w.r.r.r.r.r.r.r.w.w.w.r.r.r.r.r.r.w.w.w.w.w.w.5 X.U y.G ..G G G G J ' [ J G H G r.r.:.~ ;.r.r.r.r.",
"y.y.y.y.y.y.y.y.y.y.!.G w.w.r.r.r.r.r.r.r.r.r.w.w.w.r.r.r.r.r.r.w.w.w.w.r.w.f w.G G G $.G G G G @.J #.J G J G r.r.r.r.r.3.r.r.r.",
"y.y.y.y.y.y.y.y.y.y.W.G w.r.r.r.w.w.w.w.r.r.r.r.w.w.w.r.w.w.w.w.w.w.r.r.r.%.  w.G G G J G G G G G G G G G J G r.r.r.r.r.r.r.r.r.",
"y.w.y.y.y.y.y.y.y.y.W.G w.r.r.f.w.w.w.w.r.r.r.r.w.w.r.r.w.w.w.w.r.r.r.r.r.y.  r.G G G G ! G G G G G G G r 7 G r.r.r.r.r.r.r.r.r.",
"w.O.w.y.y.y.y.y.y.y.W.H w.r.r.w.w.w.r.r.r.r.w.r.r.r.r.-.X.w.r.%.r.r.r.r.r.W.$ y.G G G G G G G G G G G G G G G r.r.r.r.r.r.r.r.r.",
"r.r.y.y.y.y.y.y.y.y.[.H w.r.r.T U w.r.r.w.r.w.w.r.r.r.{.! w.r.$.w.r.r.r.r.!.1 $.G h G G G G G G G G G G G G r C.3.r.r.r.r.r.r.3.",
"y.y.y.w.y.y.r.r.w.w.!.C ^ w.w.w.w.r.r.i.y.w.r.w.w.F.p.r.w.r.r.r.w.w.w.w.y.E.. $.G d G G G G G G G G G G G G + F.f.r.3.3.r.r.f.=.",
"z C C C C B Z Z C g B 8 G C k C G G C C g g C g f f f a a a f j f f C C H H   $.G U G G G G J G G G G G r r + C A A A A G H G H ",
"{.#X#X X#X X#X.X#X{.{. X{.{.{. X#X X#X).g.y.t.t.r.r.r.p.p.i.i.i.i.i.i.i.B.F.. $.O...G G G G J J G G G r G d O #X X#X#X%X%X&X&X`.",
"m.m.m.m.B.C.|.f.m.m.m.m.m.m.m.m.m.m.C.).X.^.n.3.r.r.r.m.3.r.r.r.r.r.r.r.M.y.  J G J G G G G G G G G G r r d O F.C.C.B.B.C.C.S. X",
"C.C.C.C.C.C.n.C.C.C.C.C.B.i.f.C.C.C.C. Xz r.r.r.r.r.r.r.r.r.X.r.i.i.r.r.r.B.  f G G G G G G G G G G G r m G l B.B.B.B.B.B.B.B.B.",
"C.C.C.C.F.F.n.C.C.C.C.C.f.( r.C.C.C.C. Xz r.r.r.r.r.r.r.r.r.r.i.i.r.r.r.r.m.X p.G G G G G G G G G G G G w.1.U F.B.B.B.B.B.B.B.B.",
"C.C.C.C.C.C.C.C.C.C.C.C.C.n.f.C.C.C.f.).z r.i.r.r.r.r.r.r.r.r.r.r.r.r.r.r.B.@ H G G G G G G G G G G G G J %.%.B.B.B.B.B.B.B.B.B.",
"C.C.C.C.C.B.C.C.C.C.C.C.C.C.C.C.C.C.n.t.X.r.i.r.r.r.r.r.i.r.r.r.r.r.r.r.t.r.; G G G G G G G G G G G G G J @.%.B.B.B.B.B.B.B.B.B.",
"C.C.C.C.L.C.C.C.n.C.C.C.C.C.C.C.C.C.m.g.%.r.r.r.r.r.r.r.3.-.i.i.t.^ r.i.r.r.> G G G G G G G G G G G G G G X.J B.B.B.B.B.B.B.B.B.",
"C.C.C.F.n.C.C.C.L.n.C.C.C.C.C.C.C.C.m.g.B.r.r.r.r.r.! ! ! ~ ! r.^ X.r.i.r.m.5 r.G G G G G G G G G G G G G U H B.B.B.B.B.B.B.B.B.",
"C.C.C.!.C.C.C.C.n.n.C.C.C.C.C.n.n.C.n.{.B.r.r.r.r.3.E E E E ! r.-.^ r.r.r.m.1 2.G G G G G G G G G G G G ! %.j B.B.B.B.B.B.B.B.B.",
"C.C.C.!.L.L.C.C.C.B.C.C.C.C.L.f.n.n.L.{.B.r.r.r.r.&.3.3.~ E R r.i.-.d.&.2.S.1 r.G G G G G G G G G G G G G m X B.F.C.B.B.B.B.B.B.",
"B.B.F.F.C.L.C.B.m.n.n.F.^.K.B.{.C.!.m.{.p.r.r.r.r.r.r.r.r.r.i.i.r.r.r.r.x c % w.G l z G G G G G G G G G M #.X L.B.B.B.B.B.B.B.B.",
"C.C.C.C.C.C.C.C.F.{.F.{.|.|.|.^.L.{.{.}.P J r.r.r.r.r.r.r.r.i.d.r.r.r.r.l.R.  C w.%.C 9.U H H @.' [ G p C 9.J L.{.F.B.B.B.F.V.V.",
"T T C q u k g a a 6 : : ; # # * 9 p P Z @.n.r.r.r.r.i.r.r.r.r.d.r.r.i.i.d.F.  X 1         > ; @ @ > 6 6 ; .   = u S V V S S S V ",
"`.b.F.E.U.`.].> ' ) L L L L _ _ L L ) b.[.3.i.r.r.r.i.i.r.r.r.r.r.r.~ ~ i.B.H J.i.i.f.r.r.r.K.oXr.r.r.w.r.U w.r.r.w.r.r.r.r.w.w.",
"r.r.r.w.r.w.W.> L L L L L ' L L L L | Z.S.i.r.r.r.r.i.i.r.r.r.r.r.r.r.r.r.B.B.d.d.d.d.d.d.d.d.D.T r.r.w.r.+.! r.E K O.r.r.w.w.w.",
"w.r.w.w.r.y.`.t L L L L L L L L L L L R.!.i.r.r.r.r.i.i.r.r.r.r.r.r.i.i.r.y.F.d.d.d.d.d.d.d.d.D.G r.r.r.w.w.r.w.K *.r.r.r.r.w.w.",
"w.w.r.r.r.w.W.t 7 L L L L L L L L L L Z.@.r.r.r.r.r.i.i.r.r.r.r.i.r.r.r.3.y.E.d.d.d.d.d.d.d.d.+XG r.r.r.r.r.r.r.r.r.r.r.w.w.r.r.",
"w.r.r.r.r.w.Q.> 7 t L L L L L L @.| ) 0.n.i.r.r.r.r.i.i.r.r.r.r.i.r.r.r.i.U.Z.s.d.d.d.d.d.d.d./.H r.r.r.w.r.w.w.r.r.r.r.w.r.r.r.",
"w.w.r.r.r.r.Q.; k 7 L L L L L L L >.L q.E.r.r.r.r.r.C.i.r.r.r.r.r.i.r.r.i.v.Z.d.d.d.d.d.d.d.d.XXC w.w.w.w.w.w.w.r.r.w.%.w.w.r.r.",
"w.w.r.r.r.r.Q.; C 7 y v L L L L L L L 9.b.i.i.r.r.r.i.i.r.r.r.r.r.r.r.r.i.<.F.d.d.d.d.d.d.d.d.XXz w.r.w.w.w.w.w.r.r.w.-.w.w.r.r.",
"w.w.r.r.r.r.E.6 J 7 7 7 L L L L P P q.8.D @.n.U G X.O.r.r.r.i.i.i.r.i.i.S.c.F.d.d.d.d.d.d.d.f.XXk w.r.r.r.r.r.^ r.w.w.w.r.r.r.r.",
"w.w.r.r.r.r.`.@ $ # $ $ @ X X .       X X . . . . .   X X = q 4 q 2 2 2 - & o o < 0 N a N N V   z w.r.w.! ..! &.w.w.w.w.w.w.r.r.",
"r.r.r.r.r.r.B.U w.%.%.%.! w.t.%. .i.i.r.t.t.t.t.t.t.i.$X@ L.m.m.C.K.^.^.^.^.^.^.I.^.^.^.(.^.^.^.z r.r.r.!  .....! $. ...w.w.w.w.",
"r.r.r.r.r.r.B.w.r.r.r.O.^ ^ ^ -.r.r.t.t.t.t.t.t.t.t.r.i.d ^.N.m.N.^.N.m.K.C.^.N.C.|.^.(.m.N.^.^.z w.r.r.! 2.! ! ! !  ...w.w.w.w.",
"r.r.r.r.r.r..Xy.r.r.r.r.O.r.=.r.r.r.r.r.r.r.r.r.r.r.i.i.f ^.m.m.N.N.C.m.^.L.(.^.K.^.m.C.m.m.N.|.z w.r.r.r.w.O.!  .! 2.O.r.w.r.r.",
"w.r.r.w.r.r.!.w.r.i.r.r.r.r.-.O...i.r.r.r.r.r.r.r.r.i.i.n N.m.N.N.N.m.J.C.^.m.J.^.L.m.m.m.m.K.|.H w.r.r.r.r. .!  .O.w.!  .r.r.r.",
"w.w.w.w.w.w.[.y.r.i.r.r.r.r.r.O.r.r.r.r.i.i.r.i.r.r.i.i. .m.N.m.K.K.m.m.N.N.N.^.^.(.(.J.m.N.m.|.H r.r.r.w.w.! *.! -.r.-.r.r.r.r.",
"w.w.w.w.w.w.[.y.r.i.i.r.r.r.r...r.r.! r.i.i.i.r.r.r.i.i.,.K.N.N.J.m.N.K.m.N.K.N.N.(.^.m.G.H.m.!./ r.r.r.w.w.f.i.r.w.r.r.r.r.r.r.",
"r.r.r.r.w.r.[.2.r.r.r.r.r.r.r.r.r.i...3.i.r.r.r.r.r.r.r.<.L.N.N.C.C.J.m.m.m.N.m.f.^.J.m.m.G.m.^.U w.w.w.r.r.r.r.r.r.r.r.r.r.r.r.",
"r.r.r.r.w.r.{.2.r.r.r.r.r.r.r.r.r.r.r.r.i.r.r.r.r.r.r.r.I L.J.K.J.G.N.m.m.m.m.m.K.m.m.m.C.C.f.7.z %.w.w.r.r.r.r.r.w.r.r.r.r.r.r.",
"w.w.r.r.r.r.+X2.r.d.O.^ O.r.3.3.r.r.i.i.r.r.r.r.r.r.r.r.m K.N.K.P.K.m.m.m.m.m.m.K.m.N.N.N.K.|.|.q w.w.O.O.w.r.r.w.w.w.w.w.w.r.r.",
"l.y.w.w.X.[ y.%.{.L.i.t.i.y.r.r.w.i.i.r.%.U K %.%.r.w.t.; L.N.N.N.K.N.N.N.m.J.m.C.J.m.N.N.N.^.|.* 9 9 a w w q P Y H a i 0 a { a.",
"| @.| @.U p X . X D @.y.y.P * $ j 0.j.j.x.x.| } @.1.v v # m.m.m.m.K.N.N.N.N.N.m.m.m.m.m.N.m.m.K.  F D H F u.y.u.y.y.b.9.4.a X n ",
"2.3.3.3.3.r.+X^ T r.r.3.3.3.$XL ' H J J G G J J A G J L k m.N.m.J.K.m.K.N.N.N.N.m.m.m.m.N.m.m.N.m B.y.y.y.y.j.j.j.j.j.j.j.Q..X,.",
"=.3.3.3.3.3.r.r.r.r.3.3.3.3.Z.G P H J J H H H H H H H k.b ^.C.m.K.P.N.K.N.N.m.m.m.m.m.m.m.m.N.K.X.y.j.j.y.y.y.y.y.y.y.y.y.y.oX>.",
"O.....3.3.3.3.3.3.r.3.3.3.3.z.H _ H J %.o.J H H G G H H 0.C.N.N.G.K.N.L.m.m.m.m.N.m.m.m.m.m.m.^. .y.%.j.y.y.y.y.y.y.y.y.y.y.oX<.",
"....3.3.3.3.3.3.3.Q :.3.3.3.i.L L H J H J O.H H H %.y.H 0.N.N.N.N.N.m.m.m.N.C.m.N.m.m.m.m.N.C.^.<.! ! y.y.y.y.y.y.y.y.y.y.y.oXL ",
"3...3.3.3.3.3.3.3.:.Q 3.3.3.r.L _ H J J ! O.H H G U <.z.h.(.^.K.m.N.m.m.N.m.m.m.m.m.m.C.^.m.(.(.<.!.w.w.y.y.y.y.y.y.y.y.y.y.oXL ",
"3.3.3.3.3.3.3.3.3.3.3.3.3.3.3.n ' H H ! %.+.o.%.$.H H J 0.C.m.^.(.m.m.m.m.m.m.m.m.m.N.m.K.^.N.^.<.y.y.y.y.y.y.y.y.y.y.y.y.y.$XI ",
"3.3.3.3.3.3.3.3.3.3.3.3.=.3.3.n H ! $.O.O.%.O.! ! K H J j.5.^ X.U U U K U ! ^ K U K K ^ ^ ^ ^ ^ L y.y.y.y.y.y.y.y.y.y.y.y.y.R.` "
};
