/* XPM */
static char *b878689f8a4f43bceddbeb703471def5Steh3vxTter73mPS[] = {
/* columns rows colors chars-per-pixel */
"64 64 196 2 ",
"   c #040302",
".  c #0B0403",
"X  c #060904",
"o  c #0B0A05",
"O  c #06040A",
"+  c #0C0609",
"@  c #060808",
"#  c #0C0A0B",
"$  c #130604",
"%  c #1A0502",
"&  c #130B05",
"*  c #1B0D02",
"=  c #13060A",
"-  c #18060C",
";  c #130C0D",
":  c #190E0D",
">  c #071209",
",  c #0C110D",
"<  c #131005",
"1  c #1B1104",
"2  c #14120D",
"3  c #1B130C",
"4  c #1D190D",
"5  c #0D0C12",
"6  c #150713",
"7  c #140D11",
"8  c #190E12",
"9  c #120F19",
"0  c #180F18",
"q  c #0E1213",
"w  c #141213",
"e  c #1B1314",
"r  c #1C1A14",
"t  c #15131A",
"y  c #1C1619",
"u  c #1C191B",
"i  c #210E01",
"p  c #280F00",
"a  c #200E0C",
"s  c #241305",
"d  c #2A1304",
"f  c #24140D",
"g  c #2A150C",
"h  c #25190D",
"j  c #2C1C0D",
"k  c #391707",
"l  c #33130C",
"z  c #341D0D",
"x  c #381A0F",
"c  c #210F11",
"v  c #231413",
"b  c #291613",
"n  c #241B14",
"m  c #2B1C14",
"M  c #22161A",
"N  c #2A161C",
"B  c #231B1C",
"V  c #2B1D1B",
"C  c #351713",
"Z  c #331D15",
"A  c #3A1D14",
"S  c #321E1A",
"D  c #3D1F1D",
"F  c #1E2015",
"G  c #2A220D",
"H  c #33210C",
"J  c #3B220E",
"K  c #39290E",
"L  c #242014",
"P  c #2B2015",
"I  c #25221B",
"U  c #2B221B",
"Y  c #2F291B",
"T  c #342215",
"R  c #3B2414",
"E  c #362914",
"W  c #3B2915",
"Q  c #33231B",
"!  c #39251D",
"~  c #362A1D",
"^  c #3A2A1C",
"/  c #3D3017",
"(  c #1D1B21",
")  c #241722",
"_  c #291620",
"`  c #241D22",
"'  c #221F24",
"]  c #2A1E22",
"[  c #2A1F23",
"{  c #2A1F28",
"}  c #321E22",
"|  c #252022",
" . c #252123",
".. c #272520",
"X. c #2C2323",
"o. c #292327",
"O. c #2D2326",
"+. c #2F2424",
"@. c #2E2922",
"#. c #2E2A24",
"$. c #262229",
"%. c #25232A",
"&. c #2A2128",
"*. c #2B2429",
"=. c #2B2B2C",
"-. c #312521",
";. c #322422",
":. c #372720",
">. c #3B2421",
",. c #322922",
"<. c #352920",
"1. c #342B23",
"2. c #352C25",
"3. c #3F2F23",
"4. c #3B2B24",
"5. c #3C2C24",
"6. c #3D2F24",
"7. c #34252A",
"8. c #392729",
"9. c #342B2A",
"0. c #352A2B",
"q. c #312A2C",
"w. c #3B2E2A",
"e. c #392F2F",
"r. c #3B3026",
"t. c #35312A",
"y. c #36312D",
"u. c #3F312C",
"i. c #3D332C",
"p. c #2F2C33",
"a. c #3C2E33",
"s. c #373030",
"d. c #3C3133",
"f. c #482F0F",
"g. c #422715",
"h. c #492D14",
"j. c #432C1B",
"k. c #402A1C",
"l. c #4C2E1C",
"z. c #46311F",
"x. c #48311F",
"c. c #503017",
"v. c #54361F",
"b. c #633C1C",
"n. c #412A21",
"m. c #412D23",
"M. c #442F21",
"N. c #482D21",
"B. c #432F28",
"V. c #422F2A",
"C. c #433023",
"Z. c #463022",
"A. c #443325",
"S. c #493422",
"D. c #4A3423",
"F. c #4F3424",
"G. c #4C3A24",
"H. c #41312A",
"J. c #43322A",
"K. c #46392A",
"L. c #453C2A",
"P. c #4D3A2C",
"I. c #4C382F",
"U. c #523522",
"Y. c #543623",
"T. c #543C27",
"R. c #523B2B",
"E. c #503A2E",
"W. c #583D2B",
"Q. c #433733",
"!. c #473733",
"~. c #493730",
"^. c #463B37",
"/. c #4D3C34",
"(. c #453B39",
"). c #503C31",
"_. c #533E34",
"`. c #593934",
"'. c #653C25",
"]. c #6B401E",
"[. c #50402C",
"{. c #5B452E",
"}. c #4E413B",
"|. c #554333",
" X c #5B4433",
".X c #5B4934",
"XX c #544439",
"oX c #5E4B3C",
"OX c #60432B",
"+X c #644732",
"@X c #624836",
"#X c #69543E",
"$X c #5A4741",
"%X c #584C45",
"&X c #604D40",
"*X c #605044",
/* pixels */
"Z.& o V ,.0.M +.Q = & & 2.u ' ' A 2 o w 4.1.Q :.1.1   . n o.' r o.2 w w U e M e B U # n !.:.V V n U o o e.) B B [ w o w Q n U m ",
"H.w o < 1 u.Q V &Xw & o j 0.I #.g & ,   m N.F.1.).# w & 1 = ..$.Q & @ @ h e w h V.o   $ s 3.C.3.* &     3 V q.O.. 7 o   & R E ^ ",
"2   w @ E 3 ~ E.@ . 7 = & $ -.^.+ @ : = v . U.P.;   8 7 & L.@.V 1 ; : ; 3 m -.k.1 2     P z M.M.f w + + f * y.V   + w ; 1 V m.S.",
"  o u w   Q . :   7 8 = w U + u o 2 e 7 ; B 3 ; o o e y & V :   u . = = . j ^.  ; 5 = = . U P 3.= : + 8 . P y.e   w w 7   V m e ",
"+ y ` y w @ w   3 w e : 2 o   : y M e 7 y . & :   e e e e = M w   - 7 M o   U y o & - - ; o y @ 4 - : e = . e o e e y e w 3 V   ",
"| u | B u w , 4 f e 8 8 e V o v M y M v O.w o   U m m m m y @ ; 3 m S V V o @ o : v v c v e . 7 Q e M 6 ; 3   o e y y y y # , 2 ",
"` B ' ' M + o * v N b m v n   I 1.w.+.M 1.B w n ~ S Q T T 1   n b m Q m V n   2 b m m m S U 2 y S.-.O.` e M 7 B B y ` ` y r 2 V ",
"P U ' ' U <   V 1.b b Q Q &   . T H.q.[ H.= # & * 5.V ^ S.&   h 5.4.Q -.4..     ~ m Q V S Y     d H.0.` 1.0.+ r n V &.m 0.U o % ",
"m % n V     o   s z j.P.    7   * 5.5.B P.@ #   z E.H.{.~ 7 +   H C.5.H.5.; 7 w r ^ >.m C.# @   1 W.r.a.u.& 7   ~ n.8.4.5.& & . ",
"B % e.$   & & o m . {.* w + y +   b Q.e.M @ 7 e # d {.H.e @ + + 2 H /.V.    + w   1 j |.    : 7   j z.XX&   ;   3 W 5.j.:   o o ",
"& L + + & v 8 - & U w w   e B e w 7 ' ;   w y e w w 3 0 o o e 8 o e m v # e 7 7 w & w 2 @ # e 8 # = h 7 .   : ; + n . :   @ ; 7 ",
"& q   ; V S b f e @ + ; 7 y n V [ w . . ; u y M y w 5 5 : v v 3 ; o u 8 w M e e n 3 o   : e 7 y w @ w     7 e 7 @ , B   @ w 7 7 ",
"y B   3 Q Q V m . A   w B M n Q h v o 4 o.} e X.V . @ Q Q S b b v w & e -.B e V V +.+ o V e e M 4 u 5   | y e 7 y e   # t : e e ",
"` : w e ~ ^ z 3.U . X F q.B U 4.* 3   n 0.Q -.+.X.o @ n E H.^ ^ m v o h P.5.V S z.V ; 2 2.0.B B -.y w   2.8 y M B :   h b m y M ",
". 2 w Q ,.4.Q n.Q w & I   0.U 5.h @ # o * 5.p.w.. o +   H m.A -.$ #   Q h S.C.n.P.; . . Q A.X.-.u.  + . T v e B v e : . s ~ B B ",
": o # # Q -.4.V y + w o I n (./.;   7 @ Y E A.%X; 7 ; ; h % g.Z . + + # ~ 4.R.R.v w . o 4 s n.oXV = ; + : j e ; . o o . 3 & B + ",
"  7 w +   U + 8 . ; w e + ' v & . 3 e & . U Q 7   ; - - # m & e - + = =   Q & 3 e O . .   n ^ . w + w w 7 Q n   = + ; = # n w w ",
"+ B y u w   ; + + y y y w w : . f b c e @ o     2 v : - 7 + 0 @ + 8 : 7 &   B ; @ - = = = 5 7 , + w w w = + y + + 7 = : 6 7 w @ ",
"u ' r y $.t & 3 B u y v V | o 1 Q Z b v 8 w . = m f v c n y 2 & c c e 8 V + ; w M 6 ; = : : 7 w 8 e y w e e + 7 7 y 8 e y e 0 3 ",
"o.' 0.V V 3 @ P Q U V S T + o n R A x f M ; . & 4.S m V U -.# e b v v g S b 7 h [ B v e : 0.7 w 3 e y o.Q f u m B y B B e [ t G ",
"I y '.Y.Q o @ * Q U ~ n.C.;   % G.^ A S b .   m 1.Q T E u.& ; v V V V R R S O $ 5.7.M e -..   ; W Q V -.4.: + h n ) ' M ~ & # T ",
"P 5.b.].H 7 @ # J 1.~ A.1 + +   d A.Q U.H.@   * 4 T z R.V = + & h l.1.W @X. . o j * | f m.+ + + m W.Q S.j @ + + W 5.u ,.m.< #   ",
"Q 3 W.3 ; + w + . j U % = + = . m z G./.= . : 7 m . Q K.; o = : m * M.z..   = ;   % T [.% O 7 ; & z.|.j.&   : e & d 1.4.    7 + ",
"7 I 6 7   7 w w 5 ; ; @ O e ; + @ U . ; * : a :   -.# y   7 : : + I   & . o = : 6   u 9 # v e v ; 4 B v   8 8 v y e : 3 o + e e ",
"y y @ y e 3 u w y u . & y M 7 = 8 M ; 3 b f 3 v 3 w 7   e v 8 : 8 w #   = 8 = v b -   . 7 e V V e ; u o e v N b V y w   ; y e e ",
"e M   V n S M e 8 M   o V M e y B : + Q -.v v v ! V + & e e 8 e e y u = e 8 ; f f M # & h V 8.V [ B w e n S m V S V & M M v [ M ",
"-.o 2 m k.4.m.} +.. o h u.$.X.B d.. # m 1.V V Q ~ * + m @.X.B B b X.  n -.b b m Q v   e ~ ' 8.5.V &   3 4.! m R m Q 2 h N B [ [ ",
"e.2 # . j i x S v O     j 0.` B ~ + + 7 J C.U A. X+ 7 o j o.` M -.. o . s V m R ^   @   : T.,.r.+Xw 5 & s 4.S A Q A.  & * ` ` [ ",
"w @ w # v . W.K.: o o . j   e.K.& & ; + ^ $ m.OX*   2 7 m P.0.m = #   o Q ^ W S.s + = = l   j.f.. 7 ; ; ~ j.m ^ /.+ @ # T [ V (.",
"  @ 7 ; 7 n ; v & & . . O E   : . . 7 8 o ^ 4 .   ; e ;   T *Xv @ $ = & # W Q = w + 6 - X C + 6 e ; w 7   m : U 8 @ 7 7 o T w w ",
"+ u 7 7 ; w u : ; 8 : = o   ; + = = v v e O 7 ; w y _ y w < + @ o : & b w & 4 y + 8 : - =   M e # w w w 2 n w & @ : 8 7 8   u @ ",
"v e 7 8 e O.# : e v : : m 7 q 6 : b m g Q 2 + + [ B _ B B w 7 w b N e b V 8 w @ w : : 8 e ; @ 2 8 e e M n w o o B 8 8 e 8 y y : ",
"v e e e b e   3 B M 3 ! z q.X n v g C m Q ; = : H.y 1.$.3.e.+ v N m h m V B 2 o | M 7 e N V ; r V M S m W e 7 h ) V e e y y w 3 ",
"Q n v V H.6 # 3 h Z A k A @ 7 2 Z.T D Q m.. = . i ^.|.0.OXo   n Q ! A ~ j.:   2 *.` v 1.S u.@ & m T T E d 3 # f f V B B O.B t n ",
"h P Z E.; + @ ; z g.j.d g 5 w @ ^ E ~ j.1 ; = = j P. X`..   + . p H.S ~.T.2 w + m q.7.! s o 7 ; Q j.T R % ; o . E O.{ [ V & @ < ",
"~ : XX; : 7 w +   Z H.& & w u w 2 T K.$ + & - -   W OXf   # = : % j T W.e     . . V 0.$X* O ; ; . R g #X3 @ = + 1 E X.-.= o e w ",
"; ^ @ ; : e y e ; . B + # ( u u q & w + 8 e c v 6 & B # ; + e 7 ; j n ;     3 3 + & n w + ; : y 7 & n u # + : 8 @ & P y ; : y y ",
"y t + w -.V m n v : w w $.( ( ( $.t   ; m f v f m b   & 7 e e 8 y @ w + + y : a e # w w e e 7 e y y # 2 3 v v 3 3 7 @ @ 7 e y y ",
"B + @ U H.S Q S V ` q r Q B ' $.( B . 2 V -.-.m 3.z ; e e ( e X.v m & o y b x m m y @ 1 Q v M [ y -.w w m V V m b e + ; e y y y ",
"u + 6 . f >.S S r.$ + . * oX,.O.:.C.2 @ v ,.j.P.W.E.+ e m -.~ Q H.~ # : & ! R ! R . + $ f V S ! ! e w @ W 5.! S b q.; + n e M ` ",
"w   7 + z $X~ Z.~ o + ; z V j.U ).. . ; G . / {.S.. =   T Q 0.H.Z & = = V h P.~ s # 7 + V /.V.! R w w q   T Q Q 0.y = ; % & u | ",
"+ + e o & g }.).w = ; + . 1 R.S.+ . w w # K y l.  @ ; + o * Q ^ +   = ; & z 5.n w   : 7 $ R j H.. 2 y y q m & v n . + : o ~ o.w ",
"; y y e ; T V e + + 8 8 # * r e   8 y e 7 o e o + w B 7 5 m y y   + : 6 @ 4 y 8 + e e 8 ; . y e   u ` e u w ; . v o 8 8 0 o y # ",
"B M _ e 6 + e B + 7 e : y 7 & o 7 : e y y w # @ w B B e e 7 +   + e 8 e e 7 + ; e e e e e y w w m Q Q m V 1.@ # -.V : y e 0 o : ",
"m V m V e & @ + y f 8 e v v w Q y b N V v B + r X.+.U V ~ c 0 B e e e B v @.8 ; v b y M m V w L Q :.! S Q 4.2 o +.b M e ; -.q g ",
"V S Q Q } e 7 n w.M.Z m j y + f ^ ! A Z s V 7 3 h ~ H.~ j.m o m -.v M [ Q 3 ; = v :.V V ~ H.# & W j Q S 4.H.o   m t.X.o.+.V w E ",
"R.w.-.~ H..     * N.T z E.. . . j H.! ! A .   @ R H.K.x.W..   . R -.4.m |.n ; = < T R ~ S.6   @ n j Q Q H.@ + + 4 n w.-.e.o q & ",
"^ N.g.@X; e o o m d j.W * + . = * H g /.n 5 # @ 3 * |._.  = @ + A R ~ 1 F.  - = + ~ R.|.o @ @ w 2 3._.XX.   w +   Q q.-.; & 7 # ",
". j R.& + + = :   W j e 7 w ; ; = T & g 7 o w ; w C.3 ; . q 7 :   d W.* 7 + 8 7 +   U r w 7 w u ; o ~ y #   y 7 @ . ~ B 7 # e 7 ",
"w w @ 2 + w e ;     e # w w : : $ ; n @ & 4 n e 7 # v e   7 y e : + v 3 + ; e ; w + #   B u $.o.| 9 7 ; : 7 e e M @ e @ # w e e ",
"n ; + r y y e - r o + e e N v v : b + + 7 Z :.m ` w u w y ) M M ' w w 6 w y y y e B # 7 0.y U ( ( o.+ r -.v e M M B w > I v M B ",
"r.w 5 j n v v n B +.w G S m b v N } + + V -.n.^ ~ 0.+ 4 e { | | 0.q.@ 3 m.w y y M +.w 4 Q ~ m (.n.w.7 3 n ,.,.,.U I O 2 2 y V n ",
".   o . d Z m n V . O & d b b Q 8.S + + m u.3.j.^ +.@ * 1 V r.$.H.: . @ H H.y b r.+ @   z.H.w.P.W.    # W 2.5.5.Z.w + @ Q N N ~ ",
"o 8 7 7 Q v.^ d .Xw # o j.b v 5.m.; + @ 4 s A.Z.^ . ; o 3.3.P.` ,.8 7 + L A m g $ 2 + + S T.H.S.v : w # o h K.c.o @ w ; 3 3 V m ",
"= 7 y w @ Z |.g ; + = + % ^ I }.y . . + . Q 3.G.: O - 6 < n..X/.;   @ # 7 E z : y ; = + @ ^ H j . w w | 7 3 1 h = ; y w + U : e ",
": e y w ; # r 6 ; w e e # f n [   + = - - + B O @ : e e : + r w + ; e y t @ B u w ; 7 : ;   ' w 2 7 | ` ' q + . 7 y y 7 7 w r o ",
"M y y y e : w 8 e v y e e @ w ; + 8 - 8 8 M + w y y e : e B w o.: y e M M w . 7 7 M 8 8 : # # # w | &.[ $.' 2 M u y M e e u 5 # ",
"Q.B y B h =.w h V V V b v n 7 7 U >.y e M B u y s.B V V +.-.w n [ O.V V T e     Q y e e e u 5 r < -.@.V q.X.y 4 v ( B y ` ' # # ",
"o ^ ` *.R 2.; @ s V.V ! z n @ w R H.m u 0.-.w w b 2.Q ~ ~ #.@ @ b Q ~ T S.w . = h V n v U @ ; . M.t.+.4.4.; t o ^ B M y v w + + ",
"L A.Q 1.h.w w ; n Z Q |.H.; u w < ~ 1.I j.# w w ~ C.5.5.P.w u w ! V.~ H.j.+ - 7 & V U -.1 @ ; + m h ~ z./.u 7 = T ~ ` : $   ; ; ",
"  $ T.F.7 + ; ; @ ~ g.~ e @ w w w Q A.A.w + w u @ g ~ G.: , w w & T m.0.: . 7 : @ Q ..#.w ; ; ; o 1.H.|.+   : : o ^ v n @ ; & : ",
"3 o w w + ; w w + + : u o w w w w w n y 7 7 u u w 2 h y + y u u w & U 7   w e e w   2 & + + ; ; 7 1 v w u 7 7 : # w ; @ @ : 3 e ",
"e w   e w B y w 0 y w w y y y u ( t w & ( ( t t y u w # u u ' ( u w w w w w w w e e w : e e v 3 w w w o w w y e e w # & e e v v ",
">.M @ 7 u | B u B -.@ w y u y B 5.( o w X.U V M 1.U w # y.[ ' ' u w w # ` e w w M M o v B M n y w y # 2 u B M M B =.@ : b e n h "
};
