/* XPM */
static char *_253ad50373e4279a3c5597cd4726ae0eOi3TzdXHoMJx6d5[] = {
/* columns rows colors chars-per-pixel */
"64 64 219 2 ",
"   c #302926",
".  c #352F2D",
"X  c #37322E",
"o  c #3A322E",
"O  c #373331",
"+  c #3C3633",
"@  c #3D3935",
"#  c #3D3B39",
"$  c #423733",
"%  c #433B35",
"&  c #493D36",
"*  c #433D3A",
"=  c #4A3E39",
"-  c #45423D",
";  c #4B433D",
":  c #4E463C",
">  c #544B3E",
",  c #454341",
"<  c #4B4542",
"1  c #464945",
"2  c #4D4945",
"3  c #4E4C49",
"4  c #514741",
"5  c #534B44",
"6  c #5A4E45",
"7  c #534E49",
"8  c #5F4F4A",
"9  c #4E514D",
"0  c #565046",
"q  c #5B5146",
"w  c #54524D",
"e  c #5B544C",
"r  c #57584F",
"t  c #5D584D",
"y  c #555551",
"u  c #5A5651",
"i  c #565954",
"p  c #5D5A53",
"a  c #555E58",
"s  c #5D5D59",
"d  c #635445",
"f  c #63564B",
"g  c #6A574B",
"h  c #645A4D",
"j  c #6B5B4C",
"k  c #725D4D",
"l  c #635C54",
"z  c #6B5D52",
"x  c #635E59",
"c  c #755F51",
"v  c #5F6057",
"b  c #5C625C",
"n  c #6D604D",
"m  c #74634E",
"M  c #7B654E",
"N  c #656255",
"B  c #6B6254",
"V  c #64625C",
"C  c #6B645B",
"Z  c #656A5E",
"A  c #6D695E",
"S  c #746454",
"D  c #7B6655",
"F  c #736A56",
"G  c #7B6954",
"H  c #72655A",
"J  c #79675A",
"K  c #746A5D",
"L  c #7B6B5C",
"P  c #75705C",
"I  c #7C715D",
"U  c #5E6661",
"Y  c #5F6A63",
"T  c #646661",
"R  c #6A6661",
"E  c #646A64",
"W  c #6C6B63",
"Q  c #666E69",
"!  c #6E6E69",
"~  c #736D63",
"^  c #7B6E62",
"/  c #726E68",
"(  c #6D7367",
")  c #67716B",
"_  c #6D726B",
"`  c #747165",
"'  c #7C7364",
"]  c #73746C",
"[  c #7B766A",
"{  c #797969",
"}  c #7C7A6D",
"|  c #6C7671",
" . c #6E7872",
".. c #757671",
"X. c #747A73",
"o. c #7B7C73",
"O. c #737E79",
"+. c #7B7E79",
"@. c #826B54",
"#. c #856B56",
"$. c #826D5C",
"%. c #84735D",
"&. c #8A775A",
"*. c #8B735D",
"=. c #93765E",
"-. c #937C5F",
";. c #997D5F",
":. c #A27D5F",
">. c #806F60",
",. c #837463",
"<. c #8B7562",
"1. c #857B65",
"2. c #8C7A64",
"3. c #837669",
"4. c #897668",
"5. c #847B6C",
"6. c #8B7C6B",
"7. c #917662",
"8. c #947C64",
"9. c #9B7D65",
"0. c #937D6A",
"q. c #9A7E6A",
"w. c #847770",
"e. c #837E73",
"r. c #8B7F70",
"t. c #937E70",
"y. c #A27F64",
"u. c #A17E69",
"i. c #7C8075",
"p. c #75827E",
"a. c #7B837C",
"s. c #9A825F",
"d. c #8B8166",
"f. c #84816C",
"g. c #8C836D",
"h. c #948166",
"j. c #9C8266",
"k. c #93826C",
"l. c #9B836C",
"z. c #92886E",
"x. c #9E896D",
"c. c #848274",
"v. c #8B8473",
"b. c #8D8975",
"n. c #83857B",
"m. c #8B857A",
"M. c #85897C",
"N. c #8C8B7D",
"B. c #948473",
"V. c #9B8671",
"C. c #938A74",
"Z. c #9B8B74",
"A. c #918779",
"S. c #948C7B",
"D. c #9C8C7A",
"F. c #979177",
"G. c #9B9075",
"H. c #95937E",
"J. c #9C927D",
"K. c #A48364",
"L. c #AB8665",
"P. c #A78B64",
"I. c #AA8A63",
"U. c #A3836A",
"Y. c #A88369",
"T. c #A48B6D",
"R. c #AA8A6C",
"E. c #B28D64",
"W. c #B48C6A",
"Q. c #B2916E",
"!. c #A38671",
"~. c #A48B73",
"^. c #AA8D73",
"/. c #A28E7B",
"(. c #A49375",
"). c #AA9174",
"_. c #A3947B",
"`. c #AA957C",
"'. c #A4987F",
"]. c #A99A7C",
"[. c #B29375",
"{. c #B8967B",
"}. c #7C8681",
"|. c #818681",
" X c #848C85",
".X c #8A8D81",
"XX c #848E88",
"oX c #898F89",
"OX c #918E82",
"+X c #8C9285",
"@X c #859189",
"#X c #8B948C",
"$X c #8D9A8A",
"%X c #949484",
"&X c #9B9483",
"*X c #9B9984",
"=X c #93968A",
"-X c #99968A",
";X c #939A8E",
":X c #9B9B8D",
">X c #8B9791",
",X c #8D9A93",
"<X c #919A92",
"1X c #929E96",
"2X c #9A9D93",
"3X c #929F98",
"4X c #A39682",
"5X c #A89984",
"6X c #A2998A",
"7X c #98A196",
"8X c #94A29A",
"9X c #99A59E",
"0X c #A7A28D",
"qX c #A3A092",
"wX c #A5AA9C",
"eX c #98A7A0",
"rX c #98A9A1",
"tX c #9FB2A9",
"yX c #A5B7AE",
/* pixels */
"N.N K ' v.&X4X' @ l q.U.%.S $.*.0.3.N A W # # 2 A v.1.B P F.F.Z.Z.F.C.5.} } C.C.C.v.g.k.' - V .X|.;X] _ yX,X,X<X;X#Xe.3.N : 5.e.",
"C.B.B.l.l.l.Z.k.H < - 7 5 5 7 ; ; * - * # @ @ < C K h : C S.Z.J.H.H.N.c.} ' v.v.v.v.v.B.v.l .X#X@X,XX.T eX3X1X1X,X<Xm.e S 6.B.3.",
"5.t.B.V.V.V.V.V.r.w * t B g z H l p p N R A N C : 7 2 w ~ ` *X&X&XH.H.N.c.{ b.5.v.v.v.N..Xw i.1X<X,XX.V 8X3X3X3X1X,XM.B.C.D.B.j ",
"G S k.Z.Z.~.l.6.6.q ; p u 5 7 u r u u l l N A b.H.=XC ` %X+XN.F.(._.C.b.f.f.} } c.i.o.o.c.p 1X1X1X,X .s XX#X3X3X8X8X<X;X<X2X:XD.",
"-X1.W.~.l.<.L g k.g f ^ u 4 7 r r u w u p N { M..X$XW ! M.M.N.5.g.G.,.h ` o.} } o.o.} N s y 9X3X8X8X..3 _ a.#X,X3X8X<X<X<XqX<X;X",
"_.).Q.T.2.; 2 7 ,.f 5 ,.N w w w r r p p p A i.n.M.n.A V ] c.g.' 5.J._.,.} M.M.M.M.n..X+X.Xu tX8X8X9Xa.i n.n.i.XX,X;X-X-X-X-X:X%X",
"R.R.R.j.S K 7 u 2 @ - l l w < 0 u u C u l l E X. ._ V T V V } Z.(._.G.h.f.v.c.n.o.{ o.+XN.w tX1X1X8XO.V .XM.M.M.N.B.l.V.V.l.].T.",
"R.U.K.-.d C 0 p s < + 2 u 7 w w r e j < l l 9 E i V l ] ' 6.z.(.).T.T.&.&.Z.f.K ` o.W M.` , rX3X8X8XO.R 0X:X6X_.0.2.V.D.Z.V.T.R.",
"P.K.K.j.%.L l 3 x * - 7 w u u u p 5 z 7 l l N A I K h L K.I.P.I.E.E.s.j.~.g.1.B / V o..Xw + | 1X1X9XO.H 0X*X_.^.K ~ B.D.V.Z.`.R.",
"K.K.j.*.$.<.S f 6 4 ; t H N p l l l l l l K <.2.2.%.h *.I.I.I.I.I.I.s.s.Q.&.-.2.S l o.}.b + U #XXXa.V h Z.l.j.l.,.3.k.V.Z.V.J.l.",
"7.G <.*.8.g <.2.,.f ; D q.K V l l l p l C ,.8.2.7.2.g @.E.I.K.I.I.K.P.P.I.P.x.%.%.v.n.a.V * |.a.! w % d <.l.0.0.,.3.g.2.k.V.k.6.",
"4.> L ,.2.L <.7.$.7 ; #.V.o...V R x p N R ' 8.-.-.&.> F -.&.%.8.j.T.x.x.&.8.2.Z.5.C ` W r @ V V w - + D ~.Z.V.q.<.2.4.L 6.k.D 6.",
"f % B J L !.<.8.<.4 ; ,.C.M.n...] A C A A K L K L d % e 0 0 B h B %.K B e B h I P 0 0 e ; X 2 7 2 @ + j 8.x.B.l.P.K.Z.Z.<.2.d *.",
"= C S H 7 L U.U.2.< ; ,.Z.Z.:X( n.o.] R A c.c.1.1.F : 2 { ` N : : N N - : ; % @ $ + X @ X . O + O . + f <.^.V.j.R.R.^.l.,.*.D j ",
"f 1.L H J *.j 6 6 @ & %.~.T.].5.+X#X+X{ c.%XN.N f.f.- V +XM.` N [ 5.' ,.I B 4 h d n g z h g f h C % + 6 D U.q.9.{.R.K.*.$.<.%.< ",
"C K K ^ 4.0.^ ; X + : 4.`.).]._.M.#X<X+X=X=XC.1.g.c.w W +X` { N.:X' ' 5XJ.z.h B 2.k.z.1.,.I I ,.K & + : J G j =.R.U.7.$.L L z r ",
"0 C ^ ^ ^ K C t # * & 1.].].].].*X;X;X#XM.N.z.g.g.g.r r ] M.n.-X*XP { 5.z.Z.h f h.x.m 0.,.' ' ,.L 0 . 5 H S L *.<.<.%.L L q 0 ; ",
"+ 2 7 5 < - % @ 7 p < ,.T.%.l.].].;X;Xn.i.f.d.z.z.1.l 5.k.J.&X&XJ.C.Z.q ' Z.B h z._.4.h.2.,.h > l [   X % ; 5 q f f f 5 % = ; = ",
"; o 5 f C C H K p 2 * D ;.j.(.`.Z.&X.Xi.o.[ B z.z.1.N C.x.l.x.l.l.x.~.l.~.n 5 l B._.4.,.F B l C N w ; l z C 5 + & 5 e < @ = 7 r ",
"l C ~ ^ ^ ^ ~ ~ H 4 * l 0.T.(.I B.J.+X` ] ` > g.d.h 6 h.l.j.j.j.j.j.j.R.P.M - h L L ,.4.<.' ~ e.~ 7 < C ' 3.5 6 S 2.2.m & 0.>.~ ",
"v.~ ~ ~ ` ~ C C 6 ; * $ ; 6 0 5 e 5 5 : : : ; ; & @ ; 2.x.*.M @.*.l.h.U.U.l.5 ~ 4.6.q.1.h.8.*.e p u 5 ' ^ ^ 6 e ^ >.,.6.4 J J L ",
"~ ~ K ~ ~ H 0 l ^ H q L z.C.b.n.n.n.M.v.C.g.b.C.v.3.e I h.l.q.7.8.l.V.Z.~.T.L K 6.k.l.h.D.C.v.W p + 5 ,.,.^ 4 t ^ ~ ^ e - ; H ~ ",
"~ ~ K K K K K K K 5.^ ' m.N.M.M.=X=X*Xt ' K h.h.2.S h K V.l.V.l.V.0.0.B.Z.k.z C B B.C.v.c.o.} o./ V 5 B.,.~ 5 w R R R V * p V C ",
"K ' L K A s u N C [ l l c.n.Z o.=X=XN.d.x.` %.g.C.5.h K Z.l.V.V.Z.Z.B.B.J.C.; C 3.' 3.3.} / N } S.m.4 2.%.K < 0 W m./ x 3 p l C ",
"K h.8.2.2.R V N A ` 0 2 ( X.) ) X.M.C.~.(.(._.J.b.K l K Z.l.x.V.Z.Z.k.6.B.B.= O X % $ ; % , = 2 * = $ & & $ . u R V V N 3 i x ' ",
"%.0.2.2.h.1.C l C / u w b a Y ..n.+XS.J._.(.&XqXS.v.z ~ C.l.h.6.J.J.I d ,.6.% e q e.~ A.t ] w e.r K >./.V.,.5 C / V N V 2 i s ~ ",
"L 2.2.2.h.2.G l A T y w i E E M.%XN.m.M.m.N.m.v.} K e Z a.B.L S B.r.1.v.A.B.4 } 5.6 5.D.c.] u - < 5.<.q.q.j.d C ` V V V < p w R ",
"b I 2.,.4.%.j t T b w w U ) n.qX&Xe.} { ] T ] o.l V w i oXB.B.B.C.C.3.r.B.5.l ~ 0 ; 6.3.` W W - 0 3.q.q.q.~.f J 3.K V s * l A V ",
"N v K ' ' I I A i i 2 7 T Q c.e.v.,.' R o.b X.a.}.O.w 3 ..^ ^ ,.6.5.h N ^ e < 5 ~ C 6.4.A @ - 3 ` 2.q.q.q.~.h D U.q.J ^ * ,.2.,.",
",.K C W A C N V i w 2 , i _ v.^ 3.k.l e e..Xn.M.M.i.w + 2 f f S z z K C K l = p e.qXS.B.] 1 ) X.o.4.q.l.q.7.> c !.q.*.9.& 7.K.9.",
"h.l.3.T T V V V i w 9 @ 1 o.A.B.k.B.v.K C.C.N.5.} { w 9 n.B.V.l.$.1./.J.&XD.t oX;X:X.X~ b E X.o.i.5.0.l.8.q.d c q.q.9.D $ 7.9.&.",
"' K A V V A x u w 2 2 1 1 V 3.v.C.V._.Z.g./.J.H.e.v.l T wX4X/.~./././.J.J./.l @X8X3Xo.Q oXa.a.X.X.o.6.l.*.=.j k 7.U.q.*.j D @.h ",
"i s V V V T V y i 9 i O.E 1 ; 6 f f f h < z N ~ N C : 3 } k.<.,.,.1.5.5.3.3.u a.8X}.X.@X XX.] X.X.} 3.4.7.y.k D q.U.U.).0.D k e ",
"_ T u T ! ! ] _ X. .}.a.y # l K S S H S S S S l C A A A ] m.,.K 3.B.h K 6.$.u X.E _ p.a.i.X.X.Q E Z ' 1.0.R.D f 7.U.Y.l.$.7.G S ",
"! w w V ] ..o.a.X.O.}.O. .2 5.4X~.~.L l.~.~.^./.H.&X&X%X#X;X&XZ.^.^.,.g._._.r }.Q X. .X.) _ ] Q W W [ 6.8.j.D M y.Y.Y.8.f *.<.$.",
"V s V V ] ] o.+.X. X,X>X}.1 [ D.U.U.<.l.!.U.U.^.S.%X%X.X X#X:X`.~.!.V.B.&X%XV a.}. .Q E E E E T _ { 6.q.h.l.D *.R.L.Y.K.z <.@.*.",
"V w V T _ ] ! X.o.@X8X8Xa.< o.`.l.q.l.!.{.!.U.T./.n.i.i.a.+X&X5X`.Z.D.&XS.' X._ b E U U E Q E V Q { 6.8.h.l.k D 8.=.U.g q 7.@.*.",
"b s ~ ~ o.o.] ..O.@X>X>Xa.< ! D.q.q.q.q.^.!.U.0.5.] ] Z T .XD.B.^.~.0.B.v.H i.Q b b b b E E E ) ] [ 5.6.<.$.f < f J f c f l.7.*.",
"V V K 5.n.o.! ..+.@XXX#X+.- # < < < 4 p C C l N W _ Q b y [ ,.5 $.^.`.`.`.<.p _ T b b b T b , b O.] { C h ^ K C p w , $.g q.!.7.",
"b T ] e.n.n.o.o.o.i.i.a.! 7 ; f z z d 6 ; * @ * * - * # * < < @ $ & ; : ; $ + w w 3 w s i 3 + # < 2 - + + 6 C H ~ 3.w.q q U.l.<.",
"Q a.+.o.+.+.X.o.5.e.i.X.T 6 $.j.U.q.u.j.,.~ 7 @ 0 7 1 ] ` ~ ' 0.q.h.q.8.7.H u w 9 3 9 w < * W +. .b O.Q ~ K ^ ' ,.3.,.g.h U.7.<.",
"XXXX}.O.] ..} k.k.k.v.s 5 6 7.U.U.u.U.0.3.' C h / ~ V ) W C 6.U.Y.Y.U.U.9.$.K F V T V K q < { .X X+.p.X.{ ' ' ,.1.1.,.B 6 [.8.S.",
"#X#X|.! i o.v.k.k.B.C.l.H 8 L 8.8.q.2.3.' ' l t / ! V 9 ] 3.q.Y.Y.Y.Y.Y.=.f S J K Z W ' ,.7 D.M.O. .p.O.o.[ ' ' 1.1.1.K e H N.+X",
"#X XW ] ..! K B.C.S.6.1.t 7 H ,.1.' ^ ' L ' C e C ` } o.[ q.8.9.Y.Y.U.Y.9.2.$.J d S ~ ' 6.4 z.c.a._ |  .| ) _ W L ' ' h : ~ oX+X",
"3X] A ! x - p ^ 5.' N 2 * ; 5 6 f l t f C ' 5 : ~ ' 6.6.h ^ 0.9.u.=.l.~.9.<.$.$.$.*.*.,.I @ 5 5.W s s a.o.! b i e 0 6 : ; e ! o.",
"2 - @ < 2 2 , * r u e 2 , - - e C q * 5 K H 8 4 K 4.U.q.L u ' D *.@.*.^.j.7.*.=.K.K.:.U.l.o & : < * + ; ; = & - + X % ; 4 4 4 5 ",
"m.W x &Xo.c.! 7 / ] ! b E R T R W A t ' 3.3.,.q j.Y.Y.9.J l N A A 3.k.B.h.*.9.K.L.K.K.W.x.4 C.J.A.[ z [.).~.C.M.T 0 ,.<.L L ,.' ",
"6Xe.u N.n.v.! w ] o.! T s w s T V 7 l 6.0.0.0.d W.W.L.<.^ x i R V ] a.c.l.*.j.R.L.L.L.E.K.t &X&XJ.0.J [.&X#X,X}._ x $.<.L L $.,.",
"m.5.p M.M.N._ 2 _ |.] T W W T W V w u $.8.j.0.d I.L.;.l x V / V u a.a.a.D.!.~.R.R.K.:.R.~.5 +X#X=X5.S _.M. X#X#X_ l $.,.L L ,.6.",
"e.5.A M.m.m.Z 2 ] a.Q T ] ! s ] ! _  X2 x W - 5 *.*.L x l l l A R R ] +X:X/.~.~.!.8.$.C.5.< ' o.] x 0 c.e.o..Xn.X.l S ,.^ ,.,.,.",
"e.5.u } m.v.V t S.a.o.v.B.k.[ W W ] V w y p < 5 K H C l l l N ~ ~ / +.;X1X-XD.Z.0.%.B.3.z + w V s , - l ~ V N ` [ w S $.^ ,.,.3.",
"c.e.t ' v.m.R l S.n.m.~.R.[.Z.' / ! A u 2 l 7 5 l r p p l A ~ ~ ~ ~ ~ m..X XS.6X2.D 6.3.h + C S.%Xe.~ K / R V / N 2 L <.,.,.,.K ",
"[ C t 5.5.5.l 5 1.B.Z.~.~.T.^.~.6.l V R C N 2 7 r 2 N p C A C ~ ~ K ~ ' K ` +X7X_.~.D.D.' & C &X&Xn.%X-X6X&X%Xm.e < ,.q.B.v.0.' ",
"' l 6 [ v.5.l 7 %.).).~.Z.V.k.C.r./ / t p 0 2 5 w r C B K K K ~ ' ' C C A C X.;X2X-XD.D.v.: A %XS.c.-X&X5X_.J.&X~ w 3.D.D.J.D.S.",
"c.[ r c.OXOX` 0 S l.^.T.Z.B.5./ / o./ w = , * 2 x l C L %.%.<.S l ~ C R R M.}.<X8X1X;X&Xv.= p %XN.-X&X'.`.'.4Xm.H < ' D.5.L A.D.",
"v.e.< m.OXOXe.2 q l.R.R.l.h.2.K C C C A 0 u 2 2 r e z S m S J z z ' ~ n.oXrXrX8X8X8X8X2X7X@ w ;X;X-X4X'.`.4X%XN.' ; [ S.5.' S.C.",
"S.` 2 v.m.A.[ < C ~.R.R.8.2.2.,.K C ~ R V V 7 @ * % * & % $ % % e C p V b b b T V b b s s O w ..+X:X*X&X&X-X%X%X[ ; 5.v.c.5.v.v.",
"[ A w 3.B.C.' - H V.~.R.0.,.' ^ K ~ R C 0 x 2 < V T T w 5 S S I S B C C ! o.+.|. Xa.T _ 1 * w O.#X;X7X=X%X%X%X-X[ * ~ } ` } } e.",
"! R w R ' H p : ,.6.V.Z.4.' z C l 2 l N l N w 7 X.o.o./ l } c.v.B.g.v.N.=X3X3X8X9X,X#X#XX.< s XX3X1X8X;X-X%X6X^ B ; l / ! / ! / ",
"u A w 7 7 e u 0 4.6.6.v.3.3.l C C N A V N N w , _ a.X.T x _ _ ] R `  X+X#X@X+X1X,X<X<X#X,X, s #X8X8X1X1X1X<X3XN.' : w y V W W W ",
"V V w x C C l C H 4.4.6.L ~ l H ^ ^ 2 w l N u * / X.] l V ] ] ] X.n. X+.] ] ] X.......o.+X, s >X3X1X8X3X,X1X8X-X:X7 u ] W W W o.",
"W V * A A N p C l ' 5.5.' ' ~ ^ ' : 7 p 2 V u # V R R r r W R R R ! _ { [ ` / / ! ! / ] _ - w @X,X#X9X@X .,X,X#XwXy u ! , u - W ",
"- < + 2 2 - u 7 t ^ 3.4.,.^ ' z l w w < w u 3 @ s ] u t 0 p l N A R } [ } f.` t R l v.H.' - - y E E Q E b U a i i # * < 1 * * < ",
"2 5 w 7 - < < * 0 6.Z.^.8.,.C p u u u w l y , * w u l K h p N V ` v.C.C.' ' ` c.v.5.g.g.6.= 3 y Q n.] * V _ ) E i r p t * # X ; "
};
