/* XPM */
static char *_774e71d2d22431fb941d563f411f99f[] = {
/* columns rows colors chars-per-pixel */
"64 64 256 2 ",
"   c black",
".  c #010101",
"X  c #020202",
"o  c gray1",
"O  c #040404",
"+  c gray2",
"@  c #060606",
"#  c #070707",
"$  c gray3",
"%  c #090909",
"&  c gray4",
"*  c #0B0B0B",
"=  c #0C0C0C",
"-  c gray5",
";  c #0E0E0E",
":  c gray6",
">  c #101010",
",  c #111111",
"<  c gray7",
"1  c #131313",
"2  c gray8",
"3  c #151515",
"4  c #161616",
"5  c gray9",
"6  c #181818",
"7  c #191919",
"8  c gray10",
"9  c #1B1B1B",
"0  c gray11",
"q  c #1D1D1D",
"w  c #1E1E1E",
"e  c gray12",
"r  c #202020",
"t  c gray13",
"y  c #222222",
"u  c #232323",
"i  c gray14",
"p  c #252525",
"a  c gray15",
"s  c #272727",
"d  c #282828",
"f  c gray16",
"g  c #2A2A2A",
"h  c gray17",
"j  c #2C2C2C",
"k  c #2D2D2D",
"l  c gray18",
"z  c #2F2F2F",
"x  c gray19",
"c  c #313131",
"v  c #323232",
"b  c gray20",
"n  c #343434",
"m  c #353535",
"M  c gray21",
"N  c #373737",
"B  c gray22",
"V  c #393939",
"C  c #3A3A3A",
"Z  c gray23",
"A  c #3C3C3C",
"S  c gray24",
"D  c #3E3E3E",
"F  c #3F3F3F",
"G  c gray25",
"H  c #414141",
"J  c gray26",
"K  c #434343",
"L  c #444444",
"P  c gray27",
"I  c #464646",
"U  c gray28",
"Y  c #484848",
"T  c #494949",
"R  c gray29",
"E  c #4B4B4B",
"W  c #4C4C4C",
"Q  c gray30",
"!  c #4E4E4E",
"~  c gray31",
"^  c #505050",
"/  c #515151",
"(  c gray32",
")  c #535353",
"_  c gray33",
"`  c #555555",
"'  c #565656",
"]  c gray34",
"[  c #585858",
"{  c gray35",
"}  c #5A5A5A",
"|  c #5B5B5B",
" . c gray36",
".. c #5D5D5D",
"X. c gray37",
"o. c #5F5F5F",
"O. c #606060",
"+. c gray38",
"@. c #626262",
"#. c gray39",
"$. c #646464",
"%. c #656565",
"&. c gray40",
"*. c #676767",
"=. c #686868",
"-. c DimGray",
";. c #6A6A6A",
":. c gray42",
">. c #6C6C6C",
",. c #6D6D6D",
"<. c gray43",
"1. c #6F6F6F",
"2. c gray44",
"3. c #717171",
"4. c #727272",
"5. c gray45",
"6. c #747474",
"7. c gray46",
"8. c #767676",
"9. c #777777",
"0. c gray47",
"q. c #797979",
"w. c gray48",
"e. c #7B7B7B",
"r. c #7C7C7C",
"t. c gray49",
"y. c #7E7E7E",
"u. c gray50",
"i. c #808080",
"p. c #818181",
"a. c gray51",
"s. c #838383",
"d. c #848484",
"f. c gray52",
"g. c #868686",
"h. c gray53",
"j. c #888888",
"k. c #898989",
"l. c gray54",
"z. c #8B8B8B",
"x. c gray55",
"c. c #8D8D8D",
"v. c #8E8E8E",
"b. c gray56",
"n. c #909090",
"m. c gray57",
"M. c #929292",
"N. c #939393",
"B. c gray58",
"V. c #959595",
"C. c gray59",
"Z. c #979797",
"A. c #989898",
"S. c gray60",
"D. c #9A9A9A",
"F. c #9B9B9B",
"G. c gray61",
"H. c #9D9D9D",
"J. c gray62",
"K. c #9F9F9F",
"L. c #A0A0A0",
"P. c gray63",
"I. c #A2A2A2",
"U. c gray64",
"Y. c #A4A4A4",
"T. c #A5A5A5",
"R. c gray65",
"E. c #A7A7A7",
"W. c gray66",
"Q. c #A9A9A9",
"!. c #AAAAAA",
"~. c gray67",
"^. c #ACACAC",
"/. c gray68",
"(. c #AEAEAE",
"). c #AFAFAF",
"_. c gray69",
"`. c #B1B1B1",
"'. c #B2B2B2",
"]. c gray70",
"[. c #B4B4B4",
"{. c gray71",
"}. c #B6B6B6",
"|. c #B7B7B7",
" X c gray72",
".X c #B9B9B9",
"XX c gray73",
"oX c #BBBBBB",
"OX c #BCBCBC",
"+X c gray74",
"@X c gray",
"#X c gray75",
"$X c #C0C0C0",
"%X c #C1C1C1",
"&X c gray76",
"*X c #C3C3C3",
"=X c gray77",
"-X c #C5C5C5",
";X c #C6C6C6",
":X c gray78",
">X c #C8C8C8",
",X c gray79",
"<X c #CACACA",
"1X c #CBCBCB",
"2X c gray80",
"3X c #CDCDCD",
"4X c #CECECE",
"5X c gray81",
"6X c #D0D0D0",
"7X c gray82",
"8X c #D2D2D2",
"9X c LightGray",
"0X c gray83",
"qX c #D5D5D5",
"wX c gray84",
"eX c #D7D7D7",
"rX c #D8D8D8",
"tX c gray85",
"yX c #DADADA",
"uX c gray86",
"iX c gainsboro",
"pX c #DDDDDD",
"aX c gray87",
"sX c #DFDFDF",
"dX c gray88",
"fX c #E1E1E1",
"gX c #E2E2E2",
"hX c gray89",
"jX c #E4E4E4",
"kX c gray90",
"lX c #E6E6E6",
"zX c #E7E7E7",
"xX c gray91",
"cX c #E9E9E9",
"vX c #EAEAEA",
"bX c gray92",
"nX c #ECECEC",
"mX c gray93",
"MX c #EEEEEE",
"NX c #EFEFEF",
"BX c gray94",
"VX c #F1F1F1",
"CX c gray95",
"ZX c #F3F3F3",
"AX c #F4F4F4",
"SX c gray96",
"DX c #F6F6F6",
"FX c gray97",
"GX c #F8F8F8",
"HX c #F9F9F9",
"JX c gray98",
"KX c #FBFBFB",
"LX c gray99",
"PX c #FDFDFD",
"IX c #FEFEFE",
"UX c white",
/* pixels */
"<.2.1.5.7.2.t.8.%.] | >.-.*.-.;.;.,.-.%.j x X.=.9.<./ f @.*.<.<.1.1.,.<.1.>.<.<.<.<.<.,.%.3.u.e.<.3.%.@.4.1.<.t.9.1.<.;.1.3.1.1.",
"1.1.<.1.1.6.q.:...] ` @./ F K I _ ^ M k E [ @.@.[ I p c ' O.-.<.1.<.<.<.<.,.,.<.<.<.<.<.$.*.7.2.1.1.#.} >.<.<.2.2.,.3.! *.4. .>.",
"-.-.:.<.,.2.3.:.$. .{ F / ^ ` ,.q.1.,.<.5.g.4.&.E A M E X.8.r.<.1.<.1.1.,.,.<.<.<.1.<.,.%./ w.4.4.5.O.' :.2.1.1.1.:.3.6.8.7.,.*.",
"/ ( *.,.<.<.>.<.,.{ &.u.w.1.<.1.=.$.>.&.:.,.;.%.o.{ ! ' 3.:.,.,.<.1.<.<.<.<.<.,.<.<.<.>.&...r.2.,.=...` -.2.3.2.<.<.<.<.7.7.9.8.",
"6.2.9.>.1.>.<.3.2.{ ..r.3.<.1.1.;.#.=.O.%.2.:.-.-.%.{ ] &.<.>.,.<.<.1.1.1.<.<.<.<.,.,.>.$.| w.,.>.:.X._ -.<.2.2.2.:.<.<.,.<.4.7.",
"1.3.4.&.2.>.:.1.2.+.&.q.2.,.,.,.<.<.<.7.*.1.<.,.<.;...W I #.@.;.1.1.<.<.<.<.1.1.<.1.>.>.$.{ 0.<.;.:...) =.,.1.2.1.,.,.1.:.,.1.2.",
"<.<.<.1.6.1.2.3.3.#.&.8.<.<.<.,.,.<.,.=.:.8.<.<.1.>.O.} ^ ! } &.2.<.,.,.1.<.2.<.1.>.,.,.@.~ 1.>.-.;..._ -.<.2.1.,.<.1.2.:.:.<.:.",
"1.1.<.>.<.1.2.2.3.O.@.6.1.<.<.<.<.<.1.1.1.4.;.1.1.1.*. .&.8.w.1.<.<.<.,.<.%.*.>.>.-.=.;...P %.>.;.;.o.` =.<.2.1.,.1.<.<.1.1.,.:.",
"1.2.1.3.2.3.2.2.4.#.&.9.<.<.<.<.<.<.<.1.1.8.-.2.2.<.&.-.q.y.u.0.9.e.t.r.y.3.2.w.w.0.5.6.#.c X.:.;.-...( &.:.,.,.,.1.1.,.<.<.<.<.",
"<.1.>.1.1.3.2.3.4.X.$.w.1.<.<.<.,.<.<.<.2.w.1.&.+.X.3.2.p.i.a.p.r.i.r.e.p.a.u.y.d.j.l.l.t.F $.;.;.#.^ ( -.:.;.:.,.,.,.>.<.,.2.2.",
"<.>.>.<.<.<.2.2.2.} } 6.3.1.1.1.<.<.<.<.1.1.2.$.} | 1.:.=.*.*.-.=.>.*.&.=.*.&.=.1.8.8.9.6.| 5.:.>. .J [ ,.,.,.:.>.2.,.,.2.,.>.<.",
",.,.,.,.1.<.1.,.2.| [ 4.2.,.<.1.<.,.1.1.<.<.<.>.o.2.*.6.=.-.;.=.-.-.>.>.;.;.*.=.*.*.*.=.&.' #. . .W K @.1.<.3.2.:.,.,.,.1.1.,.<.",
"<.<.1.<.<.1.<.,.4.{ ` 3.,.>.1.<.,.,.1.1.<.,.<.>.+.] +.*.[ R | | [ ] I n I P #.=.>.&.O.X.L a v ! E H L <.3.<.%.&.;.>.>.,.1.1.1.2.",
"1.1.1.1.2.2.2.1.6.] ^ 2.<.<.<.3.2.1.1.<.,.<.<.:. .~ S Q { Q ' / T Y A x F A Q L I I H J N l m D N Z ^ 4.1.4.3.>.<.8.2.,.,.,.<.1.",
"1.3.2.<.2.1.1.2.{ l E 3.2.2.1.3.2.1.<.<.,.<.,.>.*._ z &.&.$.@...} { [ [ ! Y Y I L P I Y W ^ ! Y U H G Q { 7.1.>.>.3.1.,.#.>.<.<.",
"3.<.1.,.3.3.*.R U R J -.2.2.2.1.<.<.,.<.<.,.<.<.<.-.) ..,.:.;.=.=.&.%.$.O.X.M ) | | | |  .X. . .' C C { +.:.=.*.2.,.:.:.&.3.3.1.",
"5.<.1.7.1.[ x s c I { 9.w.3.1.<.<.<.,.<.<.,.<.2.<.-.` -.<.<.<.,.>.>.:.:.:.;.N } %.%.$.$.%.$.$.#.;.*.T [ >.-.*.&.6.,.:.<.:.~ B ^ ",
"Z C V U x c G Y ] | ' #.5.1.1.<.<.<.<.1.1.1.1.2.<.%.U O.<.2.1.<.<.1.1.<.,.,.Q $.;.-.;.-.-.-.-.=.>.=.E E >.1.~ W ..+.$.o.~ F L R ",
"T B G U ~ =.0.y.q.@.=.0.%.=.2.<.<.<.<.1.1.1.<.1.<.-...5.6.2.2.1.<.,.<.1.1.1.^ =.<.<.,.,.,.:.;.-.=.#.| %.:.$.| E H A Y L H R ..X.",
"{ 4.e.e.:.1.6.r.u.3.$. .O.>.>.:.>.>.>.;.>.,.>.;...&.$.r.,.,.,.,.<.<.1.2.1.2.Q 0.5.1.1.1.<.,.:.-.=.o.! ' ..>.[ / ) o.2.+.[ >.q.>.",
"%.2.3.1.>.,.1.<.<.&.J x v m m B A K K F N B V B z V D q.,.<.1.1.1.1.1.2.1.<.` >.2.1.1.1.<.,.;.=.=.X.) <.w.9.W  .8.,.6.<.N #.O.6.",
"0.<.<.,.,.<.1.2.$.&.X.` @.+.<.y.a.d.s.s.s.a.y.e.1.| o.4.1.1.2.2.1.,.<.2.1.1.L %.2.2.1.1.<.,.:.-.-...) 7.9.<.L ' 8.<.,.<.X.o.=.<.",
"<.<.<.,.<.1.2.1.1.2.$.-.9.3.2.4.1.2.<.,.1.1.2.2.-.Q #.3.1.2.1.1.2.O.%.2.1.1.S $.2.2.1.1.<.<.>.-.*.} Y @.1.>.K ) 5.2.:.&.$.:.,.,.",
"<.<.<.<.,.<.1.1.2.2.%.*.2.3.1.<.1.1.>.,.>.,.<.<.>.+.O.2.1.2.1.<.2.1.<.1.1.,.[ &.&.;.1.<.;.*.#.X.O.! V %.1.&.Y ] 6.;.*.*...:.<.<.",
":.,.,.<.<.<.<.<.<.1.} ..t.7.,.<.1.<.<.,.>.,.<.1.*.R %.1.1.2.2.1.1.2.1.-.1.3.K I F ` 5.,.X./ G x Z } %.$.:.~ c ..1.=.-.=.U &.<.<.",
"@.,.,.,.<.<.<.<.,.2.E ( 7.1.<.<.,.,.,.,.,.,.<.<.<.1.5.1.1.2.2.1.1.2.<.:.9.4.Y q.d.u.f.h.p.p.p.y.r.r.e.q.y.8.[ ;.2.;.;.%.J &.<.,.",
"1.1.<.<.<.<.<.<.,.2.W ^ 5.1.<.1.<.,.,.<.1.<.,.<.<.&.' 6.<.2.1.<.1.1.1.2.1.1.W =.2.<.<.,.,.,.,.>.>.:.>.,.1.o.S  .3.:.;.*.G -.<.,.",
",.,.<.<.<.<.<.<.<.,.W ( 4.1.1.<.<.<.,.1.2.<.,.,.1.=.X.7.<.1.<.;.:.,.#.-.<.+.0.4.2.1.<.1.<.<.<.>.>.:.:.:.:.@.' *.<.:.:.#.U :.1.<.",
",.,.1.<.<.<.<.<.<.;.Q ^ >.<.<.,.,.5.<.2.2.1.<.<.1.;.{ :.e.e.e.6.5.q.@.:.9.R 1.4.1.1.1.1.<.1.1.,.>.;.;.;.;.,.X...%.;.X.| H %.<.<.",
"<.<.,.,.<.<.<.<.,.1.+._ { =.<.<.<.7.1.1.<.,.<.1.1.;./ [ j.s.d.g.f.f.f.s.y.' 3.4.1.1.1.1.,.2.<.,.>.:.>.>.>.,./ { *.;.] H m %.<.,.",
"<.,.<.1.<.<.,.<.<.3.&.` ' *.1.1.,.1.1.<.,.,.,.<.2.;.( ~ 1.:.,.3.3.3.2.2.,.X.#.1.2.2.1.1.<.1.2.<.,.,.,.1.>.<.P ' 8.3.=.M M *.1.<.",
"-.,.:... .-.<.>.O.W Q ` { X.X.;.3.4.1.3.2.1.>.$.>.-.W Y 1.,.,.>.,.>.:.:.;.*.^ -.3.<.<.1.,.,.1.3.,.>.,.<.<.3.Y [ t.1.O.X.' [  .%.",
"e.y.q.2.3.y.a.i.2.( ` %...( A G K T ! ^ ( Q L S W ( E T ( ~ U G ( O.*.| | ) E *.3.<.<.1.<.<.1.<.>.>.,.<.1.2./ O.i.3.:.7.o._ *.9.",
"s.r.w.y.y.u.y.t.r.t.5.5.0.,.%.+.X.$.$.| { ] _ #.>.-.@.3.-.&.X.' $.*.5.3.%.` ^ :.6.3.2.1.1.1.<.>.,.,.>.1.1.1._ %.9.,.1.4.@.;.0.y.",
"3.,.<.>.,.1.<.,.1.6.1.7.9.w.u.t.y.y.q.6.5.6.7.r.y.0.1.w.e.e.e.0.8.1.7.e.5.{ ^ 1.6.*.<.1.1.<.1.,.,.<.<.2.1.1.^ o.3.=.@.O.%.1.<.<.",
",.,.<.<.1.1.2.<.1.1.,.5.} *.5.<.<.,.>.<.1.<.>.<.>.,.1.:.<.>.<.,.>.>.7.4.1.P { 5.5.=.1.<.,.-.2.<.1.1.1.4.2.<.~ ] ,.;.O.W ..1.>.<.",
",.>.1.<.1.-.| <.1.<.<.<.%.,.3.,.1.1.<.<.:.>.,.1.,.,.1.<.,.<.<.,.<.1.4.6.4.B $.4.^ -.<.3.,.,.<.<.1.1.<.4.6.3.Q T &.>.#.V A -.1.<.",
"1.>.<.>.<.>.*.1.1.<.,.,.,.] T $.2.2.1.,.>.,.<.,.<.,.<.-.,.<.1.<.1.1.1.5.5.b T e.&.>.;.>.:.,.;.<.1.2.2.1.2.) S ! ~ _ H R T -.<.<.",
"<.,.<.2.1.<.1.1.<.,.,.,.:.) K K U Y T W ) o.<.,.<.:.O.:.' L O.{ ..$.%.$.-.c S 1.2.;.-.>.,.-.) { 3.2.3.` E { /  .] I R $.~ ;.1.>.",
",.<.1.2.2.<.1.<.1.1.<.,.>.| [ ^ / T M c b z z c M z a k z M l c c l l h l J ] Q @.H ) O.| ^ G ] ] E G v L ' %.&.O.+.O.$.O.,.1.<.",
",.:.1.1.3.1.1.<.1.2.1.>.=.~ X.-.&.+.{ ` ) Q I U T x W @...<.#.%.$.@.@.+.%.4.6.2./ >.t.6./ ~ *.s.e.w.q.5.,.0.d.0.q.d.8.X.@.,.1.,.",
"1.1.<.,.1.<.<.1.1.1.4.[ h R =.&.*.O.$.#.@.%.]  .,.2.9.5.7.<.<.,.>.3.4.4.1.7.3.2.>.8.0.2._ $.i.a.9.y.w.8.7.9.0.6.6.9.1._ X.>.<.2.",
"<.<.1.<.<.<.<.<.1.5.3.:.^ } ;.:.>.>.:.-.*.*.%.<.u.8.<.3.8.,.,.<.1.2.1.1.2.7.3.1.1.1.1.4.4.[ y.t.8. .X.=.6.8.7.6.7.5.=./ X.e.2.1.",
",.1.1.1.<.<.<.<.3.5.6.<.) | >.,.,.3.<.>.:.>.<.q.1.2.,.>.1.<.,.1.<.,.,.<.1.1.1.1.<.<.<.1.-.Q r.4.4.1.-.+.$.4.3.2.1.&.O.j W =.;.>.",
"| *.&.$.&.%.#.O.O.o.P b ~ O.<.3.2.3.1.-.>.,.>.7.1.<.<.<.1.<.<.1.1.<.1.1.1.1.<.1.<.<.<.<.*.W &.#.E B K #.X.{ [ T J A D z P F H ( ",
"E A x x v m z j Q =.O.:.r.a.d.f.s.a.8.6.r.,.%.7.1.<.<.1.<.1.1.,.<.<.1.1.1.1.1.<.<.<.<.,.$.T L F Z }  .! R P T ! _ )  .5.1./ T W ",
"9.} | e.7.8.=.| 4.8.<.>.2.6.8.7.2.<.<.<.1.<.O.9.1.<.,.<.1.<.<.<.<.<.<.<.<.1.1.<.<.<.<.<.;.| %.6.=.:.,.*.%.+.O.X.O.#.&.;.>.#.u.4.",
"2.4.{ 5.>.2.@.( ,.1.1.,.2.6.7.3.1.,.,.<.<.2.,.0.<.<.,.<.<.<.1.,.<.<.<.<.2.1.<.1.1.<.<.<.,.,.5.<.,.5.7.:.;.;.;.-.;.:.,.>.,.1.5.2.",
"<.1.%.t.8.5.o./ 4.>.,.1.3.1.2.1.,.<.,.<.<.<.X.0.1.<.,.<.1.1.<.<.1.1.1.1.1.1.<.1.<.<.,.,.,.<.e.1.1.6.8.<.,.,.,.,.,.,.<.<.<.1.,.1.",
"2.,.%.0.1.:.^ Q 9.<.1.8.6.,.,.>.,.<.,.,.<.,.{ q.<.,.<.<.1.1.1.<.1.1.1.1.<.<.<.,.<.1.,.*.3.{ O.} +.@.1.,.,.,.<.<.,.,.,.1.1.1.<.<.",
"2.-.( 9.2.:.I P e.4.1.<.2.<.<.;.:.,.,.,.,.,. .0.<.<.<.1.1.1.<.1.<.1.<.<.2.<.<.>.*.X.2...r.Z K ~  .) 4.4.,.<.<.<.<.<.<.<.1.1.1.1.",
"<.*.) w.3.>.` ^ w.4.<.>.<.<.,.>.,.,.1.,.<.,.@.9.<.,.<.<.<.<.1.1.1.1.<.>.5.,.:.>.#.( ,.#.q.! :.u.w.4.5.6.,.<.,.,.,.,.<.<.<.1.1.<.",
"1.=./ e.6.} N #.e.4.3.1.<.<.,.<.<.,.,.,.<.,.O.0.<.,.1.1.<.<.<.<.<.1.4.+.:.8.,.,.,.;.$.<.*.^ t.8.,.,.,.,.<.<.,.<.<.,.<.<.<.,.<.>.",
"<.-.^ w.6.} B ..4.2.1.1.,.<.<.,.,.>.>.,.<.,...6.:.,.,.1.<.<.<.1.<.=.!  .<.0.3.,.,.;.;.,.=.~ w.,.,.,.>.,.<.,.,.<.<.,.,.,.<.1.2.>.",
"1.-.) w.2.| W ( R ) 1.1.<.>.>.,.>.,.>.<.<.>.| 9.9.8.:.1.<.:.-...~ *.| 4.7.,.,.,.<.<.,.,.*.~ w.,.,.<.,.,.,.<.,.,.<.,.,.,.<.<.3.,.",
"2.*.A 0.;.;.0.%.^ o.1.<.<.>.>.,.:.:.>.<.<.>.{ 1.>.4.<.4.-.^ F ( :.7.0.0.3.,.<.1.1.1.1.<.;.~ e.,.<.<.<.<.<.<.,.,.<.<.<.<.,.1.,.,.",
",.O./ q.2.4.8.&.4.w.<.,.,.<.,.:.>.>.,.,.,.-.( U J D _ P ! Y U / O. .)  .' } .. .( T W Q C ( w.,.,.,.,.<.<.<.,.,.<.1.1.1.1.1.,.1.",
",.:.w.w.4.2. .T 2.5.1.,.,.1.,.<.,.<.<.<.<.;.( L <.>.0.:.>.1.>.<.+.%.@.=.$.*.;.;.$.@.o...] %.+.2.<.<.<.,.,.,.<.<.<.1.:.<.2.<.>.<.",
"<.;.{ y.2.H S H 2.1.1.,.,.<.1.2.,.:.<.<.<.:./ K ,.y.d.<.1.q.t.5.,.1.3.3.1.2.3.3.2.6.1.<.1.2.>.1.<.<.1.1.<.<.<.<.1.2.,.<.<.,.<.,.",
"<.*.C ~ B C N O.7.<.<.,.,.,.>.>.>.,.<.1.<.:.Q m [ s.,.' =.1.5.1.,.>.1.2.1.<.<.1.1.1.<.,.-.o.0.,.<.<.,.>.<.1.<.<.1.<.1.1.1.>.<.<.",
"<.&.v [ %.*.H  .*.1.<.<.<.<.,.,.1.1.>.1.<.>./ V 4.2.%.^ @.,.<.<.<.<.1.o.=.<.,.1.<.<.-.<.;.>.e.<.,.1.<.,.<.1.<.1.,.,.,.<.,.<.>.,.",
",.%.M X.4.X.V ] +.4.2.1.1.1.2.2.2.<.,.=.:.=.#.S y.2.%.! ] :.<.1.>.:.1.:.,.1.1.5.>.1.>.2.1.:.6.,.,.<.:.-.>.-.>.<.:.>.,.>.>.{ M *.",
"S G } ` V J ] { ] =.3.1.,.:.<.,.1.,.1.<.1.:./ P w.3.#.R { -.>.2.1.1.1.1.1.1.1.2.1.1.<.6.1.&.G P J V d n A U ^ F c c M C P ` V R ",
"y.r.s.a.i.i.a.2.{ *.7.2.<.1.>.>.1.1.,.,.3.o.g T q.r.9.Q ! ,.9.<.1.<.1.1.1.<.1.<.<.1.,.1.=.R t.q.$.3.4.W $.f.z.4. .` ] &.9.k.d.i."
};
