/* XPM */
static char *d7326884856d4d51e1f648385f92a6fbXkmRuRlw6dHybctF[] = {
/* columns rows colors chars-per-pixel */
"64 64 99 2 ",
"   c #261D16",
".  c #2B1E16",
"X  c #251E1A",
"o  c #2A1F1A",
"O  c #311F17",
"+  c #391F14",
"@  c #27201C",
"#  c #2D221D",
"$  c #352417",
"%  c #33241D",
"&  c #3A261C",
"*  c #35281F",
"=  c #3C291E",
"-  c #2F2421",
";  c #2F2821",
":  c #332620",
">  c #352922",
",  c #3C2B22",
"<  c #3D3027",
"1  c #40271D",
"2  c #442C1E",
"3  c #4A2F1E",
"4  c #4C311F",
"5  c #442E22",
"6  c #492F22",
"7  c #432F29",
"8  c #463124",
"9  c #4C3325",
"0  c #4E3926",
"q  c #463429",
"w  c #4D3529",
"e  c #4E382B",
"r  c #523525",
"t  c #583726",
"y  c #543926",
"u  c #593927",
"i  c #523629",
"p  c #543729",
"a  c #513929",
"s  c #53392A",
"d  c #543B29",
"f  c #563A28",
"g  c #553C2A",
"h  c #533A2D",
"j  c #513A2E",
"k  c #54392C",
"l  c #573E2F",
"z  c #593D2A",
"x  c #5B3C2A",
"c  c #5B3D2B",
"v  c #5F3E2B",
"b  c #593C2D",
"n  c #583E2F",
"m  c #5E3F2D",
"M  c #553E30",
"N  c #583E30",
"B  c #5A3E31",
"V  c #5E3E32",
"C  c #603E2C",
"Z  c #613E2C",
"A  c #5F402D",
"S  c #5D412E",
"D  c #564033",
"F  c #594031",
"G  c #5E4031",
"H  c #5F4232",
"J  c #5E4435",
"K  c #5E4739",
"L  c #62412E",
"P  c #62422E",
"I  c #64412E",
"U  c #68442E",
"Y  c #68452F",
"T  c #604331",
"R  c #634531",
"E  c #654430",
"W  c #604334",
"Q  c #624735",
"!  c #664735",
"~  c #694632",
"^  c #634837",
"/  c #664835",
"(  c #684832",
")  c #684934",
"_  c #6B4A34",
"`  c #6B4B35",
"'  c #644738",
"]  c #64493A",
"[  c #684C39",
"{  c #6B4C3A",
"}  c #724E37",
"|  c #724E3A",
" . c #6F513C",
".. c #73513C",
"X. c #6F5142",
"o. c #755443",
"O. c #7B5445",
"+. c #785847",
"@. c #7C5C49",
/* pixels */
"& 5 8 s l s 2 % J q w # = S z q h r s 8 % Q > > k s d J , w w , 8 8 % % & w 5 9 s 9 w = s i 9 , o = d i 5 w r 5 h z s = l 9 8 , ",
"* w 5 k n s 5 % ^ , w # 6 m E 9 J w d w > ! > > V d k J , 8 9 , h 8 % & = r 8 w s w w 5 d i w = o , n w 5 w r , W n s > F 9 q , ",
"% g 9 d l w 5 # ` , d # 5 v U 9 { w z w q R % & Q g n Q , 9 9 , g q # & = w 9 q s i w B n i d = o = n q 8 w s = ' z r & s 9 w > ",
"% d e k n q 8 $ ( 8 n % 2 L U 8 ` w v d 8 L % % W n n Q , 8 9 5 d 9 # & 2 i w > d s w ` h d n , o = s 8 8 r n = / d w = 9 9 q > ",
"% z h n n w 8 % d 9 G # = I U 9 E 9 Z s R m % $ T n n J , w d 9 d 9 # > 5 y d , z s r I 9 p G , # 2 9 8 8 i S = ! i w k 9 w 8 & ",
", l w Q S h 9 0 9 w G # = I E 8 E w Z 8 ` B % $ T S d w , 8 d e d 8 % > & d z 5 m s i Z 9 d G , # 2 6 8 5 d T , v i 9 B 9 s 5 % ",
"= s w { m g 9 / 9 w G # = L ` 2 E w S m L V % $ T g w 9 l = w S d 8 > = 8 d v 9 S i d Z 8 d V , # w 9 6 5 s G 6 p g 9 h 8 s 6 & ",
"& w 9 { v z w  .8 w G # = v ` 6 ! 9 n ` v n % % T n , 9 ` ! 8 r z 5 & = { q m w S w d Z 9 d J , # n 9 9 5 w m B i S w 8 8 k 6 * ",
"> s 8 ` L z w { 8 w G # = Z ~ 2 G 6 i L m d % & L d 5 S / 2 w d m 6 % = r & m l n i p I 8 s G > % Q 8 9 6 9 d Q w R w , 9 d 6 = ",
"> w 5 | L z w ` 8 w Q # 2 u E 8 s 9 9 v m d % % T 8 B T = = G 9 m 6 % = 5 ` n J z s d I 9 s G > % ' 8 w h 6 d n 9 R w & 9 d 6 > ",
"* w 5 ..L z w / w 9 F # 2 u I 5 w r 6 n v l % & L 8 F k q 8 ! 2 v 6 # > 5 U h { d d z T w s n , > ^ 5 e m 5 d s 2 z s % w i 5 > ",
"* w 5 | v z w v i w w o 2 u L * w s 8 m v s % % L 6 n 9 l B z q v w # & 2 v 9 { d n m T 9 n k , > ' 9 5 L 6 z w 8 d s = d d 5 > ",
"& w 9 } S n w r d d 9 o 6 u L & r d 8 v n @.% % L 6 n 5 l J w d m s # & 6 v 4 ~ h J B J 8 = + # > ^ 9 8 m 9 z w Q s d 8 z s 5 * ",
"& w w I G m w 4 z d 2   6 t I o i z 8 L n ` % % m 9 n 8 8 F h g L s # * 5 2 $ h 5 { S  .r ..y > > ] 9 J m s n & ! d z 9 n s 5 > ",
"% w u y n n w 6 n d 2 . 6 u E . m l 8 L z ` & & Z w n F w l s m L w # % o.+.2 | 6 R n G Q v 5 * , G w ^ l Q S & n d u 9 n s 5 * ",
"> s S y d n r 2 z k 6 o 2 t E . R n 6 L z ` > % m n n s z F h m L 8 o > { L 2 L 8 R n m ! n 5 % , n w / w ` L = s $ s 8 m d 5 & ",
"% h z d k n d 5 z z 9 o $ u I o ` n 2 m k ` > & S S F z I F B z L 6 @ = W m d v 5 R i L m z 2 % , Z w L 5 T L = z X i 9 G d 5 # ",
"% s y z r G d 2 z m r # # Z Z . { n 8 m d E # = m d J v E w Q d L 2 # & n S m m = T i L m z 6 % , L 8 z = z L , d o r 2 ^ d 6 # ",
"% s i z 9 E l , z v w # $ v t = { m 8 m d Q # = m m J G U % n z L 5 # > i m n m & U s L n z 6 % , T 9 z 2 z S 2 d B d 5 ( d 6 % ",
"% s i z 9 { l , n v w % 5 Z r 2 E m w v d R # = z m Q d L , d r L 5 # : 9 m z m = L w L n z 6 % , G l m s z g w g w v 9 L d 5 : ",
"% s i v 6 { z & m v 9 % 6 Z t r m m w m d 1 # = z T R 6 n h d r S q # : 9 v z m 2 L 8 L n z 6 > , n n m F n 9 g l r k ] z d 5 * ",
"% w i m 8 | d = m v 9 # 2 I u d z r w m d +.# % z G T d w J z d 9 2 # > 9 v d m w m 8 L n z 6 % , w G S G n 8 S h d 2 z S r n % ",
"% w i Z 9 | d = L z 6 # 2 Z d z d 9 9 m k ..% % d m n z 5 S n n { w % > 8 v r m T z r E n z 6 & > k m S G n s S w d Q n L w ! % ",
"% w s L 6 ` d 5 L z 2 $ 2 z r z d 2 6 S h | % # i L w z = m n d z J : > 5 v r m ( g G R z z i & > J m S R n G s s s z 2 v h ! # ",
"% e d L 2 E s w z z = # 5 z r y d 5 6 L s | % # w z 2 z & z s z z F : > 8 L w G / m Q L Z d m & > Q m R Q r z 2 S S e / T w Q # ",
"# B d L 2 L w T d z = . 6 v y z d 5 s v d ..% # w d w z & z w z s & & > 9 S w S ! z R E I z G > * Q Z R G d z 6 R S = v T w Q # ",
"; S d Z 8 v w E d z &   w z r u r 1 0 S z ..: # i k B z = z w z w l = > 9 Z w v R r T T U v Q > & G m R G s m n g s l z R d G # ",
": z n L d z e E d ! &   % & $ $ . .   . $ $ # # w s G d 8 u i z r w = > 9 L r v L n T L E v ! > % s m R Q s n Q 9 5 ` n S G n : ",
"% s z L E i w U d m = X ' O.9 { 8 = X.T n V % % s s G d r v y d r ] & > k S s m m Q S d E v ! , % 2 m R J z s v 5 & L z G Q w * ",
"& r z L  .d w Z z $ X.X w Z 9 v 2 5 G z d r # > m k G y r m v z i i = > ' S d m m ^ S r L L Q , # 6 v L G n 8 z = i v m L S 6 & ",
"* s z L { d w v 9 @.5   9 Z 9 m 2 5 d z d 6 # = n d J i w Z L m d Q = > Q L z m n Q L 8 L L G > # 6 m L d n w z B V z m L m = * ",
"* d d Z / d d v Q L = X 6 m 9 v 1 5 d z r 6 # > k k J s w L L m z { > * ' L m v z Q S 2 L E n , # 6 n z i n d l n G z r L m % > ",
"> s d Z E s l d m E = X 5 L r d 6 & d z r 6 o = m d B 9 w L L m s ^ = & ~ L S v w E v 6 m E k , % 5 ] z d n n 6 v Z u 3 U v & % ",
"> s d z E d G v L m = X 5 T r z w & G z y 9 o , m d 9 w 9 L T m s ^ > & { L G z 5 ( v 2 v E r = < h J F s 5 $ # $ $ O % = 6 > % ",
"* r z z ( d Q m T v 6 . & L z d d > Q z d 9 o = m d 8 r 9 2 9 z i J > % ^ L S z , ( v 2 m T r = > | E I E s ` ! m ` w O.L ..{ % ",
"* r z d ` d E n Z L 6 % & L z d d > Q d d p o & n d 5 9 8 6 5 v w F > % ^ L S n , E v 2 m L Q * % Q m Z z d S s z m 9 { L v 5 - ",
"> s z w ` s ` i v I 6 % & T v d d , / g s d o & n d 5 9 9 6 , S 6 n > % Q S m v = E m 2 m L Q , # 6 Z n u 2 L i n z 9 ( v z 9 % ",
"& s d 6 ` z ~ 6 Z U 6 % % n v i r 5 / z s d o # d d 5 w w F , S 6 i & % W z m v 1 L m 3 L v 6 , : 6 Z d z = L w z z 8 I z g J & ",
"> 9 z 2 E z E 5 v E 6 % % d m d w 6 ^ m s d X # n d 5 w s { D L 9 6 > % B v z z 9 v S s m n J , % 2 Z r u , z w d m 9 L d n S > ",
"> e z 8 E m E & L E = # % d S n 9 9 T n n i X % G d 6 w F U n m s 6 > % w v d m z z R k m z d , # 5 Z d z w z s d m w v d d g : ",
"# G u 3 E S E . E E = $ * n n m 9 l m d m 9 X & m z 2 w Q L Z i i 6 o : 5 m p m G 9 L d k z s , # , n z z ! n z i m r m d d l > ",
"# Q y 3 E T E o ` L 2 # = n d m 6 { v 9 m q X > m n 2 w T v Z 2 w 6 o : 5 v r m n 4 v d d z r > # , i v d S p n i z y m d d s > ",
": ] r 2 ` m v # | S 9 o > n k T = m m 3 v 5 # & z n 9 r z r Z = i w # - 5 v 6 m d ! v d d d w = o = d S r z 9 v s y m m d n w > ",
"> J r 2 ` m v # { z R X , m s L = z L 9 m l # & z d w d z T Z 8 w p % # , d 6 m 9 { z d G y r , o = n m d v 2 S s s m m d n s > ",
"> G r 2 ` d L # E d | X , S w T = r S r v k # & n d w z z ^ l h 9 w % # $ 8 9 z 9 L z k Q s s , o > Q z i L 6 L s r z z d z h , ",
"> S r 2 | z L . E d o.X , T 9 E = s z d z 9 . > z d w S y ! 6 s 8 9 $ o 9 = p s L m z s ! d d 5 o > Q y k L 6 L w s m m d d h , ",
"> m w 2 | m U $ v r ..X , L 8 E 2 z m n v 6 # & d s w S 9 E 2 r 6 w % # , K z 9 L 6 z w ! d n 5 X > Q d n L 2 S 8 d S m r s w , ",
"> u r 2 ..n R s z r ..o , m 8 E 6 u z n z 8 # & k d w m 6 L n r 2 r % o , n z 9 v $ d 6 E z g 5 X > L d n L 8 u 8 z S n r s 8 , ",
"> 8 d 2 | n k R d r { # , L 8 ! 9 z d z z 8 # % w s w d 8 z L r = y % # 5 i z 5 y & d 6 L d d 5   , T i n S w d 5 v m m d s , , ",
"> i d 2 | S w { d r  .# , L 8 E w z z z z 6 . # s s 8 d 8 z G i = m $ # 5 i z 5 y G d 5 v 9 r 8 o , 1 B n L i y 5 m T m d d = , ",
"& d d , } h w | y w { # , S 8 E i z n s v 6 # , k s k i w k s F F Q   # 5 r d 2 r m u 5 v 6 w 6 # 5 ( i n m d s 5 L S m d s 5 , ",
"& s d = ( e q , . & h : , m 8 E i m n d S 6 % # ' n 6 w 0 ~ n d J r & # 5 s r & r z u 5 v 9 w J # , J i n L m s 5 R m n d s q > ",
"& 9 w # . % w ` n d { : > S 8 I i m d n E 9 & # Q s 2 w h m r p s r $ # 5 r w = r d z 2 n s w Q # , & s s Z L s 9 R n n d s 9 > ",
"  q T & | 7 w ! 9 w S : , m 8 L i z z n ` 9 % # S w 9 9 w v 8 y w r & o , r 9 = r r u 6 d B w Q # & ] 5 w L E w w R z n d s 9 > ",
", ~ z = ( > n T 6 0 n % , v 8 v s d z B { 9 $ # G w 9 9 9 d 5 y 8 r & @ , i 9 2 y w z 6 w k w B % : , ^ q Z R i 9 S z d s r w * ",
"> s r , ` & l l 8 s n : , L w v g d z B { 8 $ # G w 9 8 9 d 5 y 2 r & # 5 i 9 2 y 9 v i 5 r w B * : = r w v R w 8 z z d s i w % ",
"> s w 2 ` = w 8 8 d V : , R v v l B z l ! w % # G w 9 8 s s 9 r = r % # = i 9 6 y 8 n d 2 9 9 l > > 2 i h u R w q z d z i s h & ",
"> s w 8 ` 8 9 2 8 d s : = R L n F F d s J q $ # G w 9 8 B e h r & w % # , w 9 9 d 6 m d = 9 9 l > > w w h d z w 9 S d d w d 9 > ",
"* g 9 s ` % 6 5 6 w l - > Q L n F T n w l h $ o G w 8 8 Q q k r & w # # , r 6 9 d 6 s d w w 9 h > * n w h d d w 5 S z z 9 i 8 > ",
"& d 9 J ] , 9 5 w w B # & Q v r D m z 9 w B O # G w 6 8 B , d w & w % # , r 6 w i 8 i d w 9 9 h > * n i e d d w , m z p 9 r 5 > ",
"& i w G 8 s w , d r B # & T m w M z d 8 8 G O # B w 8 5 w , d w % 8 % # = r 5 r r 6 i p w 9 9 h % = B s , s p w , m m s 9 r 5 , ",
"& e 9 r L ! s , d z e # = E m 9 w y y 6 5 R . # s w 9 5 9 5 d w = 8 % # = r % r w 8 i r w 9 9 F > = l d = d s w , m n D 9 d 8 , ",
"& w 9 9 v s 9 > z s s # , R n 9 8 r d 2 = ! $ % h r w 5 8 9 r 8 = 8 & # = r . r r 9 z = w w w F > = k d , r i 9 = z z = w s 8 , ",
", 8 9 s F s 5 & S 9 s o , T n 9 8 w d 6 & ^ $ > h s r h , e w 5 , 8 & # = r # r r w i % w w w w % > k y 5 r i 8 8 n z > w s 8 , "
};
