/* XPM */
static char *d13da56b52fc487af69bb92540b08601eNZDz07zHjgo6mIo[] = {
/* columns rows colors chars-per-pixel */
"64 64 139 2 ",
"   c #534C46",
".  c #554E49",
"X  c #5C5047",
"o  c #57504A",
"O  c #5B544D",
"+  c #5E594F",
"@  c #5D5651",
"#  c #5F5952",
"$  c #61574D",
"%  c #605751",
"&  c #635C55",
"*  c #685E56",
"=  c #655F59",
"-  c #685F59",
";  c #646057",
":  c #6A6057",
">  c #66615A",
",  c #6B635C",
"<  c #6D685F",
"1  c #71665D",
"2  c #71695E",
"3  c #6E6760",
"4  c #6E6861",
"5  c #716660",
"6  c #736B63",
"7  c #786F65",
"8  c #776F68",
"9  c #786F68",
"0  c #767166",
"q  c #7A7166",
"w  c #777068",
"e  c #7C746B",
"r  c #7F796E",
"t  c #7F7770",
"y  c #7F7971",
"u  c #81776C",
"i  c #83796E",
"p  c #8A7C6F",
"a  c #857C72",
"s  c #8A7F73",
"d  c #868176",
"f  c #8C8175",
"g  c #878179",
"h  c #8D847A",
"j  c #8F887F",
"k  c #918576",
"l  c #92867A",
"z  c #94897D",
"x  c #998C7E",
"c  c #A0917F",
"v  c #958C81",
"b  c #9A8E82",
"n  c #9D9184",
"m  c #9E9286",
"M  c #9D9389",
"N  c #9B948B",
"B  c #9F9488",
"V  c #9F968C",
"C  c #A29485",
"Z  c #A89787",
"A  c #A89A87",
"S  c #A09588",
"D  c #A19489",
"F  c #A0968C",
"G  c #A2978C",
"H  c #A89788",
"J  c #A2998D",
"K  c #A79B8D",
"L  c #A79B8E",
"P  c #A89A8B",
"I  c #AB9B8C",
"U  c #AA9C8D",
"Y  c #A69B90",
"T  c #A69B91",
"R  c #A99D92",
"E  c #AB9F92",
"W  c #AFA08F",
"Q  c #B0A18F",
"!  c #A7A093",
"~  c #AEA194",
"^  c #AFA294",
"/  c #AEA498",
"(  c #B0A194",
")  c #B2A494",
"_  c #B2A495",
"`  c #B4A495",
"'  c #B9A695",
"]  c #B6A897",
"[  c #BBA996",
"{  c #B1A499",
"}  c #B3A599",
"|  c #B7A89B",
" . c #B6A99C",
".. c #BAAB9C",
"X. c #BCAD9F",
"o. c #BFB09F",
"O. c #B6AAA0",
"+. c #B7AAA1",
"@. c #BDABA0",
"#. c #BBAEA3",
"$. c #BCADA0",
"%. c #BFB2A1",
"&. c #BDB2A5",
"*. c #C2AF9E",
"=. c #C4B19F",
"-. c #C1AFA1",
";. c #C2B1A1",
":. c #C2B4A3",
">. c #C3B3A4",
",. c #C3B1A6",
"<. c #C5B6A4",
"1. c #CAB6A4",
"2. c #C6B9A7",
"3. c #CAB9A6",
"4. c #C3B5A9",
"5. c #C7B6A9",
"6. c #C7B9A8",
"7. c #C6B9AB",
"8. c #CABBAB",
"9. c #CCBCAC",
"0. c #D2BFAC",
"q. c #CBBEB0",
"w. c #D0BFB0",
"e. c #D3C2AB",
"r. c #CEC1B4",
"t. c #D4C4B4",
"y. c #D9C8B5",
"u. c #D7CABA",
"i. c #DBCBBB",
"p. c #E0CEBD",
"a. c #E3D5BF",
"s. c #E2D4C3",
"d. c #E4D9C7",
"f. c #E5DCCC",
"g. c #E7E1CF",
"h. c #E8E4CE",
"j. c #E8E4D1",
"k. c #EBEBE6",
"l. c #EBEBEA",
/* pixels */
"P l z v e , E $.,.@.;.X.8.<.<.:.%. .X...7 < h B B B L G J J G m / h a r G B V s L S S B S S S S S S m b h = m L `  ._ _ ` U ` <.",
"L m z v r & b L s s h z m 5.;.o.6.X.#.S O = w z M G G G G J O.G Y a j w v S a j l S S B b z l l f f z z z O w i i s l z z m ^ C ",
"v m v v a O f E ..{ j a a f E z z L J M # # N b m L B B z J m J z v < 6 7 w O * s z S S m k m l z z l h < O 6 f z v l l z z b z ",
"r r w o = @ e w a a 7 e r 6 5 w 6 r y 6 & O 6 w a j d y 6 w w 4 4 > = > O # 3 & O < e u q e a e u a i e 4 @ 3 w g a w w r e e w ",
"@ O r j v r # O O o o # O O O O o O O & > 4 & # = , , @ O @ O & , , 3 5 6 a m i 5 , , @ o o   . . O o = = = & o O   . . O # O # ",
"a a a a g a a g j j 6 # & = , , r h h s z b z G Y 3 6 = 2  .G L E #.4. ...{ ^ ^ _  .o 6 v f s f m v B G S ^ b s u h e , < = w a ",
"L &.&.^  . . .t.s.u.^ , , e a s m U ^ U ` | | E C b , e s. .^ ^ { ^ | | ..| U ^ { E 6 e S m m S L S B S G S H ` E U ^ { & U w.u.",
"^ { ^ _ { { {  . ._ X., 5 f L H C m m S S H P P P b , e  ._ ^  .........| { E S L E w z S m ` E ^ ^ ^ _ ^ ` P E 0.,.^ z & E ..` ",
"..| .. .^  . . . . .^ , o : q z C S S S H P P C C b # w $. .`  . .E  . . .{ _ L C { a , S S E ^ ` ` ` _ _ ` ` ` ` ^ P f O C ....",
"-.X. .m  . . . .^  .S > . z b m x b m C C C C C C l & e L  ._ _  .i.#.m b m m m v w e @ m E E { E U ` _ _ ( ( (  .E P a O G  .-.",
" ... ...s $. . . .E 0 > . m C b m C C C C z b k h r @ w 7 M S B S L / E ^ E J f < 6 # @ H ..` E U E U P 9.L 7 h s e w , O 5 w i ",
"y e a m E a S &.h r 6 > & 6 u f f s e q , & # & w J { 3 6 < > & 5 e r 6 = O & & # @ , & , 7 f f v h 6 2 , , b C j 7 # , # , w u ",
"& = , 6 w < r a s < h w 6 & # & O & , = & # & + & O o & = @ O & v s j O , , , & & # @ o o o & = 5 , , , < , , 3 < , = * % > & @ ",
"< = w e , = , , 5 < 6 5 7 e r 3 # , @ & e f l x b C P _ _ / s u , 3 a E U I C ^ ` 9.p.j.f.S G h , 5 q.&.9.9.b 6 #.x x l b S m & ",
", g s s i i < j P 8...l f h l h s s @ a m d.| P H P C C H m C S < < { B H H H H G G U E E Y m b 5 v L ` Y { 8.w ^ C C C b b v l ",
"3 u a s s s : h b x z b ..P l s h a = a E m m L U C m m C C E z , y P L L L L L H L G L  .S b v < Y m Y { ^ ^ * x  .U C H C S v ",
"6 u x s k l : f x b b b x C ..H S v , i m S C P H H l e a s z f = a S S U U S S L L G S m m m v , B S S S ^ v & u i u i f C H x ",
"e e l l b x , f l b b b b b b b v h < i x S S b b b x b z f a r , 3 & e ^ L G S L L J l z M j v , w a  .E E u & u u i i i H H m ",
"& * 6 w b e # r l b z b b i 7 6 5 < , w l x v z x x l l i w e < , 6 m l ! , a v z z z u r 7 6 4 = O a a a s & & r e u a a i I z ",
"6 < # # @ - , . O , j b 5 v w & & O O & , 6 a a a w 5 5 < & & = , = 6 r e 6 = , = & & & @ , & a f 6 & & 6 i g @ # = , , 5 6 5 < ",
"7 6 5 , , , > 4 5 6 5 = s w = O O O @ o O O O o O @ O O # O , = = = & & & & = , 6 6 e 6 < 2 e z h r < & , 5 7 & 8 w v b < 6 w f ",
"I ^ W <.i...9.I | 9...6 = < ,.9.e.=.e.e. .& h a r 6 & , e l h h b p x {  ./ { z H 6 , B X.` ] ^ $._ U ..^ m m z l a & < B P C U ",
"_ _ _ _ _ _ _ _ ` ` _ a & G L z b J L m b = h z z z = , E 8.S C S m m S B S S S m m > P m b x x x z x v x b b m H  .O 5 L ^ E ^ ",
"_ _ _ _ _ _ _ _ _ ` ^ s @  .E { v L L m b B r z b v & < L S H S H G G S S H m H b v 6 b x b x x x b m m m C S H I { # 5 L ` _ _ ",
"_ _ _ _ _ _ _ _ ` _ _ h = _ ^ ^ E E L ^ J s < z M m r 6 L S S S S H C C H b u h v h , x x x m m m m m m z l f u f z , r E _ _ _ ",
"_ _ _ _ U E S f E s w e & _ E { / E L E m z h z m m j & r m m S m S m m S m m b m h = l z b m x v l h l z z l z z f : 5 L ^ _ ^ ",
"^ U P C l i i a f z b a , i &.U E ^ E ^ ^ G 7 z z v # & e a B m S m C S m b 2 5 r r @ a z z m m m x v l s h f h s f & r r m _ ^ ",
"> , r j v m m a a 6 4 = & 5 5 a h g a r w a . a e r O O   .   . # = , , , & @ O & 3 & = r s j v r , , , , < , = & = & = , & @ @ ",
"< & & = = , = & & & & @ & . & = & @ O .   O & ; & = + O & = > = = = < , 6 = = , , , , , O O 3 4 < w w 0 4 6 u z x C x f u 6 6 6 ",
"4.4.f < = = = , , & X X * u b #.#.E q 6 , & x C z x P P c C Q | U Q <.a w = r.C z z b z b b ( 8.d.q.q , r 2.P C S E / ^ ^  .:.8.",
"#.#.#.= = 5 6.:.I ( P b P C C b m S m / @ ( X.' ` ` _ W ^ _ Q ` ( ` ( 9.5 , S L J J S G G E ^ E ^ E h = a P P P E { ^ L { #.#.#.",
"E O.{ N & E b { H U H C m b b m S b x l # I 9.[ | | ` W C C I I ( ( ` k = , L L E E E ^ E E E ^ E L m = a E L U E { S { { O.O.#.",
"O.{ { / O b m b v m U S H m m z x x l s & I C C C C C C C P P I ( ( | p = = m L E ^ L E E ^ / E E S h = u m b b m S v l ^ { O.#.",
"{ &.{ b & m S m m b b b b m b C b l k s & ( ( ( ( ( I ( I U C U ` C e l = & f v v v N v v j v z E m a = a L S S Y G m m Y Y E { ",
"a w 6 6 O w C C m b x b b x z l l f u a @ 2 p ^ _ I U U C C C C i u i s @ & w h h l z v j g w 6 w 5 5 & & Y l { L L S m z h h j ",
"& = & , & O & 5 w 5 = & = = , w s b h , & = , w 7 6 2 7 e 7 , i 7 u e & # = o & 5 e t a a r a 6 = & z %., Y & , 6 w 7 3 & = = @ ",
"a a i l C I _ C = & = , 5 < < 4 = , , < 6 , & & # O @ & & < 6 5 , @ # & @ # o o 6 w & O & & > & , - : 5 6 6 6 7 = O o # & = & 6 ",
"6.8.6.[ _ _ ` ` m # , P ^ U z a 6 b U E f b E L w 2 5 ; O O 6 < 2 z b P ` ( X.g.U b m H g E , r x C x k z l f 8.I l Z 0.x , a ` ",
"^ ( ` ` ( _ _ _ ` : & x a a a a O m b v z z z l l { a i 6 a & h E U _ ` ` ` L U ^ U E m 7 B & s z l l l h l z z l l l l 8.r z 8.",
"U _ ( ( _ _ ( ( ( S u a a a d & r S S b v v l l l h a 6 i { * l ^ U ^ ( ` ` E U _ U S S z m & s b x z x z k l v l l z l l e i _ ",
"C P ( ( [ ` ( ( I S 5 s a i r = E H S m v v z v l f a r 0 w # v E ^ ` E ` ( ` E E ^ E z B v # v z x b z z x x x z x P I P w e H ",
"C C b C C C H H W f O a i i 5 # / H S m S v v m h r e 6 6 w O 6 j.r.l : 2 U _ _ { E q ^ Y j = h z x m m x z k z C C P z e e # h ",
"v e f b x b S z f 5 @ 6 a w , O u G U U m L P b r 6 w 6 6 w o r E ^ E m 5. .^ ^ ^ u E E M h 4 e z z z x z l f i e e e e w , # r ",
"< , , 6 > & & , < & , = & & # a , < 6 7 7 v h r < 5 , 5 6 = = # > , 6 6 = 9 5 r 6 N f r w o r = O , 5 = & = & & & & = , = = < 3 ",
"L Y L m z a w e - 6 w 3 4 6 3 = , 6 = = & @ & = < < & # > 5 6 6 , , : , 4 3 = 5 , & O & 5 , , 7 2 w 5 5 5 4 < 6 5 6 3 5 * z b z ",
".. .I P U j.z = , s.1.1.8.X.X.[ ( ` ( ' ..t.j.a.w 4 = 1 i E x ^ X.( b C I 6.b 5 z p.p.y.e.0.C ( E P I U E , i.P C 5 M i.y. .C U ",
"_ ^ ^ ^ E H x , v 6.6.6.*.1.1.6.8.3.6.6.=.=.*.*.s., 5 / S G ^ m m m S S S 6.6 : C [ [ ' [ -.[ *.=.( P P C 6 L H u 6 z E L L P { ",
"_ U ^ ^ _ u j , N f S ,.,.<.*.6.1.6.;.( [ | Q .. .= b Y Y L L S L L L L L l , * C 0.y.( C C C C C C H P H , a l C 6 r U E U U _ ",
"U U E _ a h a > 0 E b l l C E -.,.;.[ [ X.X.$.U H = L S L E Y ^ Y E L G E s $ , s P P I H S C C m m C z P , u m m , < :.S S L m ",
"L L s e u e 6 = &  .( ` ( x m U X.` *...| ` E G i = E U L E Y L G L L L f r o = a C C P P H C C m m C C C < 6 f l , , h :.^ S S ",
"6 6 6 < 6 , # , , h  .` ` ` m S v l | L L P S 5 5 & , U { E Y G m a l j , & * 3 f w s f s l l h a h h a 2 & # 5 5 = + 6 4 6 6 < ",
"& & & & = w y 4 = @ # & , = & = = > & , , = 3 & = # @ , - O O O , , , < 5 2 2 - # O O @ o o O & & & = # @ @ & < = # = = & & @ & ",
"w e 6 u a i i e a = @ < r 4 , = r r a a a a j v z a g a 6 3 5 f h h s a 2 a , &.l k l V g 5 < h r.G ..X.| | I ..X.| ` ` I q.@ 6 ",
"2 9.U ^ P m z C H L & l _ , & 6 l 6.s.g.y.[ ;.t.t.w.E U 7 = v 9... . . .:.p ` ..X.X.....S , 5 E U P P I _ ..;.8.9.8.w.I E ^ l & ",
"w f f l h z l z b b & u ` z > e z C L S P E _ ` `  .{ E z a L .. . . . . ... . .....{  .E = O H U ^ (  ._ _  .` ` ` ] A ..L h , ",
"h f f f l x x x x z 2 6 m ^ = 5 v J P m L L E ^ ` { E U a = l l 1 q._ ^ _ ^  ...{ ..#...m & r C E I ` ` _ _  .( ` ` ` ] ^ L a , ",
"s k k l x k b z z k 5 < P l & 6 j b z S S S L L L S B S w r ^ _ { { { _  .E  . . . .5.E b , a L s.L U ` ` ( ( E ` ` ^ ` E m 5 6 ",
"f f l l l l h z z z 6 a z x e 6 z z z v h a s h f h l l & w O. ._  ._ E P L  .{  . . .{ S , h m S i.m E E ( ( ^ I ( ^ ^ E z & 5 ",
"6 f a 2 7 u a a a s 6 2 k z w < , e e e i e a j g j w r , t z {  . . . . .{  . . . . .v r = 5 r s f B v v v f v a i a r 6 , # # ",
"& = & O o O O O @ = = & e a 5 o , 6 < 6 0 w r 5 = @ & # = & & 6 5 5 5 5 6 6 w 8 6 5 5 , , o o # @ @ O , , % . o O o   . O & < 6 ",
"&.&...l @ & & O # = & & , , 3 3 , , & & & > O , , & # O O O O & 4 , & o . . .     O o O O , < 3 5 = z v r , 2 9.r.b b m z b S ] ",
" ._ ` U q & y.h.k.k.l.:...P ^ C m L 6.i.= r 2 E 8.&._ ^ 6.t.q.$.B E , 7 G  .{ 6 , s v b b b l E S ^ L b : &  .` { _ _ I ` <.^  .",
" ._ ^ l 6 a r.;.=.X.*.` _ ^ ( ^ _ ..^ ..w w a S E E E Y E E ^ ^ i G , r B B S , _ 9.0.6.d.Q L S m m b L a r $.^ { _ _ _ _ E P { ",
"_ { l h 6 a #.6.;.*.6.] ` ` ....X.|  ._ 0 6 h J S G Y Y Y E E Y { S g w B B S , P C m S S S S S S S m m z 6 C ^ _ ^ _ _ ^ E P U "
};
